<svg width="100" height="40" viewBox="0 0 100 40" fill="none" xmlns="http://www.w3.org/2000/svg">
<g clip-path="url(#clip0_5_3226)">
<mask id="mask0_5_3226" style="mask-type:luminance" maskUnits="userSpaceOnUse" x="0" y="0" width="100" height="40">
<path d="M99.9074 0H0V40H99.9074V0Z" fill="white"/>
</mask>
<g mask="url(#mask0_5_3226)">
<path d="M45.2666 4.82397H50.5728V5.65369H46.2671V8.30363H50.299V9.1044H46.2671V12.0341H50.7847V12.8639H45.2666V4.82397Z" fill="white"/>
<path d="M52.2348 12.4169C51.8475 11.9543 51.655 11.3626 51.6971 10.7639V6.96265H52.6748V10.4648C52.6363 10.9295 52.7617 11.3931 53.0302 11.7769C53.1683 11.9255 53.3391 12.0408 53.5297 12.1138C53.7201 12.1869 53.925 12.2158 54.1286 12.1982C54.3759 12.2057 54.6212 12.153 54.8429 12.0448C55.0645 11.9365 55.2559 11.7761 55.3998 11.5775C55.7309 11.0773 55.8908 10.4856 55.856 9.88917V6.96265H56.8339V12.8639H55.8985V11.5229H55.8659C55.6987 11.9573 55.4078 12.3348 55.0282 12.6099C54.664 12.8627 54.2283 12.9955 53.7831 12.9893C53.4985 13.0091 53.2129 12.9682 52.9458 12.8694C52.6786 12.7707 52.4362 12.6163 52.2348 12.4169Z" fill="white"/>
<path d="M62.0071 7.30992C62.2739 7.67305 62.404 8.11653 62.3753 8.56415C62.374 8.70813 62.3653 8.85196 62.3493 8.99508C62.3297 9.14944 62.307 9.28773 62.2809 9.40351L61.3747 9.51928C61.4067 9.37719 61.4295 9.23325 61.4432 9.08833C61.4595 8.92432 61.4693 8.78925 61.4693 8.67669C61.4893 8.38164 61.4114 8.08819 61.2476 7.84055C61.171 7.74381 61.0716 7.66711 60.9579 7.6172C60.8441 7.56729 60.7198 7.54571 60.5958 7.55433C60.3878 7.55955 60.1856 7.62272 60.0126 7.73653C59.8395 7.85036 59.7028 8.01019 59.6179 8.19752C59.3516 8.735 59.2272 9.33012 59.2562 9.92771V12.8639H58.2783V6.9626H59.2268V8.24897H59.2495C59.3801 7.85429 59.6166 7.50193 59.9341 7.22952C60.2174 6.99132 60.5789 6.86325 60.951 6.86933C61.1494 6.85851 61.3478 6.89257 61.5308 6.96893C61.7137 7.04529 61.8767 7.16193 62.0071 7.30992Z" fill="white"/>
<path d="M63.784 12.1787C63.256 11.5481 62.9883 10.7443 63.0344 9.92758C62.9902 9.10782 63.2653 8.30244 63.8036 7.67642C64.0606 7.39657 64.3771 7.17601 64.7302 7.0304C65.0834 6.88477 65.4648 6.81766 65.8472 6.83384C66.2247 6.81681 66.6012 6.88172 66.9503 7.02397C67.2995 7.16622 67.6128 7.38236 67.868 7.65712C68.3945 8.28105 68.6624 9.07834 68.6178 9.889C68.6667 10.7149 68.3991 11.5288 67.868 12.1691C67.3228 12.6965 66.5897 12.9919 65.826 12.9919C65.0625 12.9919 64.3293 12.6965 63.784 12.1691V12.1787ZM67.1739 11.5967C67.5143 11.1028 67.6772 10.5106 67.6367 9.91472C67.6732 9.32182 67.5067 8.73401 67.164 8.24564C67.0101 8.05134 66.8117 7.89582 66.5851 7.79184C66.3584 7.68786 66.1101 7.63838 65.8602 7.64748C65.6026 7.6311 65.3448 7.67534 65.1079 7.77654C64.8711 7.87774 64.662 8.03301 64.4978 8.22956C64.1543 8.71508 63.9876 9.3012 64.0252 9.89221C63.9893 10.4901 64.1555 11.0828 64.4978 11.5774C64.6663 11.763 64.8725 11.9115 65.103 12.0131C65.3336 12.1148 65.5833 12.1673 65.8359 12.1673C66.0883 12.1673 66.338 12.1148 66.5686 12.0131C66.7991 11.9115 67.0053 11.763 67.1739 11.5774V11.5967Z" fill="white"/>
<path d="M69.7354 14.7934V6.96257H70.6708V8.31326H70.7132C70.882 7.87885 71.1725 7.50076 71.5509 7.22306C71.9171 6.96412 72.3585 6.82875 72.809 6.83714C73.1502 6.82698 73.489 6.8976 73.7968 7.04306C74.1048 7.18853 74.3729 7.40464 74.5789 7.67329C75.0439 8.32277 75.2735 9.10789 75.2308 9.90194C75.2712 10.7066 75.032 11.5008 74.5528 12.1531C74.2029 12.5898 73.7014 12.883 73.1452 12.9763C72.589 13.0695 72.0175 12.9561 71.541 12.658C71.1774 12.4077 70.8945 12.0594 70.7262 11.6546H70.6904V14.7934H69.7354ZM73.7868 8.25538C73.6447 8.06054 73.4562 7.9032 73.2379 7.79721C73.0197 7.69121 72.7783 7.63981 72.5352 7.64756C72.2772 7.63542 72.0202 7.6839 71.7851 7.78902C71.5498 7.89413 71.3433 8.05288 71.1825 8.25216C70.8313 8.73472 70.6586 9.32169 70.6936 9.91481C70.6598 10.5093 70.8362 11.0969 71.1924 11.5774C71.3512 11.7772 71.5556 11.9369 71.789 12.0437C72.0224 12.1504 72.2781 12.2012 72.5352 12.1917C72.781 12.2003 73.0251 12.1487 73.2458 12.0415C73.4664 11.9343 73.6568 11.7749 73.7998 11.5774C74.1293 11.0802 74.2881 10.4917 74.2529 9.89873C74.2835 9.31543 74.1198 8.73829 73.7868 8.25538Z" fill="white"/>
<path d="M76.8119 12.1691C76.2683 11.5457 75.9903 10.739 76.0361 9.91789C76.008 9.11436 76.2859 8.32956 76.8152 7.71819C77.0648 7.43195 77.3761 7.20431 77.7263 7.05187C78.0764 6.89941 78.4567 6.82601 78.8392 6.83701C79.2969 6.82967 79.7479 6.94647 80.143 7.17468C80.5261 7.40488 80.833 7.74011 81.0263 8.13947C81.1664 8.42063 81.2672 8.7192 81.3261 9.02708C81.3964 9.38193 81.4303 9.74287 81.4272 10.1044H77.0172C77.0126 10.6627 77.2076 11.2048 77.568 11.6352C77.7371 11.8224 77.946 11.9702 78.1799 12.0681C78.4138 12.166 78.6668 12.2115 78.9207 12.2012C79.3106 12.2148 79.6941 12.1018 80.0126 11.8796C80.3291 11.6281 80.5675 11.2938 80.7003 10.9148L81.5119 11.1946C81.3222 11.7349 80.9696 12.2051 80.5015 12.5421C79.935 12.9008 79.2623 13.06 78.5926 12.9941C77.9229 12.9281 77.2953 12.6408 76.8119 12.1787V12.1691ZM79.6703 7.86289C79.4152 7.70367 79.1183 7.62203 78.8164 7.62813C78.5899 7.62025 78.3641 7.65908 78.1537 7.74215C77.9433 7.8252 77.7526 7.95067 77.5941 8.11053C77.2592 8.47569 77.0623 8.94369 77.0368 9.43549H80.4364C80.4321 9.26597 80.4136 9.09709 80.381 8.9306C80.3479 8.78984 80.2998 8.65293 80.2375 8.52217C80.1177 8.25251 79.9206 8.02333 79.6703 7.86289Z" fill="white"/>
<path d="M86.5189 12.613C86.401 12.4825 86.3112 12.3296 86.2553 12.1637C86.1992 11.9978 86.178 11.8224 86.193 11.6482V11.6064H86.1604C86.0043 12.0231 85.725 12.3838 85.3585 12.6419C84.9861 12.8852 84.547 13.0099 84.1004 12.9989C83.6103 13.0307 83.1266 12.8739 82.7511 12.5615C82.5854 12.4104 82.4554 12.2252 82.3703 12.019C82.2853 11.8128 82.2472 11.5907 82.2589 11.3684C82.2546 11.1206 82.3011 10.8744 82.3958 10.6448C82.4896 10.4318 82.6297 10.2419 82.8065 10.0885C82.9857 9.94741 83.1887 9.83855 83.4062 9.76687C83.6915 9.67055 83.9849 9.59952 84.283 9.55462L85.1434 9.41954C85.4296 9.38849 85.7054 9.29631 85.9518 9.14941C86.0303 9.08521 86.0923 9.00376 86.1331 8.91162C86.1738 8.81946 86.1922 8.71917 86.1865 8.61877C86.1923 8.48106 86.1661 8.34386 86.1095 8.21782C86.053 8.09178 85.9678 7.98027 85.8605 7.89197C85.6049 7.69989 85.2882 7.6041 84.9674 7.62183C84.5969 7.60197 84.2318 7.71633 83.9407 7.94342C83.6485 8.22013 83.4485 8.57789 83.367 8.96931L82.461 8.78279C82.5991 8.21852 82.918 7.71327 83.3703 7.34205C83.8284 6.99826 84.3922 6.82003 84.9674 6.83714C85.2577 6.80579 85.5514 6.83898 85.8269 6.93426C86.1026 7.02954 86.353 7.1845 86.5599 7.38775C86.7669 7.59101 86.925 7.83739 87.0228 8.10885C87.1207 8.3803 87.1557 8.66991 87.1251 8.95645V11.4006C87.1022 11.6177 87.1564 11.8359 87.2784 12.018C87.3531 12.0827 87.4407 12.1313 87.5355 12.1606C87.6304 12.19 87.7304 12.1995 87.8292 12.1885H87.9465H88.0932V12.8638C88.0142 12.8964 87.9307 12.917 87.8455 12.9249C87.7374 12.9386 87.6285 12.9462 87.5196 12.9474C87.3387 12.9601 87.1569 12.937 86.9851 12.8796C86.8134 12.8221 86.6549 12.7315 86.5189 12.613ZM83.5561 12.002C83.7903 12.1939 84.0899 12.2905 84.3938 12.2721C84.6462 12.2817 84.8976 12.2332 85.1277 12.1305C85.358 12.0278 85.5608 11.8737 85.7204 11.6804C86.0688 11.228 86.2443 10.6688 86.2158 10.1013V9.64787C86.1193 9.72719 86.0088 9.78825 85.8899 9.82797C85.6877 9.89642 85.4807 9.95015 85.2705 9.98876L84.4785 10.1367C84.1407 10.1725 83.8193 10.2993 83.5496 10.5033C83.4522 10.6005 83.3769 10.717 83.3285 10.845C83.2803 10.9731 83.26 11.1099 83.2693 11.2462C83.2589 11.3851 83.2792 11.5246 83.3288 11.6551C83.3783 11.7856 83.4558 11.9039 83.5561 12.002Z" fill="white"/>
<path d="M88.9199 6.96264H89.8553V8.33584H89.8879C90.0658 7.89488 90.3664 7.51251 90.7549 7.23277C91.125 6.97045 91.5704 6.83184 92.0261 6.83721C92.3108 6.81961 92.596 6.86572 92.86 6.97208C93.1242 7.07844 93.3606 7.24232 93.5515 7.45145C93.9366 7.96681 94.1227 8.60087 94.0762 9.23953V12.8639H93.118V9.47751C93.1588 8.98604 93.0388 8.49461 92.7757 8.07536C92.6407 7.92205 92.4707 7.80251 92.2798 7.72649C92.0889 7.65047 91.8825 7.62013 91.6773 7.63799C91.425 7.63 91.1746 7.6826 90.9475 7.79128C90.7204 7.89996 90.5234 8.06147 90.3735 8.26188C90.0268 8.76337 89.8561 9.36324 89.8879 9.96955V12.8639H88.9102L88.9199 6.96264Z" fill="white"/>
<path d="M45.2666 24.1196V16.0797H48.2685C49.2138 16.0797 49.9275 16.2437 50.4034 16.5782C50.6409 16.7453 50.8315 16.9694 50.957 17.2294C51.0824 17.4894 51.1386 17.7766 51.1205 18.064C51.1304 18.4993 50.9771 18.923 50.6903 19.2538C50.3766 19.5985 49.9619 19.8378 49.5038 19.9389C50.0421 20.0021 50.5453 20.2357 50.938 20.6045C51.1066 20.7741 51.2392 20.9753 51.3277 21.1962C51.4161 21.4172 51.4586 21.6534 51.453 21.8909C51.4742 22.2052 51.4193 22.5197 51.293 22.8089C51.1665 23.098 50.9723 23.3532 50.7261 23.5536C50.2404 23.9266 49.5266 24.1132 48.5781 24.1132L45.2666 24.1196ZM49.6831 17.2374C49.2711 16.9912 48.7911 16.8788 48.3108 16.9158H46.2671V19.6173H48.2C48.7086 19.6601 49.2184 19.5478 49.6603 19.2957C49.8189 19.1726 49.9446 19.0129 50.0258 18.8306C50.1071 18.6484 50.1416 18.449 50.1263 18.2505C50.1443 18.0585 50.1132 17.8652 50.0357 17.6881C49.9582 17.5112 49.837 17.3562 49.6831 17.2374ZM49.9209 20.7332C49.4442 20.465 48.8975 20.342 48.35 20.3794H46.2671V23.2738H48.4998C49.0175 23.314 49.5344 23.1876 49.9731 22.9136C50.1348 22.7753 50.2611 22.6013 50.3415 22.4057C50.422 22.21 50.4543 21.9984 50.4359 21.788C50.4467 21.5837 50.4053 21.38 50.3153 21.1956C50.2253 21.0113 50.0897 20.8522 49.9209 20.7332Z" fill="white"/>
<path d="M52.6035 15.6522H53.5812V24.1198H52.6035V15.6522Z" fill="white"/>
<path d="M55.4529 23.4345C54.9259 22.8036 54.6592 21.9996 54.7065 21.1833C54.6614 20.364 54.9355 19.5587 55.4725 18.9321C55.7306 18.6535 56.0471 18.4337 56.4001 18.2882C56.753 18.1428 57.1338 18.0749 57.5161 18.0896C57.8934 18.0725 58.2701 18.1374 58.6192 18.2797C58.9684 18.422 59.2817 18.6381 59.5369 18.9128C60.0634 19.5368 60.3313 20.3341 60.2867 21.1446C60.3356 21.9706 60.068 22.7845 59.5369 23.4248C58.9917 23.9522 58.2586 24.2476 57.4949 24.2476C56.7314 24.2476 55.9982 23.9522 55.4529 23.4248V23.4345ZM58.8428 22.8524C59.1832 22.3585 59.3461 21.7664 59.3056 21.1704C59.3421 20.5776 59.1756 19.9897 58.8329 19.5013C58.679 19.307 58.4806 19.1516 58.254 19.0476C58.0273 18.9436 57.779 18.8941 57.5291 18.9032C57.2742 18.8894 57.0196 18.9349 56.7859 19.036C56.5519 19.137 56.3455 19.2911 56.183 19.4853C55.8334 19.9685 55.6619 20.5552 55.6974 21.148C55.6599 21.7474 55.8275 22.342 56.1733 22.8362C56.3414 23.0218 56.5473 23.1702 56.7776 23.272C57.0079 23.3736 57.2573 23.4261 57.5096 23.4261C57.7618 23.4261 58.0113 23.3736 58.2415 23.272C58.4718 23.1702 58.6778 23.0218 58.846 22.8362L58.8428 22.8524Z" fill="white"/>
<path d="M62.5635 19.5176C62.2109 19.9912 62.0358 20.5709 62.068 21.1577C62.0337 21.7548 62.2112 22.3449 62.5701 22.8268C62.8755 23.163 63.2963 23.3757 63.7514 23.4238C64.2064 23.472 64.6635 23.3521 65.0341 23.0873C65.3521 22.7938 65.5783 22.4166 65.686 22.0004L66.5595 22.2512C66.4249 22.8388 66.0858 23.3612 65.6009 23.7273C65.116 24.0934 64.5164 24.2801 63.9064 24.2546C63.5205 24.2752 63.1347 24.2128 62.7756 24.0717C62.4167 23.9306 62.0929 23.7144 61.8268 23.4378C61.2945 22.8094 61.0252 22.0042 61.074 21.1866C61.0391 20.3717 61.3213 19.5744 61.8628 18.958C62.1226 18.6754 62.442 18.4524 62.7983 18.304C63.1547 18.1557 63.5394 18.0858 63.9259 18.0993C64.5366 18.0728 65.1355 18.2697 65.6078 18.6525C66.0835 19.0882 66.4074 19.6612 66.5335 20.2894L65.598 20.4985C65.5237 20.054 65.3159 19.6417 65.0016 19.315C64.8564 19.1796 64.6853 19.074 64.4985 19.0045C64.3116 18.9349 64.1125 18.9028 63.9129 18.9098C63.6553 18.8985 63.3986 18.9477 63.164 19.0534C62.9295 19.159 62.7236 19.3182 62.5635 19.5176Z" fill="white"/>
<path d="M71.7436 24.1198L69.7553 20.8459L68.5656 22.0198V24.1198H67.5879V15.6522H68.5656V21.0646L71.3753 18.2186H72.5226L70.4594 20.3282L72.8192 24.1198H71.7436Z" fill="white"/>
<path d="M74.3852 19.5177C74.0325 19.9913 73.8574 20.571 73.8897 21.1578C73.8553 21.7549 74.0328 22.345 74.3917 22.8269C74.6961 23.1636 75.1165 23.3766 75.5713 23.4248C76.0259 23.4729 76.4825 23.3526 76.8525 23.0874C77.1724 22.7954 77.399 22.4177 77.5044 22.0005L78.3779 22.2513C78.2371 22.7162 77.9764 23.1373 77.6214 23.4733C77.2664 23.8093 76.8292 24.0486 76.3525 24.1682C75.8757 24.2877 75.3757 24.2833 74.9013 24.1553C74.4268 24.0273 73.994 23.7802 73.6452 23.438C73.1129 22.8096 72.8436 22.0044 72.8924 21.1868C72.8569 20.3712 73.1405 19.5734 73.6844 18.9581C73.9438 18.6752 74.263 18.4516 74.6195 18.3032C74.976 18.1549 75.361 18.0853 75.7476 18.0994C76.3572 18.0721 76.9555 18.2693 77.4261 18.6526C77.9029 19.0881 78.2279 19.661 78.3551 20.2896L77.4164 20.4986C77.343 20.0545 77.1364 19.6422 76.8232 19.3152C76.6774 19.1797 76.5057 19.0742 76.3183 19.0048C76.1309 18.9352 75.9314 18.9029 75.7313 18.91C75.4742 18.8992 75.2182 18.9486 74.9842 19.0544C74.7502 19.16 74.5449 19.3188 74.3852 19.5177Z" fill="white"/>
<path d="M79.416 15.6522H80.3938V19.5371H80.4167C80.6014 19.1107 80.9014 18.7424 81.2836 18.4726C81.6498 18.2215 82.086 18.0888 82.5319 18.0931C82.8163 18.0752 83.1008 18.1212 83.3645 18.2276C83.6281 18.334 83.864 18.498 84.0541 18.7074C84.4404 19.2223 84.6276 19.8563 84.5822 20.4954V24.1198H83.6238V20.7334C83.6646 20.2419 83.5448 19.7504 83.2817 19.3312C83.1463 19.1775 82.9757 19.0576 82.7842 18.9816C82.5926 18.9056 82.3856 18.8755 82.1799 18.8939C81.9277 18.8859 81.6772 18.9384 81.45 19.0471C81.223 19.1559 81.026 19.3174 80.8762 19.5178C80.5271 20.0184 80.3541 20.6184 80.384 21.2254V24.1198H79.4062L79.416 15.6522Z" fill="white"/>
<path d="M89.9202 23.869C89.8011 23.7392 89.7107 23.5864 89.6547 23.4203C89.5984 23.2543 89.5779 23.0784 89.5942 22.9042V22.8623H89.5649C89.4045 23.2748 89.1245 23.6316 88.7599 23.8883C88.3874 24.1312 87.9483 24.2558 87.5018 24.2452C87.0171 24.2724 86.5402 24.116 86.1687 23.8079C86.004 23.6562 85.8748 23.4708 85.7903 23.2647C85.7059 23.0586 85.6682 22.8367 85.6798 22.6147C85.6755 22.3668 85.722 22.1207 85.8167 21.8911C85.9105 21.6782 86.0506 21.4882 86.2274 21.3348C86.4059 21.1926 86.6091 21.0836 86.8271 21.0132C87.1113 20.9168 87.4036 20.8458 87.7006 20.801L88.5644 20.6659C88.8494 20.6343 89.124 20.5422 89.3694 20.3958C89.4484 20.3319 89.5111 20.2506 89.5525 20.1584C89.5938 20.0662 89.6126 19.9658 89.6074 19.8651C89.6133 19.7274 89.5869 19.5902 89.5303 19.4642C89.4738 19.338 89.3887 19.2266 89.2814 19.1383C89.0261 18.9456 88.7092 18.8499 88.3883 18.8682C88.0178 18.848 87.6525 18.9624 87.3617 19.1898C87.0701 19.4656 86.8701 19.8222 86.788 20.2124L85.8818 20.0227C86.0199 19.4586 86.3403 18.954 86.7945 18.5851C87.251 18.2408 87.814 18.0626 88.3883 18.0803C88.6786 18.0488 88.9722 18.082 89.2479 18.1774C89.5234 18.2727 89.7738 18.4276 89.9807 18.6308C90.1878 18.8342 90.3459 19.0804 90.4437 19.3519C90.5415 19.6234 90.5766 19.913 90.546 20.1995V22.6436C90.5249 22.8607 90.579 23.0783 90.6992 23.2611C90.7745 23.3259 90.8628 23.3746 90.9582 23.4039C91.0536 23.4332 91.1541 23.4427 91.2533 23.4316H91.3675H91.5141V24.1198C91.4353 24.1528 91.3517 24.1734 91.2664 24.1808C91.153 24.1968 91.0386 24.2044 90.9241 24.2034C90.7426 24.2167 90.5603 24.1939 90.3879 24.1364C90.2155 24.079 90.0564 23.988 89.9202 23.869ZM86.9542 23.2579C87.1886 23.4496 87.488 23.5462 87.7918 23.528C88.0444 23.5376 88.2956 23.4892 88.5259 23.3864C88.7561 23.2838 88.959 23.1296 89.1184 22.9363C89.4613 22.482 89.6298 21.9226 89.5942 21.3572V20.9039C89.4976 20.983 89.3872 21.0439 89.2684 21.0839C89.0649 21.1519 88.857 21.2056 88.6459 21.2447L87.8571 21.3927C87.518 21.4279 87.1955 21.5547 86.9248 21.7592C86.7409 21.9666 86.641 22.2336 86.6447 22.5091C86.6483 22.7846 86.7551 23.049 86.9444 23.2515L86.9542 23.2579Z" fill="white"/>
<path d="M92.2705 16.7552V15.6522H93.3428V16.7552H92.2705ZM92.3227 18.2186H93.2809V24.1198H92.3227V18.2186Z" fill="white"/>
<path d="M94.7509 18.2183H95.6865V19.5915H95.7191C95.8969 19.1506 96.1974 18.7682 96.5861 18.4884C96.9565 18.2267 97.4016 18.0882 97.8572 18.0928C98.1403 18.0767 98.4235 18.1235 98.6858 18.2299C98.9481 18.3362 99.183 18.4992 99.3728 18.7071C99.7592 19.222 99.9464 19.8562 99.9008 20.4951V24.1195H98.9426V20.7331C98.9882 20.2434 98.874 19.7522 98.6166 19.331C98.4812 19.1772 98.3107 19.0574 98.1192 18.9814C97.9277 18.9054 97.7205 18.8752 97.515 18.8936C97.2627 18.8856 97.0122 18.9383 96.7851 19.047C96.558 19.1556 96.3611 19.3171 96.2112 19.5175C95.862 20.0182 95.6892 20.6182 95.7191 21.2252V24.1195H94.7412L94.7509 18.2183Z" fill="white"/>
<path d="M45.8903 34.4107C45.2166 33.6839 44.8799 32.6902 44.8799 31.4295C44.8799 30.1688 45.2264 29.1472 45.9196 28.3647C46.265 27.981 46.6923 27.6775 47.1708 27.4763C47.6493 27.275 48.167 27.1808 48.6868 27.2006C49.5069 27.17 50.3092 27.4404 50.9391 27.9595C51.5692 28.5231 51.9884 29.28 52.1288 30.1078L51.151 30.3071C51.0553 29.6812 50.7556 29.1032 50.2969 28.6606C49.8485 28.2708 49.2642 28.0679 48.6673 28.0946C48.2799 28.0752 47.8933 28.1442 47.5372 28.2958C47.1811 28.4475 46.8653 28.6779 46.6138 28.9692C46.1216 29.5578 45.8772 30.3747 45.8772 31.4263C45.8279 32.269 46.0922 33.1003 46.6203 33.7643C47.0891 34.2434 47.7158 34.5412 48.3877 34.6044C49.0595 34.6675 49.732 34.4915 50.2839 34.1084C50.7524 33.684 51.0806 33.1306 51.2258 32.5196L52.1614 32.777C51.9777 33.5738 51.5291 34.287 50.8869 34.803C50.1349 35.3228 49.2231 35.5688 48.3077 35.499C47.3922 35.4292 46.5296 35.0479 45.8674 34.4203L45.8903 34.4107Z" fill="white"/>
<path d="M53.7216 34.6807C53.2243 34.0416 52.9563 33.2576 52.96 32.452C52.9635 31.6463 53.2382 30.8646 53.7411 30.2299C53.9909 29.9483 54.3008 29.7247 54.6485 29.5751C54.9962 29.4255 55.3731 29.3536 55.7522 29.3647C56.2084 29.3526 56.6593 29.4638 57.0559 29.6863C57.4391 29.9166 57.7459 30.2518 57.9393 30.6511C58.0793 30.9323 58.1803 31.2308 58.2392 31.5387C58.3093 31.8936 58.3432 32.2546 58.3401 32.616H53.9269C53.9223 33.1744 54.1174 33.7164 54.4777 34.1468C54.6468 34.334 54.8558 34.4819 55.0896 34.5798C55.3235 34.6776 55.5766 34.7231 55.8304 34.7128C56.2203 34.7264 56.6038 34.6135 56.9223 34.3912C57.2388 34.1398 57.4772 33.8054 57.61 33.4264L58.4216 33.7063C58.2308 34.2442 57.8784 34.712 57.4112 35.0474C56.8447 35.406 56.172 35.5652 55.5023 35.4992C54.8326 35.4334 54.205 35.146 53.7216 34.6839V34.6807ZM56.5801 30.3746C56.325 30.2154 56.028 30.1336 55.7261 30.1398C55.4996 30.1319 55.2739 30.1707 55.0634 30.2538C54.853 30.3368 54.6624 30.4623 54.5038 30.6222C54.1689 30.9874 53.9722 31.4554 53.9465 31.9471H57.3493C57.3424 31.7776 57.3228 31.6088 57.2907 31.4423C57.2591 31.3011 57.2109 31.164 57.1472 31.0338C57.0274 30.7642 56.8303 30.535 56.5801 30.3746Z" fill="white"/>
<path d="M59.4463 29.474H60.3817V30.8473H60.4143C60.5922 30.4054 60.8941 30.0228 61.2845 29.7441C61.6535 29.4818 62.0978 29.3433 62.5525 29.3486C62.8372 29.331 63.1222 29.3772 63.3864 29.4834C63.6505 29.5898 63.887 29.7537 64.0779 29.9629C64.4641 30.4778 64.6514 31.1118 64.6059 31.7509V35.3753H63.6476V31.9889C63.6933 31.4992 63.5791 31.0078 63.3217 30.5868C63.1863 30.433 63.0157 30.3132 62.8243 30.2372C62.6326 30.161 62.4256 30.131 62.2199 30.1494C61.9676 30.1414 61.7172 30.194 61.4901 30.3026C61.263 30.4113 61.066 30.5729 60.9162 30.7733C60.5703 31.2773 60.402 31.8796 60.4371 32.4874V35.3817H59.4593L59.4463 29.474Z" fill="white"/>
<path d="M68.8882 34.668C69.0137 34.6545 69.1381 34.6309 69.2597 34.5972V35.3433C69.099 35.3992 68.9331 35.4391 68.7643 35.4623C68.5831 35.4896 68.3999 35.5025 68.2167 35.5009C67.9806 35.5189 67.7435 35.4895 67.5193 35.4143C67.2952 35.3391 67.0889 35.2197 66.9129 35.0635C66.5982 34.6851 66.4451 34.2007 66.4859 33.7128V30.23H65.2441V29.4807H66.499V28.2361L67.4441 27.7665V29.4807H69.2793V30.23H67.4312V33.6067C67.4025 33.9049 67.4848 34.2032 67.6627 34.4461C67.7685 34.5388 67.8925 34.6089 68.0271 34.6521C68.1617 34.6953 68.304 34.7105 68.4448 34.6969C68.5931 34.6963 68.7412 34.6867 68.8882 34.668Z" fill="white"/>
<path d="M70.4517 34.6808C69.9488 34.042 69.6758 33.2561 69.6758 32.4473C69.6758 31.6384 69.9488 30.8525 70.4517 30.2138C70.7013 29.932 71.0112 29.7084 71.3589 29.5588C71.7066 29.4092 72.0836 29.3374 72.4628 29.3488C72.919 29.3365 73.3698 29.4477 73.7666 29.6704C74.1496 29.9005 74.4566 30.2357 74.6498 30.635C74.79 30.9162 74.8908 31.2148 74.9497 31.5226C75.02 31.8776 75.0538 32.2385 75.0508 32.6H70.657C70.6551 33.1585 70.8511 33.7 71.2112 34.1308C71.3801 34.318 71.5892 34.4658 71.8231 34.5637C72.057 34.6616 72.31 34.707 72.5638 34.6969C72.9527 34.7109 73.3354 34.5978 73.6524 34.3753C73.9711 34.125 74.2108 33.7904 74.3435 33.4105L75.1551 33.6902C74.9642 34.2282 74.6117 34.696 74.1446 35.0313C73.5774 35.3896 72.9043 35.5486 72.2342 35.4828C71.564 35.4168 70.9361 35.1297 70.4517 34.6678V34.6808ZM73.2971 30.3746C73.0435 30.2149 72.7474 30.1332 72.4465 30.1398C72.22 30.132 71.9943 30.1708 71.7838 30.2538C71.5733 30.3369 71.3827 30.4624 71.2242 30.6222C70.8893 30.9874 70.6924 31.4554 70.6669 31.9472H74.0794C74.0751 31.7777 74.0566 31.6088 74.024 31.4422C73.9909 31.3016 73.9429 31.1646 73.8806 31.0338C73.7571 30.7616 73.5539 30.532 73.2971 30.3746Z" fill="white"/>
<path d="M79.8948 29.8217C80.1616 30.1848 80.2918 30.6282 80.263 31.0758C80.2618 31.2198 80.253 31.3637 80.237 31.5068C80.2175 31.6612 80.1947 31.7995 80.1686 31.9152L79.2625 32.031C79.2944 31.8889 79.3172 31.745 79.3309 31.6001C79.3472 31.4361 79.357 31.3011 79.357 31.1884C79.377 30.8933 79.2991 30.5999 79.1353 30.3523C79.0587 30.2556 78.9593 30.1788 78.8456 30.1289C78.732 30.0791 78.6075 30.0574 78.4834 30.0661C78.2756 30.0713 78.0734 30.1345 77.9003 30.2482C77.7274 30.3621 77.5905 30.5218 77.5056 30.7093C77.2394 31.2468 77.1149 31.8418 77.1438 32.4394V35.3756H76.166V29.4744H77.1113V30.7606H77.134C77.2621 30.3656 77.4964 30.0121 77.812 29.738C78.0952 29.4998 78.4568 29.3717 78.829 29.3778C79.0293 29.3658 79.2297 29.3997 79.4145 29.4768C79.5994 29.5537 79.7637 29.6717 79.8948 29.8217Z" fill="white"/>
<path d="M40.3776 22.1129L37.3561 12.9378L32.2095 12.1724L33.4872 9.64785L28.5981 0H18.8199L16.4926 4.59237L14.4555 2.61457L3.64401 4.22255L0.612769 13.3944L4.33176 16.9995L1.79268 18.2859L0 28.9436L7.91058 34.6165L12.5324 32.2496L12.9985 35.0281L22.7018 40L30.5993 34.3271L29.7616 29.2652L32.5876 29.6864L40.3776 22.1129ZM27.9918 0.964785L32.1476 9.16547H23.9991L19.8432 0.964785H27.9918ZM19.0936 1.60797L23.1614 9.64785L19.0936 17.6877L15.0259 9.64785L19.0936 1.60797ZM4.38716 5.08441L13.5754 3.72085L11.0624 11.3555L1.87091 12.7223L4.38716 5.08441ZM2.26528 13.6388L11.2645 12.301L17.7474 18.6011L8.7613 19.9389L2.26528 13.6388ZM7.64658 33.2304L1.06257 28.5095L2.58797 19.4661L9.17197 24.1872L7.64658 33.2304ZM8.65373 33.1436L10.1465 24.2868L18.2136 20.1512L16.7305 29.0079L8.65373 33.1436ZM22.617 38.868L14.3707 34.6423L20.9547 29.9244L29.2011 34.1469L22.617 38.868ZM21.3524 29.04L19.8628 20.1865L27.9364 24.3223L29.4292 33.1789L21.3524 29.04ZM29.3966 19.9936L20.4007 18.6525L26.8836 12.3557L35.8796 13.6935L29.3966 19.9936ZM36.7466 14.2048L39.2596 21.8395L32.6397 28.2715L30.1268 20.6336L36.7466 14.2048Z" fill="white"/>
</g>
</g>
<defs>
<clipPath id="clip0_5_3226">
<rect width="100" height="40" fill="white"/>
</clipPath>
</defs>
</svg>
