<svg width="145" height="36" viewBox="0 0 145 36" fill="none" xmlns="http://www.w3.org/2000/svg">
<path d="M65.535 9.115C65.2283 9.115 64.9467 9.09 64.69 9.04C64.4367 8.99 64.21 8.92833 64.01 8.855C63.81 8.78167 63.6433 8.70833 63.51 8.635L63.425 7.81C63.6817 7.96333 63.9833 8.09833 64.33 8.215C64.68 8.32833 65.06 8.385 65.47 8.385C65.9633 8.385 66.3283 8.29833 66.565 8.125C66.8017 7.94833 66.92 7.685 66.92 7.335V7.255C66.92 7.025 66.8733 6.83667 66.78 6.69C66.6867 6.54333 66.5283 6.42 66.305 6.32C66.085 6.22 65.785 6.12667 65.405 6.04C64.925 5.92667 64.54 5.79333 64.25 5.64C63.9633 5.48333 63.755 5.28833 63.625 5.055C63.4983 4.82167 63.435 4.53167 63.435 4.185V4.14C63.435 3.61667 63.6067 3.21333 63.95 2.93C64.2933 2.64333 64.8133 2.5 65.51 2.5C65.9667 2.5 66.355 2.54667 66.675 2.64C66.9983 2.73333 67.2617 2.83667 67.465 2.95L67.54 3.71C67.3033 3.57 67.0267 3.45167 66.71 3.355C66.3967 3.255 66.0367 3.205 65.63 3.205C65.3067 3.205 65.045 3.24333 64.845 3.32C64.645 3.39667 64.5 3.50667 64.41 3.65C64.32 3.79333 64.275 3.96667 64.275 4.17V4.19C64.275 4.39667 64.3183 4.57333 64.405 4.72C64.495 4.86667 64.65 4.99333 64.87 5.1C65.0933 5.20667 65.41 5.31 65.82 5.41C66.29 5.52 66.6667 5.64667 66.95 5.79C67.2333 5.93333 67.4383 6.12 67.565 6.35C67.695 6.58 67.76 6.88 67.76 7.25V7.355C67.76 7.93167 67.5733 8.37 67.2 8.67C66.83 8.96667 66.275 9.115 65.535 9.115ZM68.8801 9V4.12H69.6901V9H68.8801ZM69.2851 3.32C69.1184 3.32 68.9934 3.27667 68.9101 3.19C68.8301 3.1 68.7901 2.97833 68.7901 2.825V2.8C68.7901 2.64333 68.8301 2.52167 68.9101 2.435C68.9934 2.34833 69.1184 2.305 69.2851 2.305C69.4517 2.305 69.5767 2.34833 69.6601 2.435C69.7434 2.52167 69.7851 2.64333 69.7851 2.8V2.825C69.7851 2.98167 69.7434 3.10333 69.6601 3.19C69.5767 3.27667 69.4517 3.32 69.2851 3.32ZM72.933 7.54C72.2697 7.54 71.7597 7.395 71.403 7.105C71.0497 6.815 70.873 6.4 70.873 5.86V5.735C70.873 5.39833 70.9414 5.105 71.078 4.855C71.218 4.605 71.4397 4.41 71.743 4.27C72.0464 4.12667 72.443 4.04833 72.933 4.035L75.423 3.955V4.595L73.953 4.545L73.948 4.58C74.178 4.62667 74.3664 4.70667 74.513 4.82C74.6597 4.93333 74.768 5.075 74.838 5.245C74.9114 5.415 74.948 5.61333 74.948 5.84V5.95C74.948 6.46667 74.778 6.86167 74.438 7.135C74.098 7.405 73.5964 7.54 72.933 7.54ZM72.898 10.23H73.013C73.313 10.23 73.5697 10.2067 73.783 10.16C73.9997 10.1167 74.1664 10.0467 74.283 9.95C74.3997 9.85333 74.458 9.725 74.458 9.565V9.545C74.458 9.35833 74.3897 9.215 74.253 9.115C74.1197 9.01833 73.8897 8.955 73.563 8.925L72.183 8.8L72.413 8.79C72.2264 8.81667 72.0614 8.86 71.918 8.92C71.778 8.98 71.668 9.05833 71.588 9.155C71.508 9.255 71.468 9.37833 71.468 9.525V9.535C71.468 9.705 71.5264 9.84167 71.643 9.945C71.7597 10.0483 71.9247 10.1217 72.138 10.165C72.3514 10.2083 72.6047 10.23 72.898 10.23ZM72.853 10.875C72.413 10.875 72.033 10.8367 71.713 10.76C71.3964 10.6867 71.1497 10.565 70.973 10.395C70.7997 10.2283 70.713 10.0033 70.713 9.72V9.7C70.713 9.5 70.7597 9.33333 70.853 9.2C70.9497 9.06667 71.078 8.96167 71.238 8.885C71.4014 8.80833 71.583 8.75667 71.783 8.73L71.778 8.7C71.5047 8.65333 71.303 8.57333 71.173 8.46C71.043 8.34333 70.978 8.19333 70.978 8.01V8.005C70.978 7.87833 71.0064 7.77 71.063 7.68C71.123 7.59 71.2114 7.51833 71.328 7.465C71.448 7.41167 71.5997 7.37833 71.783 7.365V7.265L72.713 7.5L72.333 7.49C72.1064 7.49333 71.9497 7.52167 71.863 7.575C71.7764 7.625 71.733 7.70167 71.733 7.805V7.81C71.733 7.92 71.7947 8.00333 71.918 8.06C72.0414 8.11667 72.2514 8.16167 72.548 8.195L73.733 8.315C74.2497 8.36833 74.6264 8.49333 74.863 8.69C75.0997 8.88333 75.218 9.17 75.218 9.55V9.575C75.218 9.87833 75.128 10.1267 74.948 10.32C74.768 10.5133 74.513 10.6533 74.183 10.74C73.853 10.83 73.458 10.875 72.998 10.875H72.853ZM72.923 6.94C73.203 6.94 73.4347 6.9 73.618 6.82C73.8047 6.73667 73.9447 6.61333 74.038 6.45C74.1347 6.28333 74.183 6.08 74.183 5.84V5.72C74.183 5.48667 74.1364 5.28833 74.043 5.125C73.953 4.96167 73.8164 4.83833 73.633 4.755C73.4497 4.66833 73.2197 4.625 72.943 4.625H72.913C72.613 4.625 72.368 4.67167 72.178 4.765C71.9914 4.855 71.8547 4.98333 71.768 5.15C71.6847 5.31333 71.643 5.505 71.643 5.725V5.84C71.643 6.08 71.6897 6.28167 71.783 6.445C71.8797 6.60833 72.023 6.73167 72.213 6.815C72.403 6.89833 72.6397 6.94 72.923 6.94ZM79.425 9V5.965C79.425 5.70167 79.3883 5.475 79.315 5.285C79.245 5.095 79.1283 4.94833 78.965 4.845C78.805 4.73833 78.585 4.685 78.305 4.685C78.0483 4.685 77.825 4.73333 77.635 4.83C77.4483 4.92667 77.2967 5.05833 77.18 5.225C77.0633 5.38833 76.9817 5.575 76.935 5.785L76.79 5.21H76.965C77.0183 4.99 77.1117 4.79 77.245 4.61C77.3783 4.42667 77.5567 4.28167 77.78 4.175C78.0067 4.065 78.2833 4.01 78.61 4.01C78.9967 4.01 79.3083 4.08333 79.545 4.23C79.785 4.37667 79.96 4.58833 80.07 4.865C80.18 5.13833 80.235 5.475 80.235 5.875V9H79.425ZM76.16 9V4.12H76.97L76.935 5.29L76.97 5.335V9H76.16ZM84.387 9L84.422 7.815L84.392 7.69V6.135L84.397 5.85C84.397 5.45333 84.2954 5.16 84.092 4.97C83.892 4.78 83.5737 4.685 83.137 4.685C82.787 4.685 82.4654 4.735 82.172 4.835C81.882 4.935 81.6237 5.05167 81.397 5.185L81.472 4.495C81.5987 4.41833 81.7487 4.34333 81.922 4.27C82.0987 4.19333 82.2987 4.13 82.522 4.08C82.7487 4.03 82.997 4.005 83.267 4.005C83.617 4.005 83.9137 4.04833 84.157 4.135C84.4037 4.21833 84.602 4.34 84.752 4.5C84.9054 4.66 85.017 4.85333 85.087 5.08C85.157 5.30667 85.192 5.56 85.192 5.84V9H84.387ZM82.707 9.105C82.2237 9.105 81.852 8.98833 81.592 8.755C81.3354 8.51833 81.207 8.18167 81.207 7.745V7.6C81.207 7.15 81.3454 6.815 81.622 6.595C81.902 6.37167 82.3454 6.21667 82.952 6.13L84.497 5.91L84.542 6.5L83.052 6.715C82.6787 6.76833 82.412 6.86 82.252 6.99C82.092 7.11667 82.012 7.305 82.012 7.555V7.635C82.012 7.89167 82.0904 8.08833 82.247 8.225C82.407 8.36167 82.6454 8.43 82.962 8.43C83.242 8.43 83.482 8.38167 83.682 8.285C83.882 8.18833 84.0437 8.05833 84.167 7.895C84.2904 7.73167 84.3737 7.55 84.417 7.35L84.542 7.9H84.387C84.3404 8.11333 84.252 8.31167 84.122 8.495C83.9954 8.67833 83.817 8.82667 83.587 8.94C83.357 9.05 83.0637 9.105 82.707 9.105ZM88.1596 9.1C87.7829 9.1 87.4796 9.04333 87.2496 8.93C87.0196 8.81667 86.8529 8.645 86.7496 8.415C86.6463 8.185 86.5946 7.89833 86.5946 7.555V4.475H87.3946V7.46C87.3946 7.78 87.4679 8.01667 87.6146 8.17C87.7613 8.32 88.0079 8.395 88.3546 8.395C88.5513 8.395 88.7396 8.37333 88.9196 8.33C89.1029 8.28667 89.2746 8.225 89.4346 8.145L89.3596 8.84C89.2029 8.92 89.0196 8.98333 88.8096 9.03C88.5996 9.07667 88.3829 9.1 88.1596 9.1ZM85.7946 4.84V4.19H89.3846L89.3096 4.84H85.7946ZM86.5996 4.27L86.5946 2.9L87.4096 2.795L87.3746 4.27H86.5996ZM92.1527 9.125C91.4527 9.125 90.9211 8.93667 90.5577 8.56C90.1977 8.18 90.0177 7.635 90.0177 6.925V6.18C90.0177 5.47333 90.1994 4.93167 90.5627 4.555C90.9261 4.17833 91.4561 3.99 92.1527 3.99C92.8527 3.99 93.3827 4.17833 93.7427 4.555C94.1061 4.93167 94.2877 5.47333 94.2877 6.18V6.925C94.2877 7.635 94.1061 8.18 93.7427 8.56C93.3827 8.93667 92.8527 9.125 92.1527 9.125ZM92.1527 8.465C92.5861 8.465 92.9144 8.33667 93.1377 8.08C93.3644 7.82333 93.4777 7.45333 93.4777 6.97V6.135C93.4777 5.655 93.3644 5.28833 93.1377 5.035C92.9144 4.77833 92.5861 4.65 92.1527 4.65C91.7227 4.65 91.3944 4.77833 91.1677 5.035C90.9411 5.28833 90.8277 5.655 90.8277 6.135V6.97C90.8277 7.45333 90.9411 7.82333 91.1677 8.08C91.3944 8.33667 91.7227 8.465 92.1527 8.465ZM96.178 6.015L95.993 5.39L96.193 5.38C96.2997 4.96667 96.483 4.64167 96.743 4.405C97.003 4.165 97.348 4.045 97.778 4.045C97.8847 4.045 97.9797 4.05333 98.063 4.07C98.1497 4.08667 98.2264 4.10667 98.293 4.13L98.343 4.915C98.2597 4.88833 98.1664 4.86667 98.063 4.85C97.963 4.83333 97.8514 4.825 97.728 4.825C97.3614 4.825 97.0414 4.92667 96.768 5.13C96.498 5.33333 96.3014 5.62833 96.178 6.015ZM95.408 9V4.12H96.198L96.158 5.56L96.218 5.62V9H95.408ZM101.363 8.245L100.938 8.43L102.398 4.12H103.233L100.938 10.72H100.118L100.888 8.49L101.243 8.8H100.323L98.7278 4.12H99.5678L100.898 8.245H101.363ZM108.832 9.125C108.132 9.125 107.601 8.93667 107.237 8.56C106.877 8.18 106.697 7.635 106.697 6.925V6.18C106.697 5.47333 106.879 4.93167 107.242 4.555C107.606 4.17833 108.136 3.99 108.832 3.99C109.532 3.99 110.062 4.17833 110.422 4.555C110.786 4.93167 110.967 5.47333 110.967 6.18V6.925C110.967 7.635 110.786 8.18 110.422 8.56C110.062 8.93667 109.532 9.125 108.832 9.125ZM108.832 8.465C109.266 8.465 109.594 8.33667 109.817 8.08C110.044 7.82333 110.157 7.45333 110.157 6.97V6.135C110.157 5.655 110.044 5.28833 109.817 5.035C109.594 4.77833 109.266 4.65 108.832 4.65C108.402 4.65 108.074 4.77833 107.847 5.035C107.621 5.28833 107.507 5.655 107.507 6.135V6.97C107.507 7.45333 107.621 7.82333 107.847 8.08C108.074 8.33667 108.402 8.465 108.832 8.465ZM113.708 2.24C113.958 2.24 114.182 2.26333 114.378 2.31C114.578 2.35333 114.762 2.40833 114.928 2.475L115.008 3.11C114.845 3.05 114.68 3.00333 114.513 2.97C114.35 2.93333 114.165 2.915 113.958 2.915C113.708 2.915 113.507 2.94833 113.353 3.015C113.203 3.07833 113.095 3.17 113.028 3.29C112.965 3.40667 112.933 3.54833 112.933 3.715V3.74C112.933 3.85667 112.948 3.96833 112.978 4.075C113.008 4.17833 113.042 4.27333 113.078 4.36L112.533 4.38V4.28C112.43 4.2 112.338 4.08833 112.258 3.945C112.182 3.80167 112.143 3.635 112.143 3.445V3.42C112.143 3.06333 112.27 2.77833 112.523 2.565C112.777 2.34833 113.172 2.24 113.708 2.24ZM112.308 9V4.555H113.113V9H112.308ZM111.503 4.95V4.305L112.618 4.31L112.948 4.305H114.988L114.913 4.95H111.503ZM120.386 9.1C120.01 9.1 119.706 9.04333 119.476 8.93C119.246 8.81667 119.08 8.645 118.976 8.415C118.873 8.185 118.821 7.89833 118.821 7.555V4.475H119.621V7.46C119.621 7.78 119.695 8.01667 119.841 8.17C119.988 8.32 120.235 8.395 120.581 8.395C120.778 8.395 120.966 8.37333 121.146 8.33C121.33 8.28667 121.501 8.225 121.661 8.145L121.586 8.84C121.43 8.92 121.246 8.98333 121.036 9.03C120.826 9.07667 120.61 9.1 120.386 9.1ZM118.021 4.84V4.19H121.611L121.536 4.84H118.021ZM118.826 4.27L118.821 2.9L119.636 2.795L119.601 4.27H118.826ZM125.831 9V5.965C125.831 5.70167 125.795 5.475 125.721 5.285C125.651 5.095 125.535 4.94833 125.371 4.845C125.211 4.73833 124.991 4.685 124.711 4.685C124.455 4.685 124.233 4.73333 124.046 4.83C123.86 4.92667 123.708 5.05833 123.591 5.225C123.478 5.38833 123.398 5.575 123.351 5.785L123.171 5.21H123.381C123.431 4.99 123.523 4.79 123.656 4.61C123.79 4.42667 123.968 4.28167 124.191 4.175C124.418 4.065 124.693 4.01 125.016 4.01C125.403 4.01 125.715 4.08333 125.951 4.23C126.191 4.37667 126.366 4.58833 126.476 4.865C126.586 5.13833 126.641 5.475 126.641 5.875V9H125.831ZM122.566 9V2.375H123.371V3.965L123.346 5.365L123.376 5.43V9H122.566ZM129.948 9.11C129.205 9.11 128.645 8.92833 128.268 8.565C127.892 8.20167 127.703 7.68167 127.703 7.005V6.135C127.703 5.44833 127.878 4.92 128.228 4.55C128.578 4.17667 129.09 3.99 129.763 3.99C130.217 3.99 130.595 4.075 130.898 4.245C131.202 4.41167 131.43 4.65 131.583 4.96C131.737 5.27 131.813 5.64 131.813 6.07V6.25C131.813 6.35667 131.808 6.46333 131.798 6.57C131.792 6.67667 131.782 6.78167 131.768 6.885H131.023C131.03 6.725 131.033 6.57333 131.033 6.43C131.037 6.28667 131.038 6.155 131.038 6.035C131.038 5.73833 130.99 5.48833 130.893 5.285C130.8 5.07833 130.658 4.92167 130.468 4.815C130.282 4.705 130.047 4.65 129.763 4.65C129.343 4.65 129.028 4.77167 128.818 5.015C128.608 5.25833 128.503 5.60667 128.503 6.06V6.525L128.508 6.625V7.09C128.508 7.29333 128.538 7.47667 128.598 7.64C128.658 7.80333 128.752 7.945 128.878 8.065C129.008 8.18167 129.172 8.27167 129.368 8.335C129.568 8.395 129.805 8.425 130.078 8.425C130.395 8.425 130.69 8.38333 130.963 8.3C131.237 8.21667 131.493 8.10333 131.733 7.96L131.658 8.66C131.442 8.79667 131.19 8.90667 130.903 8.99C130.617 9.07 130.298 9.11 129.948 9.11ZM128.128 6.885V6.275H131.598V6.885H128.128ZM65.89 21.115C65.1 21.115 64.5067 20.8933 64.11 20.45C63.7167 20.0067 63.52 19.3767 63.52 18.56V17.045C63.52 16.2283 63.7167 15.6 64.11 15.16C64.5033 14.7167 65.0933 14.495 65.88 14.495C66.1333 14.495 66.3633 14.5183 66.57 14.565C66.78 14.6117 66.9667 14.6717 67.13 14.745C67.2933 14.8183 67.4317 14.895 67.545 14.975L67.615 15.745C67.4183 15.605 67.1867 15.4833 66.92 15.38C66.6567 15.2733 66.3467 15.22 65.99 15.22C65.4533 15.22 65.0483 15.38 64.775 15.7C64.5017 16.0167 64.365 16.4683 64.365 17.055V18.53C64.365 19.1133 64.5033 19.5667 64.78 19.89C65.0567 20.21 65.47 20.37 66.02 20.37C66.3733 20.37 66.685 20.3183 66.955 20.215C67.2283 20.1117 67.465 19.985 67.665 19.835L67.595 20.625C67.4817 20.705 67.3417 20.7833 67.175 20.86C67.0083 20.9367 66.8167 20.9983 66.6 21.045C66.3867 21.0917 66.15 21.115 65.89 21.115ZM70.5414 21.125C69.8414 21.125 69.3097 20.9367 68.9464 20.56C68.5864 20.18 68.4064 19.635 68.4064 18.925V18.18C68.4064 17.4733 68.5881 16.9317 68.9514 16.555C69.3147 16.1783 69.8447 15.99 70.5414 15.99C71.2414 15.99 71.7714 16.1783 72.1314 16.555C72.4947 16.9317 72.6764 17.4733 72.6764 18.18V18.925C72.6764 19.635 72.4947 20.18 72.1314 20.56C71.7714 20.9367 71.2414 21.125 70.5414 21.125ZM70.5414 20.465C70.9747 20.465 71.3031 20.3367 71.5264 20.08C71.7531 19.8233 71.8664 19.4533 71.8664 18.97V18.135C71.8664 17.655 71.7531 17.2883 71.5264 17.035C71.3031 16.7783 70.9747 16.65 70.5414 16.65C70.1114 16.65 69.7831 16.7783 69.5564 17.035C69.3297 17.2883 69.2164 17.655 69.2164 18.135V18.97C69.2164 19.4533 69.3297 19.8233 69.5564 20.08C69.7831 20.3367 70.1114 20.465 70.5414 20.465ZM75.4067 21.105C74.8201 21.105 74.3734 20.9233 74.0667 20.56C73.7601 20.1967 73.6067 19.6667 73.6067 18.97V18.165C73.6067 17.465 73.7617 16.9317 74.0717 16.565C74.3817 16.195 74.8384 16.01 75.4417 16.01C75.7417 16.01 76.0017 16.0617 76.2217 16.165C76.4417 16.265 76.6201 16.4067 76.7567 16.59C76.8934 16.7733 76.9851 16.99 77.0317 17.24H77.2967L77.0567 17.985C77.0467 17.6983 76.9817 17.4583 76.8617 17.265C76.7451 17.0683 76.5851 16.92 76.3817 16.82C76.1817 16.72 75.9517 16.67 75.6917 16.67C75.2784 16.67 74.9617 16.79 74.7417 17.03C74.5251 17.27 74.4167 17.6233 74.4167 18.09V19.02C74.4167 19.48 74.5251 19.83 74.7417 20.07C74.9617 20.31 75.2784 20.43 75.6917 20.43C75.9384 20.43 76.1567 20.3833 76.3467 20.29C76.5367 20.1933 76.6934 20.0617 76.8167 19.895C76.9434 19.725 77.0301 19.5333 77.0767 19.32L77.2767 19.9H77.0367C76.9901 20.12 76.9001 20.3217 76.7667 20.505C76.6367 20.6883 76.4601 20.835 76.2367 20.945C76.0167 21.0517 75.7401 21.105 75.4067 21.105ZM77.0367 21L77.0717 19.82L77.0567 19.56V17.52L77.0617 17.35L77.0417 15.965V14.375H77.8467V21H77.0367ZM81.2178 21.11C80.4745 21.11 79.9145 20.9283 79.5378 20.565C79.1611 20.2017 78.9728 19.6817 78.9728 19.005V18.135C78.9728 17.4483 79.1478 16.92 79.4978 16.55C79.8478 16.1767 80.3595 15.99 81.0328 15.99C81.4861 15.99 81.8645 16.075 82.1678 16.245C82.4711 16.4117 82.6995 16.65 82.8528 16.96C83.0061 17.27 83.0828 17.64 83.0828 18.07V18.25C83.0828 18.3567 83.0778 18.4633 83.0678 18.57C83.0611 18.6767 83.0511 18.7817 83.0378 18.885H82.2928C82.2995 18.725 82.3028 18.5733 82.3028 18.43C82.3061 18.2867 82.3078 18.155 82.3078 18.035C82.3078 17.7383 82.2595 17.4883 82.1628 17.285C82.0695 17.0783 81.9278 16.9217 81.7378 16.815C81.5511 16.705 81.3161 16.65 81.0328 16.65C80.6128 16.65 80.2978 16.7717 80.0878 17.015C79.8778 17.2583 79.7728 17.6067 79.7728 18.06V18.525L79.7778 18.625V19.09C79.7778 19.2933 79.8078 19.4767 79.8678 19.64C79.9278 19.8033 80.0211 19.945 80.1478 20.065C80.2778 20.1817 80.4411 20.2717 80.6378 20.335C80.8378 20.395 81.0745 20.425 81.3478 20.425C81.6645 20.425 81.9595 20.3833 82.2328 20.3C82.5061 20.2167 82.7628 20.1033 83.0028 19.96L82.9278 20.66C82.7111 20.7967 82.4595 20.9067 82.1728 20.99C81.8861 21.07 81.5678 21.11 81.2178 21.11ZM79.3978 18.885V18.275H82.8678V18.885H79.3978ZM88.8813 21.125C88.1813 21.125 87.6496 20.9367 87.2863 20.56C86.9263 20.18 86.7463 19.635 86.7463 18.925V18.18C86.7463 17.4733 86.9279 16.9317 87.2913 16.555C87.6546 16.1783 88.1846 15.99 88.8813 15.99C89.5813 15.99 90.1113 16.1783 90.4713 16.555C90.8346 16.9317 91.0163 17.4733 91.0163 18.18V18.925C91.0163 19.635 90.8346 20.18 90.4713 20.56C90.1113 20.9367 89.5813 21.125 88.8813 21.125ZM88.8813 20.465C89.3146 20.465 89.6429 20.3367 89.8663 20.08C90.0929 19.8233 90.2063 19.4533 90.2063 18.97V18.135C90.2063 17.655 90.0929 17.2883 89.8663 17.035C89.6429 16.7783 89.3146 16.65 88.8813 16.65C88.4513 16.65 88.1229 16.7783 87.8963 17.035C87.6696 17.2883 87.5563 17.655 87.5563 18.135V18.97C87.5563 19.4533 87.6696 19.8233 87.8963 20.08C88.1229 20.3367 88.4513 20.465 88.8813 20.465ZM93.757 14.24C94.007 14.24 94.2304 14.2633 94.427 14.31C94.627 14.3533 94.8104 14.4083 94.977 14.475L95.057 15.11C94.8937 15.05 94.7287 15.0033 94.562 14.97C94.3987 14.9333 94.2137 14.915 94.007 14.915C93.757 14.915 93.5554 14.9483 93.402 15.015C93.252 15.0783 93.1437 15.17 93.077 15.29C93.0137 15.4067 92.982 15.5483 92.982 15.715V15.74C92.982 15.8567 92.997 15.9683 93.027 16.075C93.057 16.1783 93.0904 16.2733 93.127 16.36L92.582 16.38V16.28C92.4787 16.2 92.387 16.0883 92.307 15.945C92.2304 15.8017 92.192 15.635 92.192 15.445V15.42C92.192 15.0633 92.3187 14.7783 92.572 14.565C92.8254 14.3483 93.2204 14.24 93.757 14.24ZM92.357 21V16.555H93.162V21H92.357ZM91.552 16.95V16.305L92.667 16.31L92.997 16.305H95.037L94.962 16.95H91.552ZM99.295 18.875V18.185H101.11C101.547 18.185 101.863 18.0767 102.06 17.86C102.257 17.64 102.355 17.3383 102.355 16.955V16.52C102.355 16.13 102.257 15.8283 102.06 15.615C101.867 15.4017 101.553 15.295 101.12 15.295H99.29V14.61H101.135C101.848 14.61 102.367 14.7783 102.69 15.115C103.017 15.4483 103.18 15.9083 103.18 16.495V16.975C103.18 17.5683 103.015 18.0333 102.685 18.37C102.358 18.7067 101.84 18.875 101.13 18.875H99.295ZM98.755 21V14.61H99.57V18.39L99.575 18.76V21H98.755ZM105.035 18.015L104.85 17.39L105.05 17.38C105.157 16.9667 105.34 16.6417 105.6 16.405C105.86 16.165 106.205 16.045 106.635 16.045C106.742 16.045 106.837 16.0533 106.92 16.07C107.007 16.0867 107.084 16.1067 107.15 16.13L107.2 16.915C107.117 16.8883 107.024 16.8667 106.92 16.85C106.82 16.8333 106.709 16.825 106.585 16.825C106.219 16.825 105.899 16.9267 105.625 17.13C105.355 17.3333 105.159 17.6283 105.035 18.015ZM104.265 21V16.12H105.055L105.015 17.56L105.075 17.62V21H104.265ZM110.774 21L110.809 19.815L110.779 19.69V18.135L110.784 17.85C110.784 17.4533 110.682 17.16 110.479 16.97C110.279 16.78 109.96 16.685 109.524 16.685C109.174 16.685 108.852 16.735 108.559 16.835C108.269 16.935 108.01 17.0517 107.784 17.185L107.859 16.495C107.985 16.4183 108.135 16.3433 108.309 16.27C108.485 16.1933 108.685 16.13 108.909 16.08C109.135 16.03 109.384 16.005 109.654 16.005C110.004 16.005 110.3 16.0483 110.544 16.135C110.79 16.2183 110.989 16.34 111.139 16.5C111.292 16.66 111.404 16.8533 111.474 17.08C111.544 17.3067 111.579 17.56 111.579 17.84V21H110.774ZM109.094 21.105C108.61 21.105 108.239 20.9883 107.979 20.755C107.722 20.5183 107.594 20.1817 107.594 19.745V19.6C107.594 19.15 107.732 18.815 108.009 18.595C108.289 18.3717 108.732 18.2167 109.339 18.13L110.884 17.91L110.929 18.5L109.439 18.715C109.065 18.7683 108.799 18.86 108.639 18.99C108.479 19.1167 108.399 19.305 108.399 19.555V19.635C108.399 19.8917 108.477 20.0883 108.634 20.225C108.794 20.3617 109.032 20.43 109.349 20.43C109.629 20.43 109.869 20.3817 110.069 20.285C110.269 20.1883 110.43 20.0583 110.554 19.895C110.677 19.7317 110.76 19.55 110.804 19.35L110.929 19.9H110.774C110.727 20.1133 110.639 20.3117 110.509 20.495C110.382 20.6783 110.204 20.8267 109.974 20.94C109.744 21.05 109.45 21.105 109.094 21.105ZM114.69 21.11C113.99 21.11 113.469 20.9217 113.125 20.545C112.785 20.165 112.615 19.6283 112.615 18.935V18.175C112.615 17.4783 112.787 16.9433 113.13 16.57C113.474 16.1933 113.994 16.005 114.69 16.005C114.897 16.005 115.085 16.025 115.255 16.065C115.425 16.1017 115.577 16.1517 115.71 16.215C115.847 16.275 115.962 16.3383 116.055 16.405L116.125 17.11C115.969 16.99 115.782 16.8883 115.565 16.805C115.352 16.7217 115.1 16.68 114.81 16.68C114.344 16.68 113.995 16.81 113.765 17.07C113.539 17.3267 113.425 17.7017 113.425 18.195V18.915C113.425 19.3983 113.539 19.77 113.765 20.03C113.995 20.29 114.344 20.42 114.81 20.42C115.11 20.42 115.369 20.3783 115.585 20.295C115.805 20.2117 116 20.11 116.17 19.99L116.095 20.705C115.949 20.805 115.757 20.8983 115.52 20.985C115.284 21.0683 115.007 21.11 114.69 21.11ZM118.96 21.1C118.584 21.1 118.28 21.0433 118.05 20.93C117.82 20.8167 117.654 20.645 117.55 20.415C117.447 20.185 117.395 19.8983 117.395 19.555V16.475H118.195V19.46C118.195 19.78 118.269 20.0167 118.415 20.17C118.562 20.32 118.809 20.395 119.155 20.395C119.352 20.395 119.54 20.3733 119.72 20.33C119.904 20.2867 120.075 20.225 120.235 20.145L120.16 20.84C120.004 20.92 119.82 20.9833 119.61 21.03C119.4 21.0767 119.184 21.1 118.96 21.1ZM116.595 16.84V16.19H120.185L120.11 16.84H116.595ZM117.4 16.27L117.395 14.9L118.21 14.795L118.175 16.27H117.4ZM121.155 21V16.12H121.965V21H121.155ZM121.56 15.32C121.394 15.32 121.269 15.2767 121.185 15.19C121.105 15.1 121.065 14.9783 121.065 14.825V14.8C121.065 14.6433 121.105 14.5217 121.185 14.435C121.269 14.3483 121.394 14.305 121.56 14.305C121.727 14.305 121.852 14.3483 121.935 14.435C122.019 14.5217 122.06 14.6433 122.06 14.8V14.825C122.06 14.9817 122.019 15.1033 121.935 15.19C121.852 15.2767 121.727 15.32 121.56 15.32ZM125.188 21.11C124.488 21.11 123.967 20.9217 123.623 20.545C123.283 20.165 123.113 19.6283 123.113 18.935V18.175C123.113 17.4783 123.285 16.9433 123.628 16.57C123.972 16.1933 124.492 16.005 125.188 16.005C125.395 16.005 125.583 16.025 125.753 16.065C125.923 16.1017 126.075 16.1517 126.208 16.215C126.345 16.275 126.46 16.3383 126.553 16.405L126.623 17.11C126.467 16.99 126.28 16.8883 126.063 16.805C125.85 16.7217 125.598 16.68 125.308 16.68C124.842 16.68 124.493 16.81 124.263 17.07C124.037 17.3267 123.923 17.7017 123.923 18.195V18.915C123.923 19.3983 124.037 19.77 124.263 20.03C124.493 20.29 124.842 20.42 125.308 20.42C125.608 20.42 125.867 20.3783 126.083 20.295C126.303 20.2117 126.498 20.11 126.668 19.99L126.593 20.705C126.447 20.805 126.255 20.8983 126.018 20.985C125.782 21.0683 125.505 21.11 125.188 21.11ZM129.597 21.11C128.853 21.11 128.293 20.9283 127.917 20.565C127.54 20.2017 127.352 19.6817 127.352 19.005V18.135C127.352 17.4483 127.527 16.92 127.877 16.55C128.227 16.1767 128.738 15.99 129.412 15.99C129.865 15.99 130.243 16.075 130.547 16.245C130.85 16.4117 131.078 16.65 131.232 16.96C131.385 17.27 131.462 17.64 131.462 18.07V18.25C131.462 18.3567 131.457 18.4633 131.447 18.57C131.44 18.6767 131.43 18.7817 131.417 18.885H130.672C130.678 18.725 130.682 18.5733 130.682 18.43C130.685 18.2867 130.687 18.155 130.687 18.035C130.687 17.7383 130.638 17.4883 130.542 17.285C130.448 17.0783 130.307 16.9217 130.117 16.815C129.93 16.705 129.695 16.65 129.412 16.65C128.992 16.65 128.677 16.7717 128.467 17.015C128.257 17.2583 128.152 17.6067 128.152 18.06V18.525L128.157 18.625V19.09C128.157 19.2933 128.187 19.4767 128.247 19.64C128.307 19.8033 128.4 19.945 128.527 20.065C128.657 20.1817 128.82 20.2717 129.017 20.335C129.217 20.395 129.453 20.425 129.727 20.425C130.043 20.425 130.338 20.3833 130.612 20.3C130.885 20.2167 131.142 20.1033 131.382 19.96L131.307 20.66C131.09 20.7967 130.838 20.9067 130.552 20.99C130.265 21.07 129.947 21.11 129.597 21.11ZM127.777 18.885V18.275H131.247V18.885H127.777ZM65.6 33.125C64.9 33.125 64.3683 32.9367 64.005 32.56C63.645 32.18 63.465 31.635 63.465 30.925V30.18C63.465 29.4733 63.6467 28.9317 64.01 28.555C64.3733 28.1783 64.9033 27.99 65.6 27.99C66.3 27.99 66.83 28.1783 67.19 28.555C67.5533 28.9317 67.735 29.4733 67.735 30.18V30.925C67.735 31.635 67.5533 32.18 67.19 32.56C66.83 32.9367 66.3 33.125 65.6 33.125ZM65.6 32.465C66.0333 32.465 66.3617 32.3367 66.585 32.08C66.8117 31.8233 66.925 31.4533 66.925 30.97V30.135C66.925 29.655 66.8117 29.2883 66.585 29.035C66.3617 28.7783 66.0333 28.65 65.6 28.65C65.17 28.65 64.8417 28.7783 64.615 29.035C64.3883 29.2883 64.275 29.655 64.275 30.135V30.97C64.275 31.4533 64.3883 31.8233 64.615 32.08C64.8417 32.3367 65.17 32.465 65.6 32.465ZM72.1203 33V29.965C72.1203 29.7017 72.0836 29.475 72.0103 29.285C71.9403 29.095 71.8236 28.9483 71.6603 28.845C71.5003 28.7383 71.2803 28.685 71.0003 28.685C70.7436 28.685 70.5203 28.7333 70.3303 28.83C70.1436 28.9267 69.992 29.0583 69.8753 29.225C69.7586 29.3883 69.677 29.575 69.6303 29.785L69.4853 29.21H69.6603C69.7136 28.99 69.807 28.79 69.9403 28.61C70.0736 28.4267 70.252 28.2817 70.4753 28.175C70.702 28.065 70.9786 28.01 71.3053 28.01C71.692 28.01 72.0036 28.0833 72.2403 28.23C72.4803 28.3767 72.6553 28.5883 72.7653 28.865C72.8753 29.1383 72.9303 29.475 72.9303 29.875V33H72.1203ZM68.8553 33V28.12H69.6653L69.6303 29.29L69.6653 29.335V33H68.8553ZM77.6255 33V32.3H79.1755C79.7422 32.3 80.1672 32.1467 80.4505 31.84C80.7372 31.53 80.8805 31.0883 80.8805 30.515V29.09C80.8805 28.5133 80.7372 28.0717 80.4505 27.765C80.1672 27.4583 79.7422 27.305 79.1755 27.305H77.6205V26.61H79.2055C80.0322 26.61 80.6572 26.8233 81.0805 27.25C81.5039 27.6733 81.7155 28.285 81.7155 29.085V30.52C81.7155 31.3167 81.5039 31.93 81.0805 32.36C80.6572 32.7867 80.0322 33 79.2055 33H77.6255ZM77.0655 33V26.61H77.8855V33H77.0655ZM82.9035 33V28.12H83.7135V33H82.9035ZM83.3085 27.32C83.1418 27.32 83.0168 27.2767 82.9335 27.19C82.8535 27.1 82.8135 26.9783 82.8135 26.825V26.8C82.8135 26.6433 82.8535 26.5217 82.9335 26.435C83.0168 26.3483 83.1418 26.305 83.3085 26.305C83.4752 26.305 83.6002 26.3483 83.6835 26.435C83.7668 26.5217 83.8085 26.6433 83.8085 26.8V26.825C83.8085 26.9817 83.7668 27.1033 83.6835 27.19C83.6002 27.2767 83.4752 27.32 83.3085 27.32ZM86.562 33.11C86.1686 33.11 85.8253 33.0683 85.532 32.985C85.2386 32.8983 84.9953 32.805 84.802 32.705L84.727 31.955C84.9703 32.0817 85.237 32.1917 85.527 32.285C85.8203 32.3783 86.152 32.425 86.522 32.425C86.8986 32.425 87.182 32.365 87.372 32.245C87.562 32.125 87.657 31.9467 87.657 31.71V31.655C87.657 31.5017 87.6203 31.375 87.547 31.275C87.477 31.175 87.3486 31.0867 87.162 31.01C86.9753 30.9333 86.7103 30.8567 86.367 30.78C85.957 30.69 85.6336 30.585 85.397 30.465C85.1603 30.3417 84.9903 30.19 84.887 30.01C84.787 29.83 84.737 29.61 84.737 29.35V29.305C84.737 28.8783 84.8853 28.555 85.182 28.335C85.4786 28.115 85.9253 28.005 86.522 28.005C86.9053 28.005 87.237 28.0483 87.517 28.135C87.8003 28.2217 88.032 28.3183 88.212 28.425L88.287 29.11C88.0703 28.9833 87.822 28.8783 87.542 28.795C87.262 28.7117 86.947 28.67 86.597 28.67C86.3436 28.67 86.1386 28.6967 85.982 28.75C85.8253 28.8 85.712 28.8733 85.642 28.97C85.572 29.0633 85.537 29.1767 85.537 29.31V29.35C85.537 29.4967 85.572 29.6217 85.642 29.725C85.712 29.825 85.837 29.9133 86.017 29.99C86.2003 30.0633 86.4536 30.135 86.777 30.205C87.1936 30.2883 87.5236 30.3883 87.767 30.505C88.0136 30.6217 88.1903 30.77 88.297 30.95C88.4036 31.1267 88.457 31.355 88.457 31.635V31.72C88.457 32.18 88.297 32.5267 87.977 32.76C87.657 32.9933 87.1853 33.11 86.562 33.11ZM89.4563 33V28.12H90.2663V33H89.4563ZM89.8613 27.32C89.6946 27.32 89.5696 27.2767 89.4863 27.19C89.4063 27.1 89.3663 26.9783 89.3663 26.825V26.8C89.3663 26.6433 89.4063 26.5217 89.4863 26.435C89.5696 26.3483 89.6946 26.305 89.8613 26.305C90.0279 26.305 90.1529 26.3483 90.2363 26.435C90.3196 26.5217 90.3613 26.6433 90.3613 26.8V26.825C90.3613 26.9817 90.3196 27.1033 90.2363 27.19C90.1529 27.2767 90.0279 27.32 89.8613 27.32ZM94.8742 33V29.965C94.8742 29.7017 94.8376 29.475 94.7642 29.285C94.6942 29.095 94.5776 28.9483 94.4142 28.845C94.2542 28.7383 94.0342 28.685 93.7542 28.685C93.4976 28.685 93.2742 28.7333 93.0842 28.83C92.8976 28.9267 92.7459 29.0583 92.6292 29.225C92.5126 29.3883 92.4309 29.575 92.3842 29.785L92.2392 29.21H92.4142C92.4676 28.99 92.5609 28.79 92.6942 28.61C92.8276 28.4267 93.0059 28.2817 93.2292 28.175C93.4559 28.065 93.7326 28.01 94.0592 28.01C94.4459 28.01 94.7576 28.0833 94.9942 28.23C95.2342 28.3767 95.4092 28.5883 95.5192 28.865C95.6292 29.1383 95.6842 29.475 95.6842 29.875V33H94.8742ZM91.6092 33V28.12H92.4192L92.3842 29.29L92.4192 29.335V33H91.6092ZM98.5715 26.24C98.8215 26.24 99.0448 26.2633 99.2415 26.31C99.4415 26.3533 99.6248 26.4083 99.7915 26.475L99.8715 27.11C99.7082 27.05 99.5432 27.0033 99.3765 26.97C99.2132 26.9333 99.0282 26.915 98.8215 26.915C98.5715 26.915 98.3698 26.9483 98.2165 27.015C98.0665 27.0783 97.9582 27.17 97.8915 27.29C97.8282 27.4067 97.7965 27.5483 97.7965 27.715V27.74C97.7965 27.8567 97.8115 27.9683 97.8415 28.075C97.8715 28.1783 97.9048 28.2733 97.9415 28.36L97.3965 28.38V28.28C97.2932 28.2 97.2015 28.0883 97.1215 27.945C97.0448 27.8017 97.0065 27.635 97.0065 27.445V27.42C97.0065 27.0633 97.1332 26.7783 97.3865 26.565C97.6398 26.3483 98.0348 26.24 98.5715 26.24ZM97.1715 33V28.555H97.9765V33H97.1715ZM96.3665 28.95V28.305L97.4815 28.31L97.8115 28.305H99.8515L99.7765 28.95H96.3665ZM102.426 33.125C101.726 33.125 101.195 32.9367 100.831 32.56C100.471 32.18 100.291 31.635 100.291 30.925V30.18C100.291 29.4733 100.473 28.9317 100.836 28.555C101.2 28.1783 101.73 27.99 102.426 27.99C103.126 27.99 103.656 28.1783 104.016 28.555C104.38 28.9317 104.561 29.4733 104.561 30.18V30.925C104.561 31.635 104.38 32.18 104.016 32.56C103.656 32.9367 103.126 33.125 102.426 33.125ZM102.426 32.465C102.86 32.465 103.188 32.3367 103.411 32.08C103.638 31.8233 103.751 31.4533 103.751 30.97V30.135C103.751 29.655 103.638 29.2883 103.411 29.035C103.188 28.7783 102.86 28.65 102.426 28.65C101.996 28.65 101.668 28.7783 101.441 29.035C101.215 29.2883 101.101 29.655 101.101 30.135V30.97C101.101 31.4533 101.215 31.8233 101.441 32.08C101.668 32.3367 101.996 32.465 102.426 32.465ZM106.451 30.015L106.266 29.39L106.466 29.38C106.573 28.9667 106.756 28.6417 107.016 28.405C107.276 28.165 107.621 28.045 108.051 28.045C108.158 28.045 108.253 28.0533 108.336 28.07C108.423 28.0867 108.5 28.1067 108.566 28.13L108.616 28.915C108.533 28.8883 108.44 28.8667 108.336 28.85C108.236 28.8333 108.125 28.825 108.001 28.825C107.635 28.825 107.315 28.9267 107.041 29.13C106.771 29.3333 106.575 29.6283 106.451 30.015ZM105.681 33V28.12H106.471L106.431 29.56L106.491 29.62V33H105.681ZM115.507 33V29.945C115.507 29.6883 115.474 29.4667 115.407 29.28C115.344 29.09 115.237 28.9433 115.087 28.84C114.94 28.7367 114.742 28.685 114.492 28.685C114.255 28.685 114.05 28.7333 113.877 28.83C113.704 28.9267 113.564 29.0567 113.457 29.22C113.35 29.38 113.275 29.5633 113.232 29.77L113.107 29.195H113.207C113.26 28.985 113.35 28.79 113.477 28.61C113.604 28.43 113.775 28.285 113.992 28.175C114.209 28.065 114.477 28.01 114.797 28.01C115.16 28.01 115.452 28.0817 115.672 28.225C115.895 28.3683 116.059 28.5783 116.162 28.855C116.265 29.1283 116.317 29.4617 116.317 29.855V33H115.507ZM109.412 33V28.12H110.222L110.187 29.29L110.222 29.34V33H109.412ZM112.462 33V29.945C112.462 29.6883 112.429 29.4667 112.362 29.28C112.299 29.09 112.194 28.9433 112.047 28.84C111.9 28.7367 111.702 28.685 111.452 28.685C111.212 28.685 111.005 28.7333 110.832 28.83C110.659 28.9267 110.519 29.0583 110.412 29.225C110.305 29.3883 110.23 29.575 110.187 29.785L110.037 29.21H110.217C110.267 28.99 110.354 28.79 110.477 28.61C110.6 28.4267 110.767 28.2817 110.977 28.175C111.19 28.065 111.449 28.01 111.752 28.01C112.202 28.01 112.544 28.1267 112.777 28.36C113.014 28.5933 113.162 28.9333 113.222 29.38C113.239 29.4467 113.25 29.52 113.257 29.6C113.264 29.6767 113.267 29.7533 113.267 29.83V33H112.462ZM120.471 33L120.506 31.815L120.476 31.69V30.135L120.481 29.85C120.481 29.4533 120.379 29.16 120.176 28.97C119.976 28.78 119.658 28.685 119.221 28.685C118.871 28.685 118.549 28.735 118.256 28.835C117.966 28.935 117.708 29.0517 117.481 29.185L117.556 28.495C117.683 28.4183 117.833 28.3433 118.006 28.27C118.183 28.1933 118.383 28.13 118.606 28.08C118.833 28.03 119.081 28.005 119.351 28.005C119.701 28.005 119.998 28.0483 120.241 28.135C120.488 28.2183 120.686 28.34 120.836 28.5C120.989 28.66 121.101 28.8533 121.171 29.08C121.241 29.3067 121.276 29.56 121.276 29.84V33H120.471ZM118.791 33.105C118.308 33.105 117.936 32.9883 117.676 32.755C117.419 32.5183 117.291 32.1817 117.291 31.745V31.6C117.291 31.15 117.429 30.815 117.706 30.595C117.986 30.3717 118.429 30.2167 119.036 30.13L120.581 29.91L120.626 30.5L119.136 30.715C118.763 30.7683 118.496 30.86 118.336 30.99C118.176 31.1167 118.096 31.305 118.096 31.555V31.635C118.096 31.8917 118.174 32.0883 118.331 32.225C118.491 32.3617 118.729 32.43 119.046 32.43C119.326 32.43 119.566 32.3817 119.766 32.285C119.966 32.1883 120.128 32.0583 120.251 31.895C120.374 31.7317 120.458 31.55 120.501 31.35L120.626 31.9H120.471C120.424 32.1133 120.336 32.3117 120.206 32.495C120.079 32.6783 119.901 32.8267 119.671 32.94C119.441 33.05 119.148 33.105 118.791 33.105ZM124.244 33.1C123.867 33.1 123.564 33.0433 123.334 32.93C123.104 32.8167 122.937 32.645 122.834 32.415C122.73 32.185 122.679 31.8983 122.679 31.555V28.475H123.479V31.46C123.479 31.78 123.552 32.0167 123.699 32.17C123.845 32.32 124.092 32.395 124.439 32.395C124.635 32.395 124.824 32.3733 125.004 32.33C125.187 32.2867 125.359 32.225 125.519 32.145L125.444 32.84C125.287 32.92 125.104 32.9833 124.894 33.03C124.684 33.0767 124.467 33.1 124.244 33.1ZM121.879 28.84V28.19H125.469L125.394 28.84H121.879ZM122.684 28.27L122.679 26.9L123.494 26.795L123.459 28.27H122.684ZM126.439 33V28.12H127.249V33H126.439ZM126.844 27.32C126.677 27.32 126.552 27.2767 126.469 27.19C126.389 27.1 126.349 26.9783 126.349 26.825V26.8C126.349 26.6433 126.389 26.5217 126.469 26.435C126.552 26.3483 126.677 26.305 126.844 26.305C127.01 26.305 127.135 26.3483 127.219 26.435C127.302 26.5217 127.344 26.6433 127.344 26.8V26.825C127.344 26.9817 127.302 27.1033 127.219 27.19C127.135 27.2767 127.01 27.32 126.844 27.32ZM130.532 33.125C129.832 33.125 129.3 32.9367 128.937 32.56C128.577 32.18 128.397 31.635 128.397 30.925V30.18C128.397 29.4733 128.578 28.9317 128.942 28.555C129.305 28.1783 129.835 27.99 130.532 27.99C131.232 27.99 131.762 28.1783 132.122 28.555C132.485 28.9317 132.667 29.4733 132.667 30.18V30.925C132.667 31.635 132.485 32.18 132.122 32.56C131.762 32.9367 131.232 33.125 130.532 33.125ZM130.532 32.465C130.965 32.465 131.293 32.3367 131.517 32.08C131.743 31.8233 131.857 31.4533 131.857 30.97V30.135C131.857 29.655 131.743 29.2883 131.517 29.035C131.293 28.7783 130.965 28.65 130.532 28.65C130.102 28.65 129.773 28.7783 129.547 29.035C129.32 29.2883 129.207 29.655 129.207 30.135V30.97C129.207 31.4533 129.32 31.8233 129.547 32.08C129.773 32.3367 130.102 32.465 130.532 32.465ZM137.052 33V29.965C137.052 29.7017 137.015 29.475 136.942 29.285C136.872 29.095 136.755 28.9483 136.592 28.845C136.432 28.7383 136.212 28.685 135.932 28.685C135.675 28.685 135.452 28.7333 135.262 28.83C135.075 28.9267 134.924 29.0583 134.807 29.225C134.69 29.3883 134.609 29.575 134.562 29.785L134.417 29.21H134.592C134.645 28.99 134.739 28.79 134.872 28.61C135.005 28.4267 135.184 28.2817 135.407 28.175C135.634 28.065 135.91 28.01 136.237 28.01C136.624 28.01 136.935 28.0833 137.172 28.23C137.412 28.3767 137.587 28.5883 137.697 28.865C137.807 29.1383 137.862 29.475 137.862 29.875V33H137.052ZM133.787 33V28.12H134.597L134.562 29.29L134.597 29.335V33H133.787Z" fill="white"/>
<g clip-path="url(#clip0_5_3408)">
<path d="M20.9116 27.5461L21.3051 28.6704L20.3494 27.9396L19.3376 28.6704L19.7311 27.4899L18.7754 26.8153H19.9559L20.3494 25.691L20.6867 26.8153H21.8673L20.9116 27.5461Z" fill="white" stroke="white" stroke-width="0.5" stroke-miterlimit="10"/>
<path d="M26.5909 29.0075L26.9844 30.188L25.9725 29.4572L25.0168 30.188L25.3541 29.0075L24.3984 28.3329H25.579L25.9725 27.2086L26.366 28.3329L27.5465 28.2767L26.5909 29.0075Z" fill="white" stroke="white" stroke-width="0.5" stroke-miterlimit="10"/>
<path d="M36.3731 23.386L36.7666 24.5665L35.7547 23.7795L34.799 24.5103L35.1363 23.386L34.1807 22.7114L35.3612 22.6551L35.7547 21.5308L36.1482 22.6551H37.3288L36.3731 23.386Z" fill="white" stroke="white" stroke-width="0.5" stroke-miterlimit="10"/>
<path d="M32.2124 27.5461L32.6059 28.6704L31.6502 27.9396L30.6383 28.6704L31.0318 27.4899L30.0762 26.8153H31.2567L31.6502 25.691L31.9875 26.8153H33.1681L32.2124 27.5461Z" fill="white" stroke="white" stroke-width="0.5" stroke-miterlimit="10"/>
<path d="M16.8096 23.386L17.2031 24.5665L16.1912 23.7795L15.2356 24.5103L15.5729 23.386L14.6172 22.7114L15.7977 22.6551L16.1912 21.5308L16.5285 22.6551H17.7653L16.8096 23.386Z" fill="white" stroke="white" stroke-width="0.5" stroke-miterlimit="10"/>
<path d="M15.2911 17.7643L15.6846 18.8886L14.6727 18.1578L13.6608 18.8886L14.0543 17.7081L13.0986 17.0335H14.2792L14.6727 15.9092L15.01 17.0335H16.2467L15.2911 17.7643Z" fill="white" stroke="white" stroke-width="0.5" stroke-miterlimit="10"/>
<path d="M20.9116 7.98264L21.3051 9.16318L20.3494 8.37615L19.3376 9.10696L19.7311 7.98264L18.7754 7.25183H19.9559L20.3494 6.1275L20.6867 7.25183H21.8673L20.9116 7.98264Z" fill="white" stroke="white" stroke-width="0.5" stroke-miterlimit="10"/>
<path d="M16.8096 12.0864L17.2031 13.2669L16.1912 12.4799L15.2356 13.2107L15.5729 12.0864L14.6172 11.3556H15.7977L16.1912 10.2313L16.5285 11.3556H17.7653L16.8096 12.0864Z" fill="white" stroke="white" stroke-width="0.5" stroke-miterlimit="10"/>
<path d="M26.5909 6.4086L26.9844 7.58914L25.9725 6.80212L25.0168 7.53293L25.3541 6.4086L24.3984 5.67779H25.579L25.9725 4.55347L26.366 5.67779H27.5465L26.5909 6.4086Z" fill="white" stroke="white" stroke-width="0.5" stroke-miterlimit="10"/>
<path d="M32.2124 7.98264L32.6059 9.16318L31.6502 8.37615L30.6383 9.10696L31.0318 7.98264L30.0762 7.25183H31.2567L31.6502 6.1275L31.9875 7.25183H33.1681L32.2124 7.98264Z" fill="white" stroke="white" stroke-width="0.5" stroke-miterlimit="10"/>
<path d="M37.9463 17.7644L38.2836 18.8887L37.328 18.1579L36.3161 18.8887L36.7096 17.7082L35.7539 17.0336H36.9344L37.328 15.9092L37.6653 17.0336H38.8458L37.9463 17.7644Z" fill="white" stroke="white" stroke-width="0.5" stroke-miterlimit="10"/>
<path d="M36.3731 12.0864L36.7666 13.2669L35.7547 12.4799L34.799 13.2107L35.1363 12.0864L34.1807 11.3556H35.3612L35.7547 10.2313L36.1482 11.3556H37.3288L36.3731 12.0864Z" fill="white" stroke="white" stroke-width="0.5" stroke-miterlimit="10"/>
<path d="M51.4382 0.562134H0.5625V34.4605H51.4382V0.562134Z" stroke="white" stroke-width="2" stroke-miterlimit="10"/>
</g>
<defs>
<clipPath id="clip0_5_3408">
<rect width="52" height="35.0227" fill="white"/>
</clipPath>
</defs>
</svg>
