<svg width="342" height="70" viewBox="0 0 342 70" fill="none" xmlns="http://www.w3.org/2000/svg">
<path d="M104.443 28.2099C105.211 25.6948 105.98 23.2497 106.748 20.7346C107.516 18.2196 108.285 15.7745 109.053 13.2595C110.101 13.2595 111.149 13.2595 112.267 13.2595C110.311 19.547 108.425 25.7647 106.469 32.0522C105.281 32.0522 104.023 32.0522 102.836 32.0522C101.299 28.14 99.7618 24.2277 98.2249 20.3155H98.155C96.6181 24.2277 95.0811 28.14 93.614 32.0522C92.4264 32.0522 91.1689 32.0522 89.9113 32.0522C87.9552 25.7647 85.9991 19.547 84.043 13.2595C85.1608 13.2595 86.1388 13.2595 87.2566 13.2595C88.7936 18.2196 90.4004 23.2497 91.9373 28.3496C92.0072 28.14 92.0771 28.0003 92.1469 27.8605C93.9633 23.1798 95.7797 18.4991 97.5961 13.8183C97.666 13.5389 97.8057 13.3293 97.8756 13.0499C97.9454 12.98 98.0153 12.9102 98.155 12.9102C98.2249 12.9102 98.3646 12.98 98.4345 13.0499C98.5043 13.1896 98.5742 13.3293 98.5742 13.469C100.46 18.2196 102.347 22.9702 104.233 27.7208C104.303 27.9304 104.373 28.14 104.443 28.2797C104.373 28.2797 104.443 28.2099 104.443 28.2099Z" fill="white"/>
<path d="M123.516 43.7188C123.516 48.4694 123.516 53.1501 123.516 57.9007C122.538 57.9007 121.56 57.9007 120.582 57.9007C120.582 51.6132 120.582 45.3955 120.582 39.108C120.722 39.108 120.792 39.0381 120.931 39.0381C121.63 39.0381 122.398 39.0381 123.097 39.0381C123.377 39.0381 123.586 39.1079 123.796 39.3175C126.52 42.2517 129.245 45.2558 131.969 48.19C133.437 49.7968 134.904 51.4036 136.371 52.9405C136.441 53.0104 136.51 53.1501 136.58 53.22C136.65 53.1501 136.72 53.1501 136.72 53.1501V53.0803C136.72 48.3995 136.72 43.7887 136.72 39.108C136.72 39.108 136.72 39.1079 136.72 39.0381C137.628 39.0381 138.606 39.0381 139.515 39.0381C139.584 39.3874 139.654 57.0624 139.515 57.8309C139.375 57.8309 139.165 57.8309 139.026 57.8309C138.397 57.8309 137.698 57.8309 137.069 57.8309C136.72 57.8309 136.51 57.761 136.301 57.4816C134.135 55.1761 131.969 52.8008 129.804 50.4954C127.778 48.3297 125.752 46.164 123.796 43.9983C123.796 43.9983 123.726 43.9284 123.516 43.7188Z" fill="white"/>
<path d="M207.348 52.8706C207.348 54.6172 207.348 56.224 207.348 57.9007C206.37 57.9007 205.392 57.9007 204.414 57.9007C204.414 51.6131 204.414 45.3955 204.414 39.1079C204.554 39.1079 204.694 39.1079 204.763 39.1079C207.977 39.1079 211.191 39.1079 214.404 39.1079C215.802 39.1079 217.129 39.3873 218.456 39.9462C220.901 41.064 222.089 43.0202 222.229 45.6749C222.299 46.5831 222.159 47.4913 221.879 48.3995C221.181 50.4255 219.784 51.6131 217.828 52.3118C216.64 52.7309 215.452 52.8706 214.265 52.8706C212.169 52.8706 210.073 52.8706 208.047 52.8706C207.837 52.8706 207.628 52.8706 207.348 52.8706ZM207.418 50.0762C207.558 50.0762 207.698 50.0762 207.767 50.0762C209.863 50.0762 211.959 50.0762 214.055 50.0762C214.684 50.0762 215.243 50.0063 215.871 49.8666C217.827 49.4474 218.945 48.1899 219.085 46.2338C219.225 44.2777 218.317 42.8106 216.36 42.1818C215.592 41.9024 214.823 41.8325 213.985 41.8325C211.889 41.8325 209.863 41.8325 207.767 41.8325C207.628 41.8325 207.488 41.8325 207.418 41.9024C207.418 44.627 207.418 47.3516 207.418 50.0762Z" fill="white"/>
<path d="M194.213 32.1219C193.025 32.1219 191.908 32.1219 190.79 32.1219C190.091 30.7246 189.393 29.3274 188.694 27.8603C184.991 27.8603 181.358 27.8603 177.586 27.8603C176.887 29.2575 176.189 30.6548 175.49 32.1219C174.372 32.1219 173.324 32.1219 172.137 32.1219C175.28 25.8343 178.354 19.5468 181.428 13.3291C182.616 13.3291 183.734 13.3291 184.921 13.3291C188.065 19.5468 191.139 25.7645 194.213 32.1219ZM183.175 16.403C181.708 19.4071 180.311 22.2714 178.913 25.1357C179.961 25.2056 187.017 25.2056 187.367 25.0658C186.039 22.2714 184.642 19.4071 183.175 16.403Z" fill="white"/>
<path d="M161.52 32.1217C160.612 32.1217 159.704 32.1217 158.795 32.1217C158.795 31.5628 158.795 31.0737 158.795 30.5148C158.656 30.5847 158.586 30.5847 158.586 30.6546C157.678 31.7025 156.56 32.2614 155.163 32.471C153.696 32.6806 152.298 32.6107 150.901 32.1915C148.386 31.2833 147.059 29.4669 146.709 26.882C146.57 25.9738 146.64 24.9958 146.849 24.0876C147.408 21.9219 148.666 20.4548 150.761 19.7561C152.438 19.1972 154.185 19.1274 155.931 19.6164C156.909 19.8959 157.748 20.3849 158.446 21.1534C158.516 21.2232 158.586 21.2931 158.586 21.363C158.586 21.363 158.586 21.363 158.726 21.4328C158.726 18.7781 158.726 16.1233 158.726 13.3987C159.634 13.3289 160.542 13.3987 161.52 13.3987C161.52 19.5466 161.52 25.8341 161.52 32.1217ZM154.324 30.1655C154.744 30.0957 155.233 30.0957 155.652 30.0258C157.189 29.6765 158.306 28.8382 158.726 27.2313C158.935 26.5327 158.935 25.904 158.865 25.2054C158.656 23.5287 157.678 22.4109 156.071 21.9917C154.883 21.6424 153.626 21.6424 152.438 22.0616C151.111 22.4808 150.202 23.389 149.923 24.7862C149.783 25.4149 149.783 26.0437 149.853 26.6724C149.993 28.2793 150.831 29.3272 152.368 29.8861C152.927 30.0258 153.626 30.0957 154.324 30.1655Z" fill="white"/>
<path d="M244.232 56.2236C244.232 56.8523 244.232 57.3414 244.232 57.9003C243.324 57.9003 242.416 57.9003 241.508 57.9003C241.508 51.6127 241.508 45.395 241.508 39.1773C241.857 39.1075 243.604 39.0376 244.232 39.1773C244.232 41.8321 244.232 44.4868 244.232 47.2114C244.372 47.1416 244.442 47.0717 244.442 47.0018C245.28 46.0238 246.328 45.4649 247.586 45.2553C249.193 44.9759 250.799 45.0457 252.267 45.6046C254.572 46.5128 255.829 48.1895 256.249 50.6347C256.388 51.7524 256.388 52.9401 256.039 53.988C255.271 56.4332 253.594 57.7605 251.149 58.2496C249.821 58.529 248.494 58.529 247.167 58.1797C246.119 57.9003 245.21 57.4112 244.512 56.5729C244.442 56.4332 244.372 56.3633 244.232 56.2236ZM248.634 55.9441C249.193 55.8743 249.612 55.8743 250.101 55.8044C251.847 55.525 252.965 54.4072 253.314 52.8004C253.454 52.1716 253.454 51.5429 253.384 50.9141C253.175 49.447 252.336 48.3991 250.939 47.9101C249.612 47.421 248.215 47.421 246.887 47.8402C245.56 48.2594 244.652 49.1676 244.372 50.5648C244.232 51.1237 244.232 51.6826 244.232 52.2415C244.372 54.1277 245.42 55.3852 247.236 55.8044C247.656 55.8044 248.145 55.8743 248.634 55.9441Z" fill="white"/>
<path d="M158.863 45.5349C159.073 45.5349 159.212 45.5349 159.352 45.5349C160.051 45.5349 160.749 45.5349 161.378 45.5349C161.797 45.5349 161.797 45.5349 161.937 45.9541C162.775 48.6088 163.684 51.3334 164.522 53.9882C164.592 54.1978 164.662 54.3375 164.732 54.6169C164.871 54.3375 164.941 54.1978 165.011 54.058C166.199 51.1937 167.456 48.3992 168.644 45.5349C168.714 45.3253 168.714 45.0459 168.993 45.0459C169.273 45.0459 169.273 45.3253 169.342 45.5349C170.6 48.3294 171.788 51.1937 172.975 53.9882C173.045 54.1279 173.115 54.2676 173.255 54.5471C174.233 51.4732 175.211 48.539 176.189 45.5349C177.167 45.4651 178.145 45.5349 179.193 45.5349C177.866 49.7266 176.468 53.7786 175.071 57.9703C174.023 57.9703 172.975 57.9703 171.927 57.9703C170.949 55.8046 170.041 53.569 168.993 51.2636C168.015 53.569 167.107 55.8046 166.129 57.9703C165.081 57.9703 164.033 57.9703 162.915 57.9703C161.588 53.7786 160.191 49.6568 158.863 45.5349Z" fill="white"/>
<path d="M317.871 52.3818C313.889 52.3818 309.977 52.3818 305.995 52.3818C305.995 52.5914 306.064 52.801 306.064 52.9407C306.414 54.2681 307.252 55.1763 308.579 55.5954C310.116 56.0845 311.723 56.0845 313.26 55.5954C313.959 55.3859 314.518 54.9667 315.007 54.4078C315.077 54.3379 315.146 54.2681 315.286 54.1283C316.055 54.5475 316.823 55.0365 317.592 55.4557C317.312 55.9447 316.963 56.2941 316.544 56.6434C315.566 57.4118 314.448 57.831 313.26 58.1104C311.374 58.4598 309.488 58.4598 307.671 57.9009C305.645 57.2721 304.108 56.0146 303.48 53.9187C302.991 52.3818 302.991 50.8448 303.549 49.3079C304.248 47.3518 305.715 46.0943 307.671 45.4655C309.418 44.9066 311.234 44.8367 313.051 45.3956C315.705 46.1641 317.172 47.9805 317.661 50.6353C317.801 51.1942 317.801 51.753 317.871 52.3818ZM314.797 50.1462C314.727 49.9366 314.657 49.7271 314.588 49.5175C314.099 48.5394 313.33 47.9107 312.282 47.5614C311.094 47.1422 309.907 47.1422 308.719 47.5614C307.601 47.9107 306.763 48.6791 306.344 49.727C306.274 49.8668 306.274 50.0065 306.204 50.1462C309.069 50.1462 311.933 50.1462 314.797 50.1462Z" fill="white"/>
<path d="M157.675 52.3813C153.762 52.3813 149.85 52.3813 145.868 52.3813C145.868 52.5211 145.868 52.6608 145.868 52.7306C146.217 54.3375 147.195 55.3155 148.732 55.7347C150.06 56.084 151.387 56.084 152.714 55.7347C153.553 55.5251 154.321 55.1059 154.95 54.3375C155.02 54.2676 155.02 54.1977 155.09 54.1279C155.928 54.6169 156.697 55.0361 157.465 55.5251C157.186 55.8744 156.976 56.1539 156.697 56.4333C156.068 57.0621 155.299 57.4812 154.391 57.7607C152.086 58.5292 149.78 58.5292 147.475 57.8305C145.379 57.2018 143.842 55.8046 143.283 53.6388C142.864 52.3115 142.864 50.9142 143.283 49.5869C143.982 47.2814 145.589 45.8842 147.824 45.2554C149.501 44.7664 151.177 44.7664 152.784 45.2554C155.369 45.9541 156.906 47.7006 157.465 50.2855C157.605 50.9841 157.744 51.6827 157.675 52.3813ZM154.671 50.1458C154.671 50.006 154.671 50.006 154.601 49.9362C154.251 48.8184 153.483 48.1198 152.435 47.7006C151.038 47.1417 149.641 47.1417 148.243 47.7006C147.265 48.0499 146.567 48.7485 146.147 49.6567C146.078 49.7965 146.008 50.006 145.938 50.2156C148.942 50.1458 151.736 50.1458 154.671 50.1458Z" fill="white"/>
<path d="M272.322 24.5767C272.392 23.4589 271.973 22.6904 271.065 22.1315C270.506 21.7822 269.877 21.7124 269.248 21.6425C268.41 21.5726 267.572 21.6425 266.803 21.8521C266.105 22.0617 265.476 22.4808 264.917 23.0397C264.777 23.1795 264.707 23.3192 264.568 23.4589C263.869 23.0397 263.17 22.6206 262.402 22.2014C262.821 21.5028 263.31 21.0137 263.869 20.5946C264.777 19.9658 265.755 19.6165 266.803 19.4069C268.41 19.1275 270.017 19.1973 271.554 19.6165C271.973 19.7562 272.392 19.9658 272.811 20.1754C274.069 20.874 274.767 21.9918 274.977 23.389C275.047 23.8082 275.047 24.2274 275.047 24.5767C275.047 26.8821 275.047 29.2574 275.047 31.5628C275.047 31.7026 275.047 31.9122 275.047 32.1217C274.139 32.1217 273.23 32.1217 272.252 32.1217C272.252 31.7026 272.252 31.2834 272.252 30.7944C272.113 30.8642 272.113 30.8642 272.043 30.9341C271.135 31.982 269.877 32.4012 268.62 32.5409C267.292 32.6806 265.965 32.6806 264.638 32.2615C263.939 32.0519 263.31 31.7026 262.821 31.2135C261.633 30.0259 261.424 27.2314 263.38 26.0438C264.288 25.4849 265.196 25.2054 266.244 25.0657C268.061 24.7863 269.807 24.6465 271.624 24.6465C271.973 24.5767 272.113 24.5767 272.322 24.5767ZM272.322 26.7424C272.252 26.7424 272.183 26.7424 272.113 26.7424C271.274 26.7424 270.366 26.7424 269.528 26.8123C268.55 26.8821 267.572 27.0218 266.663 27.1616C266.244 27.2314 265.895 27.441 265.546 27.6506C264.777 28.1396 264.777 29.1177 265.546 29.6766C265.825 29.8862 266.174 30.0259 266.454 30.0958C267.711 30.3752 269.039 30.3752 270.226 29.956C271.624 29.5369 272.532 28.5588 272.322 26.7424Z" fill="white"/>
<path d="M287.34 39.1079C288.248 39.1079 289.156 39.1079 290.064 39.1079C290.064 40.5051 290.064 41.8325 290.064 43.2297C290.064 44.5571 290.064 45.9543 290.064 47.3516C290.134 47.2817 290.204 47.2817 290.204 47.2817C290.973 46.1639 292.021 45.5352 293.348 45.2557C294.536 45.0461 295.653 45.0461 296.841 45.3256C298.867 45.8845 299.985 47.2817 300.404 49.3077C300.474 49.7269 300.544 50.146 300.544 50.5652C300.544 52.8706 300.544 55.2459 300.544 57.5514C300.544 57.6911 300.544 57.8308 300.544 57.9706C299.635 57.9706 298.727 57.9706 297.819 57.9706C297.819 57.761 297.819 57.6212 297.819 57.4116C297.819 55.4555 297.819 53.4295 297.819 51.4734C297.819 51.0542 297.819 50.7049 297.749 50.2858C297.54 48.8885 296.701 47.9803 295.304 47.7009C294.536 47.5612 293.837 47.5612 293.068 47.7009C291.741 47.9803 290.833 48.8885 290.414 50.146C290.204 50.8447 290.134 51.5433 290.134 52.2419C290.134 53.9186 290.134 55.5953 290.134 57.3418C290.134 57.5514 290.134 57.6911 290.134 57.9007C289.226 57.9007 288.318 57.9007 287.41 57.9007C287.34 51.6131 287.34 45.3955 287.34 39.1079Z" fill="white"/>
<path d="M302.29 32.5408C300.963 32.5408 299.635 32.4011 298.448 31.8422C296.072 30.7943 294.885 28.908 294.745 26.393C294.675 25.5547 294.745 24.7163 294.955 23.9479C295.513 21.9219 296.771 20.5246 298.727 19.826C301.032 18.9877 303.408 18.9877 305.713 19.826C308.228 20.7342 309.765 22.8301 309.835 25.5547C309.835 26.3232 309.835 27.0916 309.625 27.8601C309.067 29.8861 307.809 31.2135 305.923 31.9819C304.875 32.4011 303.757 32.5408 302.29 32.5408ZM302.36 21.5726C301.801 21.6424 301.312 21.6424 300.823 21.7821C299.146 22.1314 298.028 23.2492 297.749 24.9259C297.679 25.4848 297.679 26.0437 297.679 26.6026C297.889 28.3491 298.937 29.5368 300.683 30.0258C301.801 30.3053 302.919 30.3053 304.037 30.0258C305.643 29.6067 306.621 28.6286 306.901 26.9519C306.971 26.393 306.971 25.904 306.971 25.3451C306.831 23.6684 305.783 22.4109 304.176 21.9219C303.548 21.7123 302.919 21.7123 302.36 21.5726Z" fill="white"/>
<path d="M119.815 32.5411C118.418 32.5411 117.16 32.4014 115.973 31.8425C113.597 30.7945 112.41 28.9781 112.2 26.3932C112.13 25.4152 112.2 24.507 112.549 23.5988C113.178 21.7125 114.436 20.455 116.252 19.8263C118.558 18.9879 120.933 18.9879 123.238 19.7564C125.753 20.6646 127.29 22.6906 127.36 25.4152C127.43 26.2535 127.36 27.022 127.151 27.8603C126.592 29.8165 125.334 31.1438 123.448 31.9123C122.33 32.4013 121.073 32.6109 119.815 32.5411ZM119.885 21.5728C119.326 21.6427 118.837 21.6426 118.348 21.7824C116.671 22.1317 115.553 23.2495 115.274 24.9261C115.204 25.485 115.204 26.0439 115.204 26.6028C115.414 28.3494 116.462 29.537 118.208 29.9562C119.326 30.2356 120.444 30.2356 121.562 29.9562C123.168 29.537 124.146 28.4891 124.426 26.8823C124.496 26.3234 124.496 25.8343 124.496 25.2755C124.356 23.5988 123.308 22.3413 121.701 21.8522C121.003 21.7125 120.444 21.7125 119.885 21.5728Z" fill="white"/>
<path d="M91.8009 58.3197C90.1941 58.3197 88.7968 58.1101 87.4695 57.4114C85.5133 56.3635 84.4654 54.7567 84.186 52.591C84.0463 51.6828 84.1161 50.7746 84.3257 49.8664C84.8147 47.7705 86.1421 46.3034 88.1681 45.6048C90.4735 44.7665 92.8488 44.7665 95.1542 45.6048C97.7391 46.513 99.0665 48.4692 99.2761 51.1938C99.3459 52.102 99.2761 52.9403 98.9966 53.7786C98.4377 55.6649 97.1802 56.9923 95.3638 57.6909C94.1762 58.1799 92.9885 58.3895 91.8009 58.3197ZM91.6612 47.4212C91.1721 47.4911 90.6831 47.4911 90.1941 47.6308C88.5174 47.9801 87.4695 48.9582 87.1202 50.6349C86.9804 51.2636 86.9804 51.8924 87.0503 52.5211C87.2599 54.1279 88.1681 55.2457 89.705 55.7348C90.9625 56.1539 92.2899 56.1539 93.6173 55.7348C95.0844 55.3156 95.9227 54.2677 96.272 52.8006C96.4118 52.102 96.4118 51.4034 96.272 50.7047C95.9926 49.2376 95.1542 48.2596 93.757 47.7705C93.0584 47.4911 92.4296 47.4212 91.6612 47.4212Z" fill="white"/>
<path d="M230.895 32.5408C229.288 32.5408 227.891 32.3312 226.563 31.6326C224.607 30.5847 223.559 28.9779 223.28 26.8122C223.14 25.904 223.21 24.9958 223.419 24.0876C223.908 21.9917 225.236 20.5246 227.262 19.826C229.567 18.9877 231.943 18.9877 234.248 19.826C236.833 20.7342 238.16 22.6903 238.37 25.415C238.44 26.3232 238.37 27.1615 238.09 27.9998C237.532 29.8861 236.274 31.2135 234.458 31.9121C233.27 32.4011 232.082 32.6107 230.895 32.5408ZM230.895 21.5726C230.266 21.6424 229.777 21.6424 229.288 21.7821C227.611 22.1314 226.563 23.1095 226.214 24.7862C226.074 25.415 226.074 26.0437 226.144 26.6026C226.354 28.2094 227.262 29.3272 228.869 29.8162C230.126 30.2354 231.454 30.2354 232.711 29.8162C234.108 29.3971 235.016 28.419 235.296 26.9519C235.436 26.1834 235.436 25.4149 235.296 24.6465C234.947 23.1794 234.038 22.2013 232.641 21.7821C232.082 21.7123 231.454 21.7123 230.895 21.5726Z" fill="white"/>
<path d="M329.469 55.5952C330.237 55.176 330.936 54.7569 331.634 54.3377C331.704 54.3377 331.704 54.3377 331.774 54.4075C332.543 55.3158 333.591 55.7349 334.778 55.8746C335.826 56.0144 336.874 56.0842 337.922 55.8048C338.271 55.7349 338.621 55.5952 338.83 55.4555C339.459 55.0363 339.529 54.2678 338.9 53.7788C338.621 53.5692 338.271 53.3596 337.922 53.2898C337.014 53.0103 336.036 52.8706 335.058 52.5911C334.359 52.4514 333.73 52.2418 333.032 52.0323C332.613 51.8925 332.263 51.683 331.844 51.4035C329.888 50.146 329.818 46.9324 332.054 45.7447C332.892 45.3255 333.73 45.116 334.638 45.0461C336.245 44.9064 337.782 45.0461 339.249 45.6748C340.088 46.0242 340.786 46.5132 341.345 47.1419C341.485 47.2817 341.555 47.4214 341.695 47.631C340.926 48.0501 340.227 48.4693 339.529 48.8885C339.319 48.6789 339.18 48.5392 338.97 48.3994C338.132 47.7008 337.084 47.4214 336.036 47.3515C335.477 47.3515 334.988 47.3515 334.429 47.4214C334.219 47.4214 333.94 47.5611 333.73 47.631C333.032 47.9803 332.962 48.8186 333.591 49.2378C333.87 49.4474 334.149 49.5871 334.429 49.657C335.267 49.8666 336.106 50.0063 336.874 50.2159C337.712 50.4254 338.481 50.635 339.319 50.9145C339.738 51.0542 340.158 51.3336 340.577 51.5432C342.533 52.8007 342.463 56.0842 340.437 57.2719C339.808 57.6212 339.11 57.9006 338.411 58.0404C336.525 58.3897 334.638 58.3198 332.752 57.8308C331.844 57.5513 330.936 57.1321 330.237 56.4335C329.958 56.2938 329.748 55.9445 329.469 55.5952Z" fill="white"/>
<path d="M271.551 55.5954C272.319 55.1762 273.018 54.757 273.716 54.3378C273.786 54.4077 273.856 54.4077 273.856 54.4776C274.485 55.1762 275.253 55.5953 276.162 55.8049C277.419 56.0844 278.677 56.0844 279.864 55.8748C280.214 55.8049 280.563 55.6652 280.842 55.5255C281.471 55.1063 281.541 54.3378 280.912 53.8488C280.633 53.6392 280.283 53.4296 279.934 53.3598C278.956 53.0803 277.978 52.8707 277.07 52.6612C276.092 52.4516 275.114 52.1721 274.206 51.6831C272.808 50.8448 272.18 49.5174 272.529 47.9106C272.738 47.0722 273.227 46.3736 273.996 45.9544C274.625 45.6051 275.253 45.3955 275.952 45.2558C277.699 44.9764 279.375 45.0462 281.052 45.675C281.96 46.0243 282.799 46.5133 283.427 47.2818C283.567 47.4215 283.637 47.5613 283.777 47.7708C283.008 48.19 282.309 48.6092 281.681 48.9585C281.611 48.9585 281.611 48.9585 281.541 48.9585C280.633 47.9106 279.375 47.5613 278.048 47.4914C277.559 47.4914 277 47.4914 276.511 47.5613C276.232 47.5613 276.022 47.701 275.812 47.8407C275.184 48.19 275.114 48.9585 275.742 49.3777C276.022 49.5872 276.301 49.727 276.581 49.7968C277.419 50.0064 278.258 50.1461 279.026 50.3557C279.864 50.5653 280.633 50.7749 281.471 51.0544C281.89 51.1941 282.309 51.4037 282.659 51.6831C284.685 52.9406 284.615 56.294 282.449 57.5515C281.82 57.9008 281.192 58.1104 280.493 58.2501C278.607 58.5994 276.721 58.5295 274.834 58.0405C273.996 57.8309 273.227 57.4118 272.599 56.9227C272.18 56.4337 271.83 56.0844 271.551 55.5954Z" fill="white"/>
<path d="M189.88 48.9582C189.811 48.8883 189.741 48.8883 189.741 48.8185C189.112 48.1198 188.413 47.7705 187.505 47.561C186.597 47.3514 185.689 47.2815 184.78 47.4911C184.501 47.561 184.152 47.7007 183.942 47.8404C183.453 48.1897 183.383 48.8185 183.872 49.2376C184.152 49.4472 184.501 49.6568 184.78 49.7267C185.619 49.9362 186.457 50.1458 187.295 50.3554C188.134 50.565 188.902 50.7746 189.741 51.054C190.16 51.1938 190.509 51.4033 190.928 51.6828C192.954 52.9403 192.954 56.2937 190.789 57.5512C189.95 58.0402 189.112 58.2498 188.134 58.3895C186.457 58.5991 184.78 58.5292 183.104 58.0402C181.986 57.6909 180.938 57.132 180.17 56.2238C180.03 56.0841 179.96 55.9443 179.82 55.7348C180.519 55.3156 181.287 54.8964 181.916 54.4773C181.986 54.4773 182.056 54.4773 182.056 54.5471C182.824 55.4553 183.802 55.8745 184.92 56.0142C186.038 56.1539 187.086 56.2238 188.204 56.0142C188.483 55.9443 188.832 55.8745 189.042 55.6649C189.741 55.2457 189.811 54.3375 189.112 53.9184C188.763 53.7088 188.343 53.4992 187.924 53.3595C186.946 53.08 185.898 52.8704 184.92 52.6609C184.152 52.4513 183.313 52.2417 182.615 51.8225C181.707 51.3335 181.008 50.6349 180.798 49.5171C180.519 47.9103 181.008 46.6527 182.405 45.8843C183.174 45.4651 184.082 45.2555 184.99 45.1856C186.527 45.0459 187.994 45.1857 189.391 45.7446C190.439 46.1637 191.347 46.7925 191.976 47.8404C191.627 48.05 191.208 48.2596 190.858 48.4692C190.579 48.539 190.23 48.7486 189.88 48.9582Z" fill="white"/>
<path d="M218.876 23.1793C217.408 21.6423 215.592 21.4327 213.706 21.7122C213.496 21.7821 213.217 21.8519 213.007 21.9916C212.378 22.3409 212.378 23.1094 212.937 23.5286C213.217 23.7382 213.496 23.8779 213.776 23.9477C214.614 24.1573 215.452 24.2971 216.221 24.5067C217.059 24.7162 217.828 24.9258 218.666 25.2053C219.155 25.345 219.574 25.6244 219.924 25.9039C221.81 27.1614 221.81 30.3052 219.784 31.5627C219.085 31.9818 218.317 32.2613 217.548 32.401C215.662 32.6805 213.846 32.6805 211.959 32.1216C210.842 31.7723 209.794 31.2134 209.025 30.3052C208.885 30.1654 208.816 30.0257 208.676 29.8161C209.444 29.397 210.143 28.9778 210.841 28.5586C212.099 30.0257 213.776 30.2353 215.522 30.2353C216.011 30.2353 216.57 30.1654 217.059 30.0956C217.339 30.0257 217.688 29.9559 217.898 29.7463C218.596 29.3271 218.596 28.4888 217.967 27.9997C217.688 27.7902 217.408 27.6504 217.059 27.5806C216.151 27.3011 215.173 27.1614 214.195 26.8819C213.496 26.6724 212.798 26.5326 212.169 26.2532C211.82 26.1135 211.47 25.9039 211.121 25.6943C209.933 24.9258 209.374 23.6683 209.724 21.9916C209.933 21.1533 210.422 20.5944 211.121 20.1054C211.75 19.6862 212.448 19.4766 213.147 19.3369C214.893 19.0574 216.57 19.1273 218.247 19.7561C219.225 20.1054 220.063 20.6643 220.692 21.5725C220.762 21.6423 220.832 21.782 220.902 21.8519C220.343 22.3409 219.644 22.7601 218.876 23.1793Z" fill="white"/>
<path d="M207.073 21.9219C206.374 22.3411 205.676 22.7603 204.977 23.1096C204.907 23.1096 204.907 23.1096 204.837 23.0397C203.929 21.9918 202.742 21.6425 201.414 21.5726C200.925 21.5726 200.366 21.5726 199.877 21.6425C199.668 21.6425 199.388 21.7822 199.179 21.852C198.48 22.2014 198.41 23.0397 199.039 23.4589C199.318 23.6685 199.598 23.8082 199.877 23.878C200.716 24.0876 201.554 24.2273 202.322 24.4369C203.161 24.6465 203.999 24.8561 204.837 25.1356C205.396 25.3451 205.885 25.6246 206.305 25.9739C207.981 27.3711 207.841 30.0957 206.095 31.3532C205.396 31.8423 204.558 32.1217 203.72 32.2614C201.833 32.5409 200.017 32.5409 198.131 31.982C196.943 31.6327 195.965 31.0738 195.127 30.0957C195.057 30.0259 194.987 29.8861 194.917 29.8163C194.847 29.7464 194.847 29.6766 194.777 29.6067C195.476 29.1875 196.244 28.7684 196.943 28.3492C197.991 29.5368 199.318 29.956 200.785 30.0259C201.554 30.0259 202.322 29.956 203.091 29.8861C203.37 29.8861 203.65 29.7464 203.859 29.6067C204.698 29.1875 204.768 28.2095 203.929 27.7204C203.65 27.5807 203.37 27.441 203.091 27.3013C202.113 27.0218 201.205 26.8821 200.227 26.6027C199.528 26.3931 198.829 26.2533 198.201 25.9739C197.851 25.8342 197.432 25.6246 197.153 25.415C195.965 24.6465 195.476 23.389 195.755 21.7822C195.895 20.9438 196.454 20.3151 197.153 19.8261C197.781 19.4069 198.41 19.1973 199.179 19.0576C200.925 18.7781 202.672 18.848 204.348 19.4768C205.326 19.8261 206.165 20.385 206.794 21.2233C206.933 21.7123 207.003 21.7822 207.073 21.9219Z" fill="white"/>
<path d="M323.668 32.1216C323.668 31.912 323.668 31.7723 323.668 31.5627C323.668 29.5367 323.668 27.5806 323.668 25.5546C323.668 25.1354 323.668 24.7162 323.529 24.2971C323.319 23.1094 322.62 22.341 321.503 21.9916C320.385 21.6423 319.267 21.6423 318.149 21.9916C316.612 22.4807 315.844 23.6683 315.634 25.2053C315.564 25.6245 315.564 26.1135 315.564 26.5327C315.564 28.2093 315.564 29.8162 315.564 31.4928C315.564 31.7024 315.564 31.8421 315.564 32.0517C314.656 32.0517 313.748 32.0517 312.84 32.0517C312.84 27.9299 312.84 23.808 312.84 19.6862C313.189 19.6163 314.936 19.5465 315.564 19.6862C315.564 20.2451 315.564 20.8738 315.564 21.4327C315.634 21.4327 315.704 21.4327 315.704 21.4327C316.543 20.2451 317.73 19.6163 319.127 19.3369C320.315 19.1273 321.503 19.1273 322.69 19.4068C324.786 19.9657 326.183 21.5026 326.393 23.7382C326.463 24.2272 326.463 24.6464 326.463 25.1354C326.463 27.2313 326.463 29.397 326.463 31.4928C326.463 31.7024 326.463 31.8421 326.463 32.0517C325.555 32.1216 324.646 32.1216 323.668 32.1216Z" fill="white"/>
<path d="M224.328 45.5352C225.236 45.5352 226.074 45.5352 227.053 45.5352C227.053 45.7448 227.053 45.9544 227.053 46.0941C227.053 48.1201 227.053 50.1461 227.053 52.1721C227.053 52.5214 227.053 52.8008 227.122 53.1502C227.262 54.4775 227.961 55.3857 229.288 55.735C230.336 56.0145 231.454 56.0145 232.502 55.735C233.899 55.3857 234.667 54.4077 234.737 52.9406C234.737 52.3118 234.737 51.7529 234.737 51.1241C234.737 49.4475 234.737 47.7009 234.737 46.0243C234.737 45.8147 234.737 45.675 234.737 45.3955C235.646 45.3955 236.554 45.3955 237.532 45.3955C237.532 45.6051 237.532 45.7448 237.532 45.8845C237.532 48.2598 237.532 50.6351 237.532 52.9406C237.532 53.4296 237.462 53.9885 237.322 54.4775C236.973 55.8748 236.135 56.8528 234.807 57.4816C233.829 57.9706 232.711 58.1103 231.663 58.1802C230.406 58.25 229.218 58.1802 228.031 57.8309C225.655 57.2021 224.328 55.5953 224.328 53.1502C224.258 50.6351 224.328 48.0502 224.328 45.5352C224.328 45.6051 224.258 45.6749 224.328 45.5352Z" fill="white"/>
<path d="M253.806 22.2017C253.037 22.6209 252.338 23.0401 251.64 23.4593C251.57 23.3894 251.5 23.3894 251.43 23.3195C250.801 22.4113 249.893 21.9223 248.845 21.7826C247.937 21.6428 247.029 21.6428 246.191 21.8524C244.584 22.2716 243.676 23.3195 243.326 24.9263C243.187 25.6948 243.187 26.3934 243.396 27.1619C243.745 28.6989 244.724 29.6071 246.191 30.0262C247.239 30.3057 248.286 30.3057 249.265 30.0262C250.103 29.8167 250.871 29.3276 251.43 28.629C251.5 28.5592 251.57 28.4893 251.64 28.4194C251.64 28.4194 251.64 28.4194 251.71 28.3496C252.408 28.7687 253.107 29.118 253.875 29.5372C253.806 29.6769 253.736 29.7468 253.666 29.8865C252.897 30.9344 251.919 31.7029 250.662 32.0522C248.566 32.7508 246.4 32.7508 244.304 31.9824C241.859 31.0742 240.602 29.3276 240.252 26.7427C240.113 25.8345 240.183 24.9263 240.392 24.0181C240.881 21.9223 242.139 20.4552 244.165 19.6867C246.33 18.9182 248.566 18.9182 250.732 19.6867C251.849 20.1059 252.758 20.8045 253.386 21.7127C253.666 21.9223 253.736 22.062 253.806 22.2017Z" fill="white"/>
<path d="M109.056 47.8401C107.869 47.8401 106.611 47.8401 105.354 47.8401C105.354 51.1935 105.354 54.5468 105.354 57.8303C104.376 57.8303 103.537 57.8303 102.559 57.8303C102.559 54.477 102.559 51.1935 102.559 47.8401C101.791 47.8401 101.022 47.8401 100.254 47.8401C100.254 47.0018 100.254 46.3032 100.254 45.4648C101.022 45.4648 101.791 45.4648 102.559 45.4648C102.559 44.8361 102.559 44.2073 102.559 43.6484C102.559 43.1594 102.629 42.6005 102.769 42.1115C103.118 40.4348 104.166 39.317 105.843 38.8978C107.17 38.5485 108.567 38.6184 109.895 38.828C109.965 38.828 109.965 38.8978 110.104 38.8978C110.035 39.7362 110.035 40.5745 109.965 41.4827C109.476 41.4129 108.987 41.2731 108.498 41.2731C108.078 41.2731 107.589 41.2731 107.17 41.343C106.262 41.4827 105.633 42.0416 105.494 43.0197C105.354 43.858 105.424 44.6265 105.424 45.4648C106.681 45.4648 107.869 45.4648 109.056 45.4648C109.126 45.8141 109.196 47.2812 109.056 47.8401Z" fill="white"/>
<path d="M285.806 22.0617C284.548 22.0617 283.361 22.0617 282.103 22.0617C282.103 22.2014 282.103 22.3411 282.103 22.4808C282.103 24.0876 282.103 25.6246 282.103 27.2314C282.103 27.441 282.103 27.6506 282.103 27.8602C282.243 29.0478 282.942 29.7464 284.129 29.8163C284.618 29.8163 285.107 29.7464 285.596 29.7464C285.736 29.7464 285.946 29.6766 286.085 29.6766C286.155 30.5149 286.155 31.3532 286.225 32.2614C285.876 32.3313 285.596 32.4012 285.247 32.4012C284.339 32.471 283.361 32.471 282.453 32.2614C280.566 31.8423 279.518 30.6546 279.309 28.7684C279.239 28.2793 279.239 27.8602 279.239 27.3711C279.239 25.8342 279.239 24.2274 279.239 22.6904C279.239 22.4808 279.239 22.3411 279.239 22.1315C278.471 22.1315 277.702 22.1315 276.934 22.1315C276.934 21.2932 276.934 20.5946 276.934 19.7562C277.702 19.7562 278.471 19.7562 279.239 19.7562C279.239 18.5686 279.239 17.4508 279.239 16.2631C280.147 15.9837 281.055 15.7043 282.033 15.4248C282.033 16.1933 282.033 16.8919 282.033 17.5207C282.033 18.2193 282.033 18.9179 282.033 19.6863C283.291 19.6863 284.479 19.6863 285.736 19.6863C285.806 20.5247 285.806 21.2932 285.806 22.0617Z" fill="white"/>
<path d="M259.258 39.1079C260.166 39.1079 261.074 39.1079 261.982 39.1079C261.982 45.3955 261.982 51.6131 261.982 57.9706C261.563 57.9706 261.074 57.9706 260.655 57.9706C260.236 57.9706 259.747 57.9706 259.328 57.9706C259.258 51.6131 259.258 45.3955 259.258 39.1079Z" fill="white"/>
<path d="M140.98 13.3291C141.889 13.3291 142.797 13.3291 143.705 13.3291C143.705 19.6166 143.705 25.8343 143.705 32.1219C142.797 32.1219 141.959 32.1219 140.98 32.1219C140.98 25.8343 140.98 19.6166 140.98 13.3291Z" fill="white"/>
<path d="M320.877 45.5349C321.715 45.5349 322.553 45.5349 323.531 45.5349C323.531 46.0938 323.531 46.5829 323.531 47.2116C323.951 46.7924 324.3 46.3733 324.719 46.0938C325.138 45.8144 325.627 45.5349 326.116 45.3253C326.605 45.1856 327.094 45.0459 327.653 45.0459C328.142 45.0459 328.701 45.1158 329.26 45.1158C329.26 46.024 329.19 46.8623 329.12 47.7705C328.911 47.7705 328.771 47.7006 328.561 47.7006C327.863 47.6308 327.234 47.5609 326.535 47.7006C325.068 47.9801 324.02 48.9581 323.741 50.4951C323.671 50.9841 323.601 51.4732 323.601 51.9622C323.601 53.7786 323.601 55.5251 323.601 57.3416C323.601 57.5511 323.601 57.6909 323.601 57.9004C322.623 57.9004 321.785 57.9004 320.877 57.9004C320.807 57.5511 320.807 46.0239 320.877 45.5349Z" fill="white"/>
<path d="M138.747 19.407C138.677 20.2453 138.677 21.0836 138.607 21.9919C138.397 21.9919 138.188 21.922 138.048 21.922C137.349 21.8521 136.721 21.7823 136.022 21.922C134.415 22.2014 133.367 23.3891 133.158 25.0658C133.088 25.4849 133.088 25.9041 133.088 26.3233C133.088 28.0698 133.088 29.8163 133.088 31.5629C133.088 31.7725 133.088 31.9122 133.088 32.1218C132.18 32.1218 131.271 32.1218 130.363 32.1218C130.363 28 130.363 23.8781 130.363 19.6864C131.201 19.6864 132.11 19.6864 133.018 19.6864C133.018 20.2453 133.018 20.7343 133.018 21.2932C133.018 21.2932 133.088 21.2932 133.088 21.3631C133.786 20.4549 134.695 19.7563 135.812 19.4768C136.79 19.1974 137.699 19.1974 138.747 19.407Z" fill="white"/>
<path d="M268.896 57.9005C267.988 57.9005 267.08 57.9005 266.172 57.9005C266.172 53.7786 266.172 49.6568 266.172 45.535C267.08 45.4651 267.988 45.535 268.896 45.535C268.896 49.6568 268.896 53.7786 268.896 57.9005Z" fill="white"/>
<path d="M256.394 19.7559C257.302 19.7559 258.14 19.7559 259.048 19.7559C259.118 20.1052 259.188 30.9337 259.118 32.1214C258.699 32.1912 258.21 32.1214 257.791 32.1214C257.302 32.1214 256.883 32.1214 256.463 32.1214C256.324 31.7721 256.324 20.2449 256.394 19.7559Z" fill="white"/>
<path d="M289.09 32.1218C289.09 28 289.09 23.8781 289.09 19.7563C289.579 19.6166 289.998 19.6864 290.417 19.6864C290.836 19.6864 291.325 19.6864 291.745 19.6864C291.814 20.0357 291.884 31.4232 291.745 32.1218C290.906 32.1218 289.998 32.1218 289.09 32.1218Z" fill="white"/>
<path d="M267.501 38.7588C268.41 38.7588 269.178 39.5273 269.178 40.4355C269.178 41.3437 268.41 42.1121 267.501 42.1121C266.593 42.1121 265.895 41.4135 265.895 40.5053C265.895 39.5273 266.593 38.7588 267.501 38.7588Z" fill="white"/>
<path d="M292.096 14.6567C292.096 15.6348 291.397 16.3334 290.419 16.2635C289.511 16.2635 288.812 15.495 288.742 14.5868C288.742 13.6786 289.511 12.9102 290.419 12.9102C291.397 12.98 292.096 13.7485 292.096 14.6567Z" fill="white"/>
<path d="M256.117 14.6562C256.117 13.748 256.886 12.9795 257.794 13.0493C258.702 13.0493 259.401 13.8178 259.401 14.726C259.401 15.6342 258.632 16.4027 257.724 16.4027C256.816 16.3329 256.117 15.5644 256.117 14.6562Z" fill="white"/>
<path d="M19.7688 32.1215C19.629 32.4009 19.5592 32.6105 19.4893 32.8201C19.0003 33.7982 18.1619 34.3571 17.114 34.5666C16.2058 34.7762 15.2976 34.7762 14.3894 34.4968C12.9922 34.1475 12.084 33.3091 11.595 31.9818C11.3155 31.1434 11.1758 30.3051 11.1758 29.3969C11.1758 27.3709 11.1758 25.275 11.1758 23.249C11.1758 21.6422 11.1758 19.9655 11.1758 18.3587C11.1758 18.1491 11.1758 18.0094 11.1758 17.7998C12.7127 17.7998 14.11 17.7998 15.6469 17.7998C15.6469 18.0094 15.6469 18.1491 15.6469 18.3587C15.6469 21.782 15.6469 25.2052 15.6469 28.6284C15.6469 28.9078 15.6469 29.1873 15.7168 29.3969C15.8565 29.8161 16.2058 30.0256 16.6948 29.9558C17.1839 29.9558 17.4633 29.6763 17.5332 29.2572C17.6031 28.9777 17.603 28.7681 17.603 28.4887C17.603 25.1353 17.603 21.782 17.603 18.3587C17.603 18.1491 17.603 17.9396 17.603 17.73C19.0003 17.73 20.3277 17.73 21.7249 17.73C21.7249 17.8697 21.7249 18.0793 21.7249 18.2889C21.7249 21.7121 21.7249 25.1353 21.7249 28.5585C21.7249 28.838 21.7249 29.0476 21.7947 29.327C21.9345 29.7462 22.2139 29.9558 22.7728 29.9558C23.2618 29.9558 23.6111 29.7462 23.681 29.327C23.7509 29.0476 23.7509 28.838 23.7509 28.5585C23.7509 25.2052 23.7509 21.782 23.7509 18.4286C23.7509 18.219 23.7509 18.0793 23.7509 17.8697C25.2878 17.8697 26.7549 17.8697 28.222 17.8697C28.222 18.0793 28.222 18.219 28.222 18.3587C28.222 22.0614 28.222 25.7641 28.222 29.4667C28.222 30.1653 28.1522 30.9338 27.9426 31.5626C27.4535 33.4488 26.196 34.4968 24.3098 34.7064C23.5413 34.7762 22.8427 34.7762 22.0742 34.4968C20.9564 34.1475 20.1879 33.5187 19.7688 32.4009C19.8386 32.3311 19.8386 32.2612 19.7688 32.1215Z" fill="white"/>
<path d="M57.4267 52.5214C55.8897 52.5214 54.4226 52.5214 52.8857 52.5214C52.8857 51.2639 52.8857 50.0064 52.8857 48.7489C52.4665 48.6092 50.0213 48.6092 49.4624 48.7489C49.4624 50.0064 49.4624 51.2639 49.4624 52.5214C47.9255 52.5214 46.3885 52.5214 44.8516 52.5214C44.8516 47.0722 44.8516 41.623 44.8516 36.2437C45.2009 36.104 56.3089 36.104 57.3568 36.1738C57.4965 36.4533 57.4965 51.753 57.4267 52.5214ZM52.8158 44.4175C52.8158 43.0203 52.8158 41.6929 52.8158 40.3655C51.698 40.3655 50.6501 40.3655 49.5323 40.3655C49.5323 41.6929 49.5323 43.0203 49.5323 44.4175C50.5802 44.4175 51.698 44.4175 52.8158 44.4175Z" fill="white"/>
<path d="M30.3164 17.7998C34.5081 17.7998 38.6998 17.7998 42.8915 17.7998C42.8915 23.249 42.8915 28.6982 42.8915 34.1474C41.3545 34.2173 39.8875 34.1474 38.2806 34.1474C38.2806 32.8899 38.2806 31.6324 38.2806 30.305C37.1628 30.305 36.1149 30.305 34.9273 30.305C34.9273 31.5625 34.9273 32.8201 34.9273 34.1474C33.3205 34.1474 31.8534 34.1474 30.3164 34.1474C30.3164 28.6982 30.3164 23.3189 30.3164 17.7998ZM34.9273 22.0614C34.9273 23.4586 34.9273 24.7161 34.9273 26.0435C36.0451 26.0435 37.093 26.0435 38.2108 26.0435C38.2108 24.7161 38.2108 23.3887 38.2108 22.0614C37.093 22.0614 36.0451 22.0614 34.9273 22.0614Z" fill="white"/>
<path d="M40.6584 47.0718C41.6365 48.8882 42.5447 50.6347 43.5227 52.521C41.846 52.521 40.2392 52.521 38.5626 52.521C37.8639 51.1238 37.1653 49.7266 36.3968 48.2595C35.9078 48.2595 35.4886 48.2595 34.9996 48.2595C34.9996 49.6567 34.9996 51.0539 34.9996 52.521C33.3928 52.521 31.8558 52.521 30.3189 52.521C30.1792 52.1717 30.1792 36.9419 30.249 36.1035C30.3887 36.1035 30.5285 36.1035 30.6682 36.1035C32.6243 36.1035 34.5106 36.1035 36.4667 36.1035C37.6543 36.1035 38.7721 36.3131 39.8201 36.8021C41.6365 37.6405 42.6145 39.1076 42.894 41.0637C43.0337 42.1815 42.9638 43.2993 42.6145 44.3472C42.2652 45.3253 41.7063 46.1636 40.9378 46.7924C40.868 46.8622 40.7981 46.9321 40.6584 47.0718ZM35.0695 43.928C35.6284 43.9979 36.3968 43.9979 36.816 43.8582C37.7242 43.6486 38.2132 42.95 38.2132 42.0418C38.2132 41.2034 37.6543 40.5747 36.816 40.3651C36.2571 40.2254 35.6982 40.2952 35.0695 40.2952C35.0695 41.5527 35.0695 42.7404 35.0695 43.928Z" fill="white"/>
<path d="M49.5318 34.2177C47.925 34.2177 46.3881 34.2177 44.8511 34.2177C44.8511 34.078 44.7812 33.9383 44.7812 33.8684C44.7812 30.5849 44.7812 27.2316 44.7812 23.9481C44.7812 22.9001 44.921 21.7824 45.3401 20.8043C45.9689 19.1975 47.0867 18.1496 48.7634 17.7304C50.3003 17.3112 51.8373 17.3112 53.3742 17.7304C55.2605 18.2194 56.3783 19.4769 57.007 21.2933C57.2865 22.1317 57.4262 23.0399 57.4262 23.9481C57.4262 27.3014 57.4262 30.5849 57.4262 33.9383C57.4262 34.0082 57.4262 34.078 57.4262 34.2177C55.8893 34.2177 54.3523 34.2177 52.7455 34.2177C52.7455 34.0082 52.7455 33.7986 52.7455 33.589C52.7455 30.5151 52.7455 27.4412 52.7455 24.3672C52.7455 24.0179 52.7455 23.6686 52.6756 23.3193C52.5359 22.5508 51.977 22.1317 51.1387 22.1317C50.3702 22.1317 49.8113 22.5508 49.6716 23.3193C49.6017 23.6686 49.6017 23.9481 49.6017 24.2974C49.6017 27.3713 49.6017 30.4452 49.6017 33.4493C49.5318 33.7287 49.5318 33.9383 49.5318 34.2177Z" fill="white"/>
<path d="M22.4928 44.4874C24.5188 44.4874 26.405 44.4874 28.2913 44.4874C28.2913 45.8846 28.2913 47.2818 28.2913 48.7489C26.3352 48.7489 24.4489 48.7489 22.4928 48.7489C22.4928 50.0064 22.4928 51.2639 22.4928 52.5214C20.886 52.5214 19.349 52.5214 17.8121 52.5214C17.8121 52.3817 17.7422 52.3119 17.7422 52.1721C17.7422 49.0284 17.7422 45.9545 17.7422 42.8107C17.7422 41.9723 17.8819 41.2039 18.0915 40.4354C18.7203 38.1998 20.1873 36.8725 22.4229 36.3834C23.0517 36.2437 23.6804 36.1738 24.3092 36.1738C25.5667 36.1738 26.7543 36.1738 28.0119 36.1738C28.0817 36.1738 28.2214 36.1738 28.3612 36.1738C28.3612 37.7806 28.3612 39.3176 28.3612 40.9244C28.2214 40.9244 28.0118 40.9244 27.8721 40.9244C26.8941 40.9244 25.916 40.9244 25.0078 40.9244C24.7284 40.9244 24.4489 40.9244 24.0996 40.9943C23.2613 41.134 22.6325 41.623 22.5626 42.5312C22.5626 43.16 22.5626 43.7887 22.4928 44.4874Z" fill="white"/>
<path d="M15.8594 52.5212C14.3225 52.5212 12.7855 52.5212 11.2486 52.5212C11.1088 52.1719 11.1088 36.9421 11.1787 36.1736C12.7157 36.1736 14.2526 36.1736 15.7896 36.1736C15.8594 41.6228 15.8594 47.072 15.8594 52.5212Z" fill="white"/>
<path d="M69.8616 34.9859C69.8616 54.2678 54.1428 69.9866 34.6514 69.8469C15.5093 69.7072 0.0698616 54.128 0 34.9859C0 15.6343 15.7887 -0.0845997 35.2103 0.0551235C54.4222 0.264708 69.8616 15.774 69.8616 34.9859ZM65.0412 34.9859C64.9713 18.0794 51.2784 5.0153 35.1404 4.94544C18.5832 4.87558 4.89031 18.2192 4.89031 34.9859C4.89031 51.5432 18.3736 65.0264 34.9308 65.0264C51.2086 65.0963 64.9713 51.8925 65.0412 34.9859Z" fill="white"/>
</svg>
