<svg width="226" height="263" viewBox="0 0 226 263" fill="none" xmlns="http://www.w3.org/2000/svg">
<path d="M106.293 102.107L106.529 102.774H107.236H224.556L224.561 133.659H140.919V129.67H219.57H220.57V128.67V107.762V106.762H219.57H107.236H106.529L106.293 107.43C105.188 110.563 102.216 112.802 98.7144 112.802C94.2762 112.802 90.6807 109.206 90.6807 104.768C90.6807 100.33 94.2765 96.7344 98.7144 96.7344C102.216 96.7344 105.188 98.9732 106.293 102.107Z" fill="#1FFF03" stroke="#05231C" stroke-width="2"/>
<path d="M26.9767 90.6032H27.1216C31.5595 90.6032 35.1553 87.0076 35.1553 82.5694C35.1553 78.2935 31.8118 74.81 27.5997 74.5596L26.6982 74.506L26.66 73.6037C25.9031 55.7514 36.8585 26.7677 67.165 14.6454C101.581 0.308512 133.317 2.00158 164.101 19.8679L164.242 19.9436C165.531 20.5955 167.225 21.5271 168.969 22.5859L172.022 24.4406H168.449H66.8499L41.362 51.5121H115.563V47.5237H52.9031H50.5879L52.175 45.8381L68.2719 28.7433L68.568 28.4288H69H182.695L179.073 24.985L26.9767 90.6032ZM26.9767 90.6032C22.606 90.5263 19.0872 86.9613 19.0872 82.5579C19.0872 79.9205 20.3584 77.5886 22.3316 76.1173L22.7751 75.7866L22.7305 75.2351C21.0653 54.6282 34.8153 23.2856 65.6498 10.9465L65.6498 10.9465L65.6629 10.9411C101.321 -3.91614 134.12 -2.13163 166.041 16.3724L166.067 16.3871L166.093 16.4003C169.393 18.0631 175.737 21.8233 179.072 24.984L26.9767 90.6032Z" fill="#1FFF03" stroke="#05231C" stroke-width="2"/>
<path d="M25.7557 102.875L29.65 103.78C29.1187 105.509 28.2723 107.152 27.1192 108.683C21.2259 116.47 16.227 123.143 12.5884 128.072C10.7693 130.536 9.28827 132.567 8.20481 134.084C7.14651 135.566 6.42863 136.612 6.16631 137.081C5.17715 138.782 4.91431 140.559 5.03887 142.077C5.16123 143.568 5.66658 144.901 6.32958 145.7L6.43959 145.833L6.58762 145.921C6.98551 146.158 7.51108 146.327 8.03008 146.458C8.56976 146.595 9.18977 146.711 9.82815 146.811C11.1042 147.011 12.5216 147.157 13.6365 147.272C15.5571 147.471 17.3546 147.658 18.9385 148C20.5271 148.342 21.7917 148.819 22.6902 149.531L22.7223 149.556L22.7562 149.579C23.4485 150.04 23.9362 150.701 24.1509 151.481L24.1519 151.485C24.425 152.463 24.2893 153.525 23.8213 154.781C23.348 156.052 22.5811 157.407 21.6999 158.962C21.2986 159.662 20.7093 160.693 20.2263 161.662C19.985 162.147 19.7602 162.635 19.5969 163.072C19.4509 163.463 19.2921 163.967 19.3185 164.416L19.3221 164.477L19.3331 164.537C19.4821 165.351 20.0501 166.118 20.5639 166.705C21.1062 167.325 21.7506 167.921 22.2548 168.387L22.2608 168.393L22.261 168.393C23.6949 169.719 24.5604 170.593 24.4877 171.929H24.4876L24.4871 171.941C24.4608 172.564 24.1696 173.176 23.6626 173.636L23.6264 173.669L23.5936 173.705C23.1329 174.213 22.3061 175.458 21.8514 176.808L21.8493 176.815C21.6537 177.408 21.5662 177.906 21.5548 178.305C21.5492 178.503 21.5618 178.696 21.5994 178.874C21.6253 178.997 21.6924 179.266 21.8996 179.495L22.1141 179.744C22.683 180.479 23.2859 181.16 23.8533 181.802L23.8916 181.845C23.8919 181.845 23.8922 181.846 23.8925 181.846C26.0296 184.27 28.1201 186.709 28.1201 190.051C28.1201 191.17 27.8282 192.676 27.4243 194.761L27.422 194.773L27.4218 194.774L27.4175 194.796C26.9023 197.435 26.2388 200.835 26.1419 204.145C26.0455 207.44 26.5013 210.846 28.4143 213.356L28.4299 213.377L28.4465 213.396C29.9522 215.174 32.085 216.327 34.4227 217.137L35.1123 217.376L35.5502 216.792C37.0224 214.829 39.3432 213.558 41.9795 213.558C46.4177 213.558 50.0133 217.154 50.0133 221.592C50.0133 225.998 46.4694 229.573 42.0758 229.625H41.9802C37.6506 229.625 34.1168 226.181 33.9457 221.846L33.9186 221.16L33.2682 220.939C30.1183 219.868 27.3819 218.282 25.307 215.834C22.9387 212.715 22.1678 208.796 22.1616 204.834C22.1554 200.864 22.9153 196.97 23.4995 193.978L23.4998 193.976L23.5197 193.873C23.6599 193.148 23.8042 192.402 23.9149 191.752C24.0264 191.097 24.1194 190.455 24.1194 190.025C24.1194 188.969 23.6364 187.994 23.0503 187.128C22.4815 186.287 21.7227 185.419 20.966 184.554L20.878 184.453L20.8777 184.453C20.2531 183.739 19.6251 183.01 19.0251 182.26L19.003 182.233L18.979 182.207C18.5279 181.718 18.0028 180.962 17.7325 179.895C17.464 178.834 17.4305 177.402 18.0537 175.525C18.4341 174.396 18.9841 173.307 19.5566 172.425L20.0147 171.718L19.3969 171.147C17.8294 169.696 15.8728 167.764 15.4022 165.176C15.1936 164.029 15.4354 162.754 15.9908 161.336C16.5464 159.917 17.3711 158.462 18.229 156.959C18.7562 156.042 19.5995 154.561 20.0136 153.554L20.4074 152.595L19.4356 152.236C18.6827 151.957 17.5437 151.754 16.4425 151.598C15.3775 151.447 14.2544 151.329 13.3718 151.236L13.218 151.219L13.2173 151.219C11.2522 151.013 9.40918 150.82 7.77994 150.469C6.15792 150.119 4.85114 149.633 3.90636 148.906L3.67391 148.705C0.984429 145.987 -0.231304 140.124 2.69122 135.111L2.6961 135.102L2.70081 135.094C3.02458 134.513 4.03638 133.043 5.542 130.947C7.02946 128.877 8.95728 126.254 11.0722 123.404C15.3015 117.706 20.2704 111.116 23.942 106.268L23.9438 106.265C24.7393 105.208 25.3564 104.076 25.7557 102.875Z" fill="#1FFF03" stroke="#05231C" stroke-width="2"/>
<path d="M196.439 185.812L196.435 185.697C196.287 181.257 192.576 177.776 188.14 177.923C183.7 178.071 180.219 181.782 180.366 186.219L180.366 186.22C180.457 189.061 182.024 191.508 184.306 192.865L184.904 193.221L184.778 193.906C183.144 202.745 182.816 211.499 183.802 219.929C184.969 229.88 187.467 238.164 188.718 242.274L188.735 242.33L188.745 242.388C189.446 246.276 188.503 250.174 186.102 253.079C184.033 255.596 181.176 257.01 177.999 257.014C153.053 257.666 96.4153 258.242 84.4482 257.909L83.598 257.885L83.4849 257.042C82.1119 246.808 78.6752 234.379 77.0369 230.351L77.0231 230.318L77.0119 230.283C75.7336 226.339 70.1213 221.313 57.4024 219.997L57.0615 223.968C62.0064 224.49 65.7143 225.622 68.3288 226.945C71.0443 228.32 72.7457 229.989 73.2203 231.533L73.3065 231.781C74.1645 233.854 75.5228 238.406 76.79 243.608C78.0665 248.849 79.2709 254.835 79.7894 259.747L79.7949 259.799V259.852V260.543L80.3995 261.13L196.439 185.812ZM196.439 185.812C196.504 189.906 193.506 193.358 189.522 193.898L188.803 193.995L188.672 194.709C187.133 203.117 186.821 211.444 187.754 219.457L187.754 219.458C188.902 229.18 191.373 237.337 192.569 241.246L192.633 241.502C193.619 246.64 192.352 251.786 189.18 255.619C186.341 259.047 182.294 260.989 178.063 260.989H178.05L178.037 260.989C165.134 261.322 141.84 261.68 120.155 261.859C109.189 261.949 101.285 262 95.5699 262C88.22 262 84.513 261.916 82.5408 261.735C81.5489 261.644 81.0809 261.535 80.834 261.44C80.6493 261.369 80.5883 261.313 80.4004 261.131L196.439 185.812Z" fill="#1FFF03" stroke="#05231C" stroke-width="2"/>
<path d="M130.715 199.247L130.723 199.248C133.471 199.446 135.982 200.709 137.78 202.791C139.577 204.87 140.472 207.537 140.26 210.301C139.848 215.983 134.838 220.272 129.209 219.848M130.715 199.247L129.283 218.85M130.715 199.247L130.707 199.247L130.695 199.246C130.472 199.234 130.219 199.22 129.96 199.22C124.728 199.22 120.309 203.174 119.728 208.401C119.729 208.398 119.729 208.401 119.713 208.475L119.711 208.48C119.699 208.538 119.675 208.647 119.663 208.77L119.662 208.782L119.661 208.794C119.491 211.039 120.074 213.195 121.243 215.042M130.715 199.247L120.658 208.87M129.209 219.848C129.208 219.848 129.208 219.848 129.207 219.848L129.283 218.85M129.209 219.848C129.209 219.848 129.21 219.848 129.211 219.848L129.283 218.85M129.209 219.848C126.461 219.649 123.953 218.386 122.143 216.308L122.138 216.302C121.783 215.888 121.497 215.456 121.243 215.042M129.283 218.85C126.8 218.671 124.535 217.533 122.897 215.651C122.59 215.293 122.334 214.909 122.091 214.513M121.243 215.042C121.244 215.044 121.245 215.046 121.247 215.048L122.091 214.513M121.243 215.042C121.241 215.04 121.24 215.037 121.239 215.035L122.091 214.513M122.091 214.513C121.029 212.836 120.505 210.891 120.658 208.87M120.658 208.87C120.665 208.803 120.679 208.739 120.692 208.677C120.704 208.621 120.716 208.566 120.722 208.511C121.247 203.79 125.239 200.22 129.96 200.22C130.191 200.22 130.421 200.233 130.651 200.245C133.134 200.425 135.399 201.563 137.024 203.444C138.649 205.325 139.455 207.731 139.263 210.226L120.658 208.87ZM159.168 185.201V237.377H100.367L100.379 209.527H114.21H115.21V208.527V208.435C115.815 200.303 122.94 194.16 131.063 194.77L131.065 194.771C135.01 195.058 138.603 196.866 141.194 199.865C143.785 202.864 145.054 206.685 144.766 210.629L144.766 210.63C144.203 218.406 137.682 224.366 129.999 224.366C129.638 224.366 129.265 224.354 128.905 224.33C124.949 224.041 121.358 222.234 118.768 219.237C117.468 217.72 116.499 216.018 115.902 214.192L115.677 213.502H114.952H105.355H104.355V214.502V232.39V233.39L105.355 233.39L154.168 233.403L155.168 233.404V232.403V190.202V189.202H154.168H52.7236H52.016L51.7806 189.869C50.6753 193.002 47.7037 195.241 44.2017 195.241C39.7635 195.241 36.168 191.646 36.168 187.208C36.168 182.769 39.7638 179.174 44.2017 179.174C47.7038 179.174 50.6754 181.413 51.7806 184.546L52.016 185.213L52.7237 185.213L159.168 185.201Z" fill="#1FFF03" stroke="#05231C" stroke-width="2"/>
<path d="M118.656 119.178L118.669 119.179C121.243 119.36 123.623 120.321 125.594 121.902C126.191 122.375 126.745 122.902 127.257 123.482L127.261 123.488C129.459 126.019 130.53 129.276 130.28 132.612C130.015 136.204 128.245 139.304 125.668 141.411L125.666 141.412C123.283 143.352 120.18 144.469 116.848 144.219C113.516 143.969 110.455 142.44 108.271 139.909M118.656 119.178L109.028 139.255M118.656 119.178L118.644 119.178L118.634 119.177C118.359 119.165 118.058 119.151 117.754 119.151C112.063 119.151 107.117 123.029 105.657 128.411C105.448 129.176 105.309 129.971 105.253 130.807M118.656 119.178L106.251 130.874M108.271 139.909C108.271 139.909 108.271 139.909 108.27 139.908L109.028 139.255M108.271 139.909C108.272 139.91 108.272 139.91 108.272 139.91L109.028 139.255M108.271 139.909C106.996 138.438 106.15 136.709 105.68 134.914L105.68 134.913C105.339 133.606 105.155 132.23 105.253 130.807M109.028 139.255C107.863 137.911 107.083 136.325 106.648 134.661C106.328 133.433 106.161 132.166 106.251 130.874M105.253 130.807L106.251 130.874M105.253 130.807C105.253 130.806 105.253 130.806 105.253 130.805L106.251 130.874M204.035 176.09H203.74C203.415 176.086 203.095 176.074 202.767 176.056C194.92 175.485 188.707 169.639 187.293 162.253L187.138 161.441H186.311H37.6431V129.672H100.008H100.853L100.994 128.839C102.444 120.297 110.178 114.095 119.028 114.711C123.562 115.038 127.704 117.115 130.677 120.56L130.678 120.562C133.65 123.992 135.101 128.387 134.775 132.935C134.11 141.879 126.615 148.733 117.782 148.733C117.375 148.733 116.976 148.711 116.532 148.685L116.523 148.685C116.52 148.685 116.518 148.684 116.515 148.684C111.985 148.356 107.845 146.279 104.873 142.836L104.872 142.835C102.8 140.437 101.517 137.552 101.008 134.483L100.869 133.647H100.021H42.6315H41.6315V134.647V156.438V157.438H42.6315H186.185H187.049L187.174 156.583C188.456 147.831 196.277 141.402 205.267 142.055C214.646 142.744 221.716 150.928 221.028 160.292C220.363 169.235 212.868 176.09 204.035 176.09ZM191.508 158.123L191.508 158.128C191.382 159.743 191.607 161.29 192.048 162.723C193.52 167.526 197.786 171.186 203.115 171.577C210.015 172.091 216.047 166.863 216.547 159.967C217.048 153.071 211.836 147.038 204.939 146.537C198.701 146.078 193.213 150.309 191.838 156.213L191.836 156.223L191.83 156.248C191.706 156.809 191.565 157.441 191.508 158.123Z" fill="#1FFF03" stroke="#05231C" stroke-width="2"/>
<path d="M206.589 47.5264H157.469H156.63L156.484 46.7009C155.154 39.1904 148.889 33.2222 140.954 32.6424L140.706 32.6243C136.256 32.3799 131.947 33.8206 128.568 36.7373C125.123 39.7114 123.045 43.8534 122.719 48.387L206.589 47.5264ZM206.589 47.5264V77.7699H54.0041H53.0041V78.7699V101.776V102.776H54.0041H82.7417V106.765H49.0315V73.7804L201.617 73.755L202.616 73.7548V72.755V52.4868V51.4868H201.616H157.447H156.597L156.46 52.3255C155.117 60.5401 148.054 66.6625 139.725 66.6625C139.318 66.6625 138.92 66.6397 138.475 66.6143L138.466 66.6139C138.464 66.6137 138.461 66.6135 138.459 66.6133C133.928 66.2851 129.788 64.2082 126.816 60.7647L126.815 60.7633C123.843 57.3319 122.392 52.9362 122.719 48.3873L206.589 47.5264ZM151.852 52.7585L152.622 49.7288L152.261 50.0348C152.29 48.7176 152.096 47.4457 151.755 46.2503C150.366 41.3248 146.047 37.51 140.628 37.1199L140.615 37.119L140.602 37.1184L140.592 37.1179C140.317 37.1054 140.016 37.0918 139.712 37.0918C136.603 37.0918 133.738 38.2631 131.533 40.1766C129.109 42.2694 127.45 45.2723 127.199 48.7268C126.949 52.0623 128.02 55.3198 130.218 57.851L130.218 57.8517C130.43 58.0955 130.716 58.3526 130.928 58.5431C131.007 58.6144 131.076 58.6765 131.127 58.7249L131.13 58.7276C133.218 60.7055 135.863 61.95 138.796 62.1595L138.797 62.1595C142.128 62.3955 145.371 61.339 147.915 59.1423L147.919 59.1389C149.876 57.4316 151.226 55.2202 151.852 52.7585Z" fill="#1FFF03" stroke="#05231C" stroke-width="2"/>
</svg>
