<svg width="223" height="263" viewBox="0 0 223 263" fill="none" xmlns="http://www.w3.org/2000/svg">
<mask id="path-1-inside-1_525_5" fill="white">
<path d="M104.638 175.577H119.706C122.189 175.577 124.221 177.608 124.221 180.092V193.241C124.221 195.725 122.19 197.756 119.706 197.756H104.638C102.154 197.756 100.123 195.725 100.123 193.241V180.092C100.066 177.552 102.098 175.577 104.638 175.577ZM115.135 184.607H109.096V188.726H115.135V184.607ZM165.589 184.72C180.037 184.72 191.776 196.458 191.776 210.962C191.776 225.465 180.037 237.149 165.589 237.149C151.085 237.149 139.347 225.41 139.347 210.962C139.347 196.514 151.143 184.72 165.589 184.72ZM177.724 198.829C171.007 192.113 160.115 192.113 153.398 198.829C146.681 205.545 146.682 216.437 153.398 223.154C160.114 229.871 171.006 229.87 177.724 223.154C184.44 216.382 184.44 205.546 177.724 198.829ZM155.318 167.564C152.835 167.564 150.803 165.532 150.803 163.049C150.803 160.565 152.835 158.534 155.318 158.534H172.983C175.466 158.534 177.498 160.565 177.498 163.049C177.498 165.532 175.466 167.564 172.983 167.564H155.318ZM165.589 171.683C187.261 171.683 204.869 189.292 204.869 210.962C204.869 232.633 187.26 250.242 165.589 250.242C143.919 250.242 126.31 232.633 126.31 210.962C126.31 189.292 143.919 171.683 165.589 171.683ZM186.979 189.574C175.184 177.779 156.051 177.779 144.199 189.574C132.347 201.369 132.404 220.558 144.199 232.354C155.994 244.151 175.182 244.15 186.979 232.354C198.774 220.502 198.774 201.371 186.979 189.574ZM108.869 164.177H126.252V106.159C126.252 103.676 128.283 101.644 130.767 101.644C133.25 101.644 135.282 103.676 135.282 106.159V162.031C136.636 159.379 133.814 153.453 139.458 147.809C141.772 145.495 144.989 144.028 148.544 144.028H156.897V115.585C156.897 92.1072 136.693 85.673 115.528 85.673H79.8031C57.0589 85.673 38.4339 93.6307 38.4339 115.585V125.969H60.1057V106.16C60.1057 103.677 62.1375 101.645 64.6207 101.645C67.1039 101.645 69.1357 103.677 69.1357 106.16V125.969H93.7983C102.095 125.969 108.811 132.742 108.811 140.982V164.177L108.869 164.177ZM165.926 144.029H182.801C189.912 144.029 195.669 149.785 195.669 156.897V160.339C195.669 162.428 197.418 164.177 199.506 164.177H209.722C216.833 164.177 222.589 169.934 222.589 177.045V250.132C222.589 257.243 216.833 263 209.722 263H101.136C94.0249 263 88.2681 257.243 88.2681 250.132V234.894H15.0123C6.71611 234.894 0 228.122 0 219.882V140.982C0 132.686 6.77246 125.969 15.0123 125.969H29.4603V115.585C29.4603 87.0287 52.1481 76.6431 79.8594 76.6431H115.584C141.658 76.6431 165.983 86.5197 165.983 115.585V144.028L165.926 144.029ZM88.2686 225.862V177.045C88.2686 170.442 93.348 164.911 99.8946 164.234V140.982C99.8946 137.708 97.1856 134.943 93.8558 134.943H15.0136C11.7401 134.943 8.9748 137.652 8.9748 140.982V219.824C8.9748 223.097 11.6838 225.863 15.0136 225.863L88.2686 225.862ZM131.839 173.149H101.137C99.0487 173.149 97.299 174.898 97.299 176.986V250.074C97.299 252.162 99.0486 253.912 101.137 253.912H209.778C211.866 253.912 213.616 252.162 213.616 250.074V176.986C213.616 174.898 211.866 173.149 209.778 173.149H199.563C192.452 173.149 186.695 167.392 186.695 160.281V156.895C186.695 154.807 184.945 153.057 182.857 153.057H148.543C146.455 153.057 144.706 154.806 144.706 156.895V160.337C144.706 167.392 138.949 173.149 131.838 173.149H131.839ZM29.2368 205.601C26.7537 205.601 24.7218 203.569 24.7218 201.086C24.7218 198.603 26.7536 196.571 29.2368 196.571H79.636C82.1191 196.571 84.1509 198.603 84.1509 201.086C84.1509 203.569 82.1192 205.601 79.636 205.601H29.2368ZM29.2368 183.647C26.7537 183.647 24.7218 181.615 24.7218 179.132C24.7218 176.649 26.7536 174.617 29.2368 174.617H79.636C82.1191 174.617 84.1509 176.649 84.1509 179.132C84.1509 181.615 82.1192 183.647 79.636 183.647H29.2368ZM29.2368 161.749C26.7537 161.749 24.7218 159.718 24.7218 157.234C24.7218 154.751 26.7536 152.719 29.2368 152.719H49.3286C51.8117 152.719 53.8435 154.751 53.8435 157.234C53.8435 159.718 51.8118 161.749 49.3286 161.749H29.2368ZM97.6958 0C117.675 0 133.871 16.1976 133.871 36.1752C133.871 56.1528 117.673 72.3504 97.6958 72.3504C77.7182 72.3504 61.5207 56.1528 61.5207 36.1752C61.5207 16.1976 77.7182 0 97.6958 0ZM116.885 16.9876C106.275 6.37755 89.1181 6.37755 78.5061 16.9876C67.8941 27.5977 67.8961 44.7541 78.5061 55.3661C89.1162 65.9781 106.273 65.9762 116.885 55.3661C127.497 44.756 127.495 27.5996 116.885 16.9876Z"/>
</mask>
<path d="M104.638 175.577H119.706C122.189 175.577 124.221 177.608 124.221 180.092V193.241C124.221 195.725 122.19 197.756 119.706 197.756H104.638C102.154 197.756 100.123 195.725 100.123 193.241V180.092C100.066 177.552 102.098 175.577 104.638 175.577ZM115.135 184.607H109.096V188.726H115.135V184.607ZM165.589 184.72C180.037 184.72 191.776 196.458 191.776 210.962C191.776 225.465 180.037 237.149 165.589 237.149C151.085 237.149 139.347 225.41 139.347 210.962C139.347 196.514 151.143 184.72 165.589 184.72ZM177.724 198.829C171.007 192.113 160.115 192.113 153.398 198.829C146.681 205.545 146.682 216.437 153.398 223.154C160.114 229.871 171.006 229.87 177.724 223.154C184.44 216.382 184.44 205.546 177.724 198.829ZM155.318 167.564C152.835 167.564 150.803 165.532 150.803 163.049C150.803 160.565 152.835 158.534 155.318 158.534H172.983C175.466 158.534 177.498 160.565 177.498 163.049C177.498 165.532 175.466 167.564 172.983 167.564H155.318ZM165.589 171.683C187.261 171.683 204.869 189.292 204.869 210.962C204.869 232.633 187.26 250.242 165.589 250.242C143.919 250.242 126.31 232.633 126.31 210.962C126.31 189.292 143.919 171.683 165.589 171.683ZM186.979 189.574C175.184 177.779 156.051 177.779 144.199 189.574C132.347 201.369 132.404 220.558 144.199 232.354C155.994 244.151 175.182 244.15 186.979 232.354C198.774 220.502 198.774 201.371 186.979 189.574ZM108.869 164.177H126.252V106.159C126.252 103.676 128.283 101.644 130.767 101.644C133.25 101.644 135.282 103.676 135.282 106.159V162.031C136.636 159.379 133.814 153.453 139.458 147.809C141.772 145.495 144.989 144.028 148.544 144.028H156.897V115.585C156.897 92.1072 136.693 85.673 115.528 85.673H79.8031C57.0589 85.673 38.4339 93.6307 38.4339 115.585V125.969H60.1057V106.16C60.1057 103.677 62.1375 101.645 64.6207 101.645C67.1039 101.645 69.1357 103.677 69.1357 106.16V125.969H93.7983C102.095 125.969 108.811 132.742 108.811 140.982V164.177L108.869 164.177ZM165.926 144.029H182.801C189.912 144.029 195.669 149.785 195.669 156.897V160.339C195.669 162.428 197.418 164.177 199.506 164.177H209.722C216.833 164.177 222.589 169.934 222.589 177.045V250.132C222.589 257.243 216.833 263 209.722 263H101.136C94.0249 263 88.2681 257.243 88.2681 250.132V234.894H15.0123C6.71611 234.894 0 228.122 0 219.882V140.982C0 132.686 6.77246 125.969 15.0123 125.969H29.4603V115.585C29.4603 87.0287 52.1481 76.6431 79.8594 76.6431H115.584C141.658 76.6431 165.983 86.5197 165.983 115.585V144.028L165.926 144.029ZM88.2686 225.862V177.045C88.2686 170.442 93.348 164.911 99.8946 164.234V140.982C99.8946 137.708 97.1856 134.943 93.8558 134.943H15.0136C11.7401 134.943 8.9748 137.652 8.9748 140.982V219.824C8.9748 223.097 11.6838 225.863 15.0136 225.863L88.2686 225.862ZM131.839 173.149H101.137C99.0487 173.149 97.299 174.898 97.299 176.986V250.074C97.299 252.162 99.0486 253.912 101.137 253.912H209.778C211.866 253.912 213.616 252.162 213.616 250.074V176.986C213.616 174.898 211.866 173.149 209.778 173.149H199.563C192.452 173.149 186.695 167.392 186.695 160.281V156.895C186.695 154.807 184.945 153.057 182.857 153.057H148.543C146.455 153.057 144.706 154.806 144.706 156.895V160.337C144.706 167.392 138.949 173.149 131.838 173.149H131.839ZM29.2368 205.601C26.7537 205.601 24.7218 203.569 24.7218 201.086C24.7218 198.603 26.7536 196.571 29.2368 196.571H79.636C82.1191 196.571 84.1509 198.603 84.1509 201.086C84.1509 203.569 82.1192 205.601 79.636 205.601H29.2368ZM29.2368 183.647C26.7537 183.647 24.7218 181.615 24.7218 179.132C24.7218 176.649 26.7536 174.617 29.2368 174.617H79.636C82.1191 174.617 84.1509 176.649 84.1509 179.132C84.1509 181.615 82.1192 183.647 79.636 183.647H29.2368ZM29.2368 161.749C26.7537 161.749 24.7218 159.718 24.7218 157.234C24.7218 154.751 26.7536 152.719 29.2368 152.719H49.3286C51.8117 152.719 53.8435 154.751 53.8435 157.234C53.8435 159.718 51.8118 161.749 49.3286 161.749H29.2368ZM97.6958 0C117.675 0 133.871 16.1976 133.871 36.1752C133.871 56.1528 117.673 72.3504 97.6958 72.3504C77.7182 72.3504 61.5207 56.1528 61.5207 36.1752C61.5207 16.1976 77.7182 0 97.6958 0ZM116.885 16.9876C106.275 6.37755 89.1181 6.37755 78.5061 16.9876C67.8941 27.5977 67.8961 44.7541 78.5061 55.3661C89.1162 65.9781 106.273 65.9762 116.885 55.3661C127.497 44.756 127.495 27.5996 116.885 16.9876Z" fill="#1FFF03" stroke="#05231C" stroke-width="6" mask="url(#path-1-inside-1_525_5)"/>
</svg>
