<svg width="272" height="272" viewBox="0 0 272 272" fill="none" xmlns="http://www.w3.org/2000/svg">
<mask id="path-1-inside-1_1_26" fill="white">
<path d="M246.148 139.843C247.81 145.245 252.826 149.192 258.792 149.192C266.093 149.192 272 143.256 272 135.985C272 128.714 266.064 122.778 258.792 122.778C252.856 122.778 247.81 126.726 246.148 132.127H228.012V81.14H258.792C260.929 81.14 262.65 79.4187 262.65 77.2818V53.2129C268.052 51.5509 272 46.5353 272 40.57C272 33.2989 266.064 27.3632 258.792 27.3632C251.52 27.3632 245.584 33.2989 245.584 40.57C245.584 46.5056 249.531 51.5509 254.933 53.2129V73.4534H228.012V70.5746C228.012 55.9136 216.08 43.983 201.418 43.983H198.539V17.0649H218.781C220.443 22.4663 225.46 26.4135 231.426 26.4135C238.727 26.4135 244.634 20.4779 244.634 13.2068C244.634 5.93562 238.727 0 231.426 0C225.489 0 220.443 3.94719 218.781 9.34861H194.71C192.573 9.34861 190.851 11.0699 190.851 13.2068V43.983H139.859V27.9568C145.261 26.2948 149.208 21.2495 149.208 15.3139C149.208 8.04277 143.272 2.10715 136 2.10715C128.728 2.10715 122.792 8.04277 122.792 15.3139C122.792 21.2495 126.739 26.2948 132.141 27.9568V43.983H81.1488V13.2068C81.1488 11.0699 79.4273 9.34861 77.2903 9.34861H53.2187C51.5565 3.94719 46.5404 0 40.5744 0C33.3025 0 27.3662 5.93562 27.3662 13.2068C27.3662 20.4779 33.3025 26.4135 40.5744 26.4135C46.5107 26.4135 51.5565 22.4663 53.2187 17.0649H73.4614V43.983H70.5823C55.9197 43.983 43.9878 55.9136 43.9878 70.5746V73.4534H17.0668V53.2129C22.4688 51.5509 26.4164 46.5353 26.4164 40.57C26.4164 33.2989 20.4801 27.3632 13.2082 27.3632C5.93627 27.3632 0 33.2989 0 40.57C0 46.5056 3.94762 51.5509 9.34963 53.2129V77.2818C9.34963 79.4187 11.0711 81.14 13.2082 81.14H43.9878V132.127H25.8525C24.1903 126.726 19.1445 122.778 13.2082 122.778C5.93627 122.778 0 128.714 0 135.985C0 143.256 5.93627 149.192 13.2082 149.192C19.1445 149.192 24.1903 145.245 25.8525 139.843H43.9878V190.83H13.2082C11.0711 190.83 9.34963 192.552 9.34963 194.688V218.757C3.94762 220.419 0 225.435 0 231.4C0 238.701 5.93627 244.607 13.2082 244.607C20.4801 244.607 26.4164 238.671 26.4164 231.4C26.4164 225.465 22.4688 220.419 17.0668 218.757V198.517H43.9878V201.396C43.9878 216.057 55.9197 227.987 70.5823 227.987H73.4614V254.905H53.2187C51.5565 249.504 46.5404 245.557 40.5744 245.557C33.3025 245.557 27.3662 251.492 27.3662 258.764C27.3662 266.035 33.3025 271.97 40.5744 271.97C46.5107 271.97 51.5565 268.023 53.2187 262.622H77.2903C79.4273 262.622 81.1488 260.9 81.1488 258.764V228.017H132.141V246.15C126.739 247.812 122.792 252.828 122.792 258.793C122.792 266.094 128.728 272 136 272C143.272 272 149.208 266.064 149.208 258.793C149.208 252.858 145.261 247.812 139.859 246.15V228.017H190.851V258.793C190.851 260.93 192.573 262.651 194.71 262.651H218.781C220.443 268.053 225.46 272 231.426 272C238.727 272 244.634 266.064 244.634 258.793C244.634 251.522 238.698 245.586 231.426 245.586C225.489 245.586 220.443 249.534 218.781 254.935H198.539V228.017H201.418C216.08 228.017 228.012 216.086 228.012 201.425V198.547H254.933V218.787C249.531 220.449 245.584 225.465 245.584 231.43C245.584 238.731 251.52 244.637 258.792 244.637C266.064 244.637 272 238.701 272 231.43C272 225.494 268.052 220.449 262.65 218.787V194.718C262.65 192.581 260.929 190.86 258.792 190.86H228.042V139.873H246.177L246.148 139.843ZM258.792 130.495C261.819 130.495 264.313 132.958 264.313 135.985C264.313 139.012 261.849 141.476 258.792 141.476C255.735 141.476 253.271 139.012 253.271 135.985C253.271 132.958 255.735 130.495 258.792 130.495ZM253.271 40.57C253.271 37.5428 255.735 35.0499 258.792 35.0499C261.849 35.0499 264.313 37.5131 264.313 40.5403C264.313 43.5675 261.849 46.0308 258.792 46.0308C255.764 46.0308 253.271 43.5675 253.271 40.5403V40.57ZM231.426 7.71631C234.453 7.71631 236.946 10.1796 236.946 13.2364C236.946 16.2933 234.483 18.7566 231.426 18.7566C228.368 18.7566 225.905 16.2933 225.905 13.2364C225.905 10.1796 228.368 7.71631 231.426 7.71631ZM130.479 15.3139C130.479 12.2867 132.943 9.79378 135.97 9.79378C138.998 9.79378 141.461 12.2571 141.461 15.3139C141.461 18.3708 138.998 20.834 135.97 20.834C132.943 20.834 130.479 18.3708 130.479 15.3139ZM40.5447 18.7269C37.5172 18.7269 35.024 16.2636 35.024 13.2068C35.024 10.1499 37.4876 7.68663 40.5151 7.68663C43.5426 7.68663 46.0061 10.1499 46.0061 13.2068C46.0061 16.2636 43.5426 18.7269 40.5151 18.7269H40.5447ZM7.71715 40.57C7.71715 37.5428 10.1807 35.0499 13.2379 35.0499C16.2951 35.0499 18.7586 37.5131 18.7586 40.5403C18.7586 43.5675 16.2951 46.0308 13.2379 46.0308C10.1807 46.0308 7.71715 43.5675 7.71715 40.5403V40.57ZM13.2379 141.505C10.2104 141.505 7.71715 139.042 7.71715 136.015C7.71715 132.988 10.1807 130.524 13.2379 130.524C16.2951 130.524 18.7289 132.988 18.7289 136.015C18.7289 139.042 16.2654 141.505 13.2379 141.505ZM18.7289 231.43C18.7289 234.457 16.2654 236.95 13.2082 236.95C10.151 236.95 7.68747 234.487 7.68747 231.43C7.68747 228.373 10.151 225.91 13.2082 225.91C16.2654 225.91 18.7289 228.373 18.7289 231.43ZM40.5744 264.284C37.5469 264.284 35.0537 261.82 35.0537 258.764C35.0537 255.707 37.5172 253.243 40.5447 253.243C43.5722 253.243 46.0358 255.707 46.0358 258.764C46.0358 261.82 43.5722 264.284 40.5447 264.284H40.5744ZM141.521 258.764C141.521 261.791 139.057 264.284 136.03 264.284C133.002 264.284 130.539 261.82 130.539 258.764C130.539 255.707 133.002 253.243 136.03 253.243C139.057 253.243 141.521 255.707 141.521 258.764ZM231.455 253.243C234.483 253.243 236.976 255.707 236.976 258.764C236.976 261.82 234.512 264.284 231.455 264.284C228.398 264.284 225.935 261.82 225.935 258.764C225.935 255.707 228.398 253.243 231.455 253.243ZM264.313 231.4C264.313 234.428 261.849 236.92 258.792 236.92C255.735 236.92 253.271 234.457 253.271 231.4C253.271 228.343 255.735 225.88 258.792 225.88C261.849 225.88 264.313 228.343 264.313 231.4ZM220.325 201.396C220.325 211.813 211.866 220.271 201.447 220.271H70.5823C60.1641 220.271 51.7049 211.813 51.7049 201.396V70.5746C51.7049 60.1576 60.1641 51.6993 70.5823 51.6993H201.447C211.866 51.6993 220.325 60.1576 220.325 70.5746V201.425V201.396ZM110.533 65.1732C99.581 65.1732 90.4391 72.7411 88.1833 83.1581C78.804 86.0072 71.9476 94.7326 71.9476 105.061C71.9476 106.485 72.0663 107.91 72.3335 109.275C66.6643 114.083 63.34 121.176 63.34 128.714C63.34 134.679 65.4474 140.437 69.2169 145.007C66.8127 148.925 65.4177 153.555 65.4177 158.481C65.4177 171.51 75.1235 182.313 87.6787 184.034C87.7381 196.618 97.9782 206.827 110.563 206.827C123.148 206.827 133.447 196.558 133.447 183.945V88.0253C133.447 75.6199 122.97 65.1732 110.563 65.1732H110.533ZM125.701 183.945C125.701 192.166 118.755 199.111 110.533 199.111C102.312 199.111 95.3662 192.314 95.3662 183.945C100.65 183.084 105.547 180.591 109.435 176.733C110.949 175.22 110.949 172.786 109.435 171.272C107.921 169.759 105.488 169.759 103.974 171.272C100.56 174.685 96.0192 176.555 91.1811 176.555C81.2082 176.555 73.0755 168.423 73.0755 158.451C73.0755 148.48 81.2082 140.348 91.1811 140.348C93.3182 140.348 95.0397 138.627 95.0397 136.49C95.0397 134.353 93.3182 132.632 91.1811 132.632C84.7403 132.632 78.804 135.006 74.2925 138.953C72.1851 135.985 71.0275 132.424 71.0275 128.684C71.0275 124.381 72.6006 120.256 75.3313 117.08C76.756 119.365 78.5962 121.443 80.8223 123.135C82.5142 124.44 84.9184 124.114 86.2244 122.452C87.5303 120.79 87.2038 118.356 85.5417 117.051C83.0781 115.151 81.2972 112.599 80.3771 109.75C80.3771 109.661 80.3178 109.601 80.2881 109.512C79.8429 108.088 79.6351 106.574 79.6351 105.031C79.6351 96.6616 86.4321 89.8654 94.8023 89.8654C98.8983 89.8654 102.727 91.468 105.606 94.3764C107.09 95.89 109.554 95.89 111.068 94.4061C112.581 92.9222 112.581 90.4589 111.097 88.9453C107.15 84.9685 102.045 82.5942 96.5238 82.2084C98.7796 76.6586 104.211 72.8598 110.533 72.8598C118.607 72.8598 125.701 79.9529 125.701 88.0253V183.945ZM199.667 109.275C199.934 107.91 200.052 106.485 200.052 105.061C200.052 94.7623 193.196 86.0072 183.817 83.1581C181.561 72.7411 172.419 65.1732 161.467 65.1732C149.06 65.1732 138.582 75.6495 138.582 88.0253V183.945C138.582 196.558 148.852 206.827 161.467 206.827C174.081 206.827 184.292 196.618 184.351 184.034C196.906 182.313 206.612 171.51 206.612 158.481C206.612 153.555 205.217 148.925 202.783 145.007C206.553 140.467 208.66 134.679 208.66 128.714C208.66 121.176 205.336 114.083 199.667 109.275ZM197.678 138.983C193.137 135.035 187.23 132.661 180.789 132.661C178.652 132.661 176.931 134.383 176.931 136.519C176.931 138.656 178.652 140.378 180.789 140.378C190.762 140.378 198.895 148.509 198.895 158.481C198.895 168.453 190.762 176.585 180.789 176.585C175.951 176.585 171.41 174.715 167.997 171.302C166.483 169.789 164.049 169.789 162.535 171.302C161.021 172.816 161.021 175.249 162.535 176.763C166.423 180.621 171.291 183.114 176.604 183.975C176.604 192.344 169.807 199.14 161.437 199.14C153.067 199.14 146.27 192.196 146.27 183.975V88.0253C146.27 79.9529 153.364 72.8598 161.437 72.8598C167.759 72.8598 173.191 76.6586 175.447 82.2084C169.926 82.6239 164.791 84.9685 160.873 88.9453C159.389 90.4589 159.389 92.8925 160.903 94.4061C162.416 95.89 164.85 95.89 166.364 94.3764C169.243 91.468 173.072 89.8654 177.168 89.8654C185.538 89.8654 192.335 96.6616 192.335 105.031C192.335 109.779 190.169 114.142 186.429 117.051C184.737 118.356 184.44 120.76 185.746 122.452C187.052 124.144 189.456 124.44 191.148 123.135C193.374 121.413 195.214 119.365 196.639 117.08C199.399 120.285 200.943 124.381 200.943 128.684C200.943 132.453 199.815 135.985 197.678 138.953V138.983Z"/>
</mask>
<path d="M246.148 139.843C247.81 145.245 252.826 149.192 258.792 149.192C266.093 149.192 272 143.256 272 135.985C272 128.714 266.064 122.778 258.792 122.778C252.856 122.778 247.81 126.726 246.148 132.127H228.012V81.14H258.792C260.929 81.14 262.65 79.4187 262.65 77.2818V53.2129C268.052 51.5509 272 46.5353 272 40.57C272 33.2989 266.064 27.3632 258.792 27.3632C251.52 27.3632 245.584 33.2989 245.584 40.57C245.584 46.5056 249.531 51.5509 254.933 53.2129V73.4534H228.012V70.5746C228.012 55.9136 216.08 43.983 201.418 43.983H198.539V17.0649H218.781C220.443 22.4663 225.46 26.4135 231.426 26.4135C238.727 26.4135 244.634 20.4779 244.634 13.2068C244.634 5.93562 238.727 0 231.426 0C225.489 0 220.443 3.94719 218.781 9.34861H194.71C192.573 9.34861 190.851 11.0699 190.851 13.2068V43.983H139.859V27.9568C145.261 26.2948 149.208 21.2495 149.208 15.3139C149.208 8.04277 143.272 2.10715 136 2.10715C128.728 2.10715 122.792 8.04277 122.792 15.3139C122.792 21.2495 126.739 26.2948 132.141 27.9568V43.983H81.1488V13.2068C81.1488 11.0699 79.4273 9.34861 77.2903 9.34861H53.2187C51.5565 3.94719 46.5404 0 40.5744 0C33.3025 0 27.3662 5.93562 27.3662 13.2068C27.3662 20.4779 33.3025 26.4135 40.5744 26.4135C46.5107 26.4135 51.5565 22.4663 53.2187 17.0649H73.4614V43.983H70.5823C55.9197 43.983 43.9878 55.9136 43.9878 70.5746V73.4534H17.0668V53.2129C22.4688 51.5509 26.4164 46.5353 26.4164 40.57C26.4164 33.2989 20.4801 27.3632 13.2082 27.3632C5.93627 27.3632 0 33.2989 0 40.57C0 46.5056 3.94762 51.5509 9.34963 53.2129V77.2818C9.34963 79.4187 11.0711 81.14 13.2082 81.14H43.9878V132.127H25.8525C24.1903 126.726 19.1445 122.778 13.2082 122.778C5.93627 122.778 0 128.714 0 135.985C0 143.256 5.93627 149.192 13.2082 149.192C19.1445 149.192 24.1903 145.245 25.8525 139.843H43.9878V190.83H13.2082C11.0711 190.83 9.34963 192.552 9.34963 194.688V218.757C3.94762 220.419 0 225.435 0 231.4C0 238.701 5.93627 244.607 13.2082 244.607C20.4801 244.607 26.4164 238.671 26.4164 231.4C26.4164 225.465 22.4688 220.419 17.0668 218.757V198.517H43.9878V201.396C43.9878 216.057 55.9197 227.987 70.5823 227.987H73.4614V254.905H53.2187C51.5565 249.504 46.5404 245.557 40.5744 245.557C33.3025 245.557 27.3662 251.492 27.3662 258.764C27.3662 266.035 33.3025 271.97 40.5744 271.97C46.5107 271.97 51.5565 268.023 53.2187 262.622H77.2903C79.4273 262.622 81.1488 260.9 81.1488 258.764V228.017H132.141V246.15C126.739 247.812 122.792 252.828 122.792 258.793C122.792 266.094 128.728 272 136 272C143.272 272 149.208 266.064 149.208 258.793C149.208 252.858 145.261 247.812 139.859 246.15V228.017H190.851V258.793C190.851 260.93 192.573 262.651 194.71 262.651H218.781C220.443 268.053 225.46 272 231.426 272C238.727 272 244.634 266.064 244.634 258.793C244.634 251.522 238.698 245.586 231.426 245.586C225.489 245.586 220.443 249.534 218.781 254.935H198.539V228.017H201.418C216.08 228.017 228.012 216.086 228.012 201.425V198.547H254.933V218.787C249.531 220.449 245.584 225.465 245.584 231.43C245.584 238.731 251.52 244.637 258.792 244.637C266.064 244.637 272 238.701 272 231.43C272 225.494 268.052 220.449 262.65 218.787V194.718C262.65 192.581 260.929 190.86 258.792 190.86H228.042V139.873H246.177L246.148 139.843ZM258.792 130.495C261.819 130.495 264.313 132.958 264.313 135.985C264.313 139.012 261.849 141.476 258.792 141.476C255.735 141.476 253.271 139.012 253.271 135.985C253.271 132.958 255.735 130.495 258.792 130.495ZM253.271 40.57C253.271 37.5428 255.735 35.0499 258.792 35.0499C261.849 35.0499 264.313 37.5131 264.313 40.5403C264.313 43.5675 261.849 46.0308 258.792 46.0308C255.764 46.0308 253.271 43.5675 253.271 40.5403V40.57ZM231.426 7.71631C234.453 7.71631 236.946 10.1796 236.946 13.2364C236.946 16.2933 234.483 18.7566 231.426 18.7566C228.368 18.7566 225.905 16.2933 225.905 13.2364C225.905 10.1796 228.368 7.71631 231.426 7.71631ZM130.479 15.3139C130.479 12.2867 132.943 9.79378 135.97 9.79378C138.998 9.79378 141.461 12.2571 141.461 15.3139C141.461 18.3708 138.998 20.834 135.97 20.834C132.943 20.834 130.479 18.3708 130.479 15.3139ZM40.5447 18.7269C37.5172 18.7269 35.024 16.2636 35.024 13.2068C35.024 10.1499 37.4876 7.68663 40.5151 7.68663C43.5426 7.68663 46.0061 10.1499 46.0061 13.2068C46.0061 16.2636 43.5426 18.7269 40.5151 18.7269H40.5447ZM7.71715 40.57C7.71715 37.5428 10.1807 35.0499 13.2379 35.0499C16.2951 35.0499 18.7586 37.5131 18.7586 40.5403C18.7586 43.5675 16.2951 46.0308 13.2379 46.0308C10.1807 46.0308 7.71715 43.5675 7.71715 40.5403V40.57ZM13.2379 141.505C10.2104 141.505 7.71715 139.042 7.71715 136.015C7.71715 132.988 10.1807 130.524 13.2379 130.524C16.2951 130.524 18.7289 132.988 18.7289 136.015C18.7289 139.042 16.2654 141.505 13.2379 141.505ZM18.7289 231.43C18.7289 234.457 16.2654 236.95 13.2082 236.95C10.151 236.95 7.68747 234.487 7.68747 231.43C7.68747 228.373 10.151 225.91 13.2082 225.91C16.2654 225.91 18.7289 228.373 18.7289 231.43ZM40.5744 264.284C37.5469 264.284 35.0537 261.82 35.0537 258.764C35.0537 255.707 37.5172 253.243 40.5447 253.243C43.5722 253.243 46.0358 255.707 46.0358 258.764C46.0358 261.82 43.5722 264.284 40.5447 264.284H40.5744ZM141.521 258.764C141.521 261.791 139.057 264.284 136.03 264.284C133.002 264.284 130.539 261.82 130.539 258.764C130.539 255.707 133.002 253.243 136.03 253.243C139.057 253.243 141.521 255.707 141.521 258.764ZM231.455 253.243C234.483 253.243 236.976 255.707 236.976 258.764C236.976 261.82 234.512 264.284 231.455 264.284C228.398 264.284 225.935 261.82 225.935 258.764C225.935 255.707 228.398 253.243 231.455 253.243ZM264.313 231.4C264.313 234.428 261.849 236.92 258.792 236.92C255.735 236.92 253.271 234.457 253.271 231.4C253.271 228.343 255.735 225.88 258.792 225.88C261.849 225.88 264.313 228.343 264.313 231.4ZM220.325 201.396C220.325 211.813 211.866 220.271 201.447 220.271H70.5823C60.1641 220.271 51.7049 211.813 51.7049 201.396V70.5746C51.7049 60.1576 60.1641 51.6993 70.5823 51.6993H201.447C211.866 51.6993 220.325 60.1576 220.325 70.5746V201.425V201.396ZM110.533 65.1732C99.581 65.1732 90.4391 72.7411 88.1833 83.1581C78.804 86.0072 71.9476 94.7326 71.9476 105.061C71.9476 106.485 72.0663 107.91 72.3335 109.275C66.6643 114.083 63.34 121.176 63.34 128.714C63.34 134.679 65.4474 140.437 69.2169 145.007C66.8127 148.925 65.4177 153.555 65.4177 158.481C65.4177 171.51 75.1235 182.313 87.6787 184.034C87.7381 196.618 97.9782 206.827 110.563 206.827C123.148 206.827 133.447 196.558 133.447 183.945V88.0253C133.447 75.6199 122.97 65.1732 110.563 65.1732H110.533ZM125.701 183.945C125.701 192.166 118.755 199.111 110.533 199.111C102.312 199.111 95.3662 192.314 95.3662 183.945C100.65 183.084 105.547 180.591 109.435 176.733C110.949 175.22 110.949 172.786 109.435 171.272C107.921 169.759 105.488 169.759 103.974 171.272C100.56 174.685 96.0192 176.555 91.1811 176.555C81.2082 176.555 73.0755 168.423 73.0755 158.451C73.0755 148.48 81.2082 140.348 91.1811 140.348C93.3182 140.348 95.0397 138.627 95.0397 136.49C95.0397 134.353 93.3182 132.632 91.1811 132.632C84.7403 132.632 78.804 135.006 74.2925 138.953C72.1851 135.985 71.0275 132.424 71.0275 128.684C71.0275 124.381 72.6006 120.256 75.3313 117.08C76.756 119.365 78.5962 121.443 80.8223 123.135C82.5142 124.44 84.9184 124.114 86.2244 122.452C87.5303 120.79 87.2038 118.356 85.5417 117.051C83.0781 115.151 81.2972 112.599 80.3771 109.75C80.3771 109.661 80.3178 109.601 80.2881 109.512C79.8429 108.088 79.6351 106.574 79.6351 105.031C79.6351 96.6616 86.4321 89.8654 94.8023 89.8654C98.8983 89.8654 102.727 91.468 105.606 94.3764C107.09 95.89 109.554 95.89 111.068 94.4061C112.581 92.9222 112.581 90.4589 111.097 88.9453C107.15 84.9685 102.045 82.5942 96.5238 82.2084C98.7796 76.6586 104.211 72.8598 110.533 72.8598C118.607 72.8598 125.701 79.9529 125.701 88.0253V183.945ZM199.667 109.275C199.934 107.91 200.052 106.485 200.052 105.061C200.052 94.7623 193.196 86.0072 183.817 83.1581C181.561 72.7411 172.419 65.1732 161.467 65.1732C149.06 65.1732 138.582 75.6495 138.582 88.0253V183.945C138.582 196.558 148.852 206.827 161.467 206.827C174.081 206.827 184.292 196.618 184.351 184.034C196.906 182.313 206.612 171.51 206.612 158.481C206.612 153.555 205.217 148.925 202.783 145.007C206.553 140.467 208.66 134.679 208.66 128.714C208.66 121.176 205.336 114.083 199.667 109.275ZM197.678 138.983C193.137 135.035 187.23 132.661 180.789 132.661C178.652 132.661 176.931 134.383 176.931 136.519C176.931 138.656 178.652 140.378 180.789 140.378C190.762 140.378 198.895 148.509 198.895 158.481C198.895 168.453 190.762 176.585 180.789 176.585C175.951 176.585 171.41 174.715 167.997 171.302C166.483 169.789 164.049 169.789 162.535 171.302C161.021 172.816 161.021 175.249 162.535 176.763C166.423 180.621 171.291 183.114 176.604 183.975C176.604 192.344 169.807 199.14 161.437 199.14C153.067 199.14 146.27 192.196 146.27 183.975V88.0253C146.27 79.9529 153.364 72.8598 161.437 72.8598C167.759 72.8598 173.191 76.6586 175.447 82.2084C169.926 82.6239 164.791 84.9685 160.873 88.9453C159.389 90.4589 159.389 92.8925 160.903 94.4061C162.416 95.89 164.85 95.89 166.364 94.3764C169.243 91.468 173.072 89.8654 177.168 89.8654C185.538 89.8654 192.335 96.6616 192.335 105.031C192.335 109.779 190.169 114.142 186.429 117.051C184.737 118.356 184.44 120.76 185.746 122.452C187.052 124.144 189.456 124.44 191.148 123.135C193.374 121.413 195.214 119.365 196.639 117.08C199.399 120.285 200.943 124.381 200.943 128.684C200.943 132.453 199.815 135.985 197.678 138.953V138.983Z" fill="#1FFF03" stroke="#05231C" stroke-width="6" mask="url(#path-1-inside-1_1_26)"/>
</svg>
