<svg width="260" height="272" viewBox="0 0 260 272" fill="none" xmlns="http://www.w3.org/2000/svg">
<mask id="path-1-inside-1_380_980" fill="white">
<path d="M46.7672 103.293C58.9305 103.293 68.8289 94.6547 68.8502 84.0287C68.8536 83.7444 68.8085 83.4601 68.7083 83.1856C68.6048 82.8983 68.4494 82.6298 68.2479 82.3907L52.8061 63.4624H81.4459C82.2858 67.1644 84.8042 70.341 88.2762 72.3659V119.087H85.2434C80.892 119.087 77.3513 122.182 77.3513 125.984V127.444H71.4205C67.5296 127.444 64.3651 130.209 64.3651 133.609V141.494C64.3651 142.997 65.7589 144.215 67.4781 144.215H126.763C128.482 144.215 129.876 142.997 129.876 141.494V133.609C129.876 130.209 126.711 127.444 122.821 127.444H116.89V125.984C116.89 122.181 113.348 119.087 108.998 119.087H105.965V72.3659C109.437 70.3412 111.955 67.1646 112.795 63.4624H141.432L125.99 82.3907C125.796 82.6239 125.641 82.8836 125.541 83.164C125.437 83.4453 125.389 83.7385 125.392 84.0287C125.412 94.6547 135.31 103.293 147.475 103.293C159.638 103.293 169.537 94.6547 169.558 84.0287C169.561 83.7385 169.513 83.4483 169.409 83.1669C169.306 82.8855 169.154 82.6258 168.96 82.3936L150.052 59.2163C149.945 59.0776 149.817 58.9448 149.678 58.8208C149.675 58.8179 149.668 58.812 149.661 58.809C149.53 58.6939 149.384 58.5916 149.236 58.5011C149.187 58.4735 149.136 58.4528 149.087 58.4253C148.99 58.3741 148.897 58.3191 148.797 58.2807C148.772 58.2718 148.748 58.2659 148.728 58.2561C148.697 58.2443 148.67 58.2344 148.638 58.2256C148.468 58.1656 148.296 58.1164 148.122 58.0869C148.106 58.0869 148.091 58.0839 148.074 58.081C147.877 58.0475 147.68 58.0298 147.483 58.0298H112.805C111.353 51.6292 104.878 46.7868 97.1316 46.7868C89.3848 46.7868 82.9101 51.6282 81.4578 58.0298H46.7803C46.5833 58.0298 46.3863 58.0475 46.1926 58.081C46.1757 58.081 46.1577 58.0839 46.1374 58.0898C45.9641 58.1233 45.7918 58.1715 45.6218 58.2285C45.5903 58.2403 45.5599 58.2502 45.5317 58.262C45.5036 58.2708 45.4766 58.2797 45.4518 58.2895C45.3516 58.3318 45.2582 58.3859 45.1613 58.4381C45.1163 58.4627 45.0679 58.4833 45.0229 58.5079C44.8675 58.6014 44.7189 58.7047 44.5838 58.8257C44.442 58.9497 44.317 59.0825 44.2067 59.2251L25.2986 82.4025C25.1083 82.6317 24.9563 82.8865 24.8527 83.1639C24.7458 83.4512 24.6974 83.7473 24.7008 84.0434C24.721 94.6666 34.6193 103.304 46.7838 103.304L46.7672 103.293ZM123.65 133.608V138.773H70.5878V133.608C70.5878 133.216 70.9683 132.883 71.4175 132.883H122.814C123.263 132.883 123.644 133.216 123.644 133.608H123.65ZM110.664 125.983V127.443H83.5798V125.983C83.5798 125.194 84.3442 124.526 85.2472 124.526H108.993C109.896 124.526 110.66 125.194 110.66 125.983H110.664ZM99.7389 119.086H94.5062V74.5132C95.3573 74.6371 96.2321 74.704 97.1248 74.704C98.0176 74.704 98.889 74.6371 99.739 74.5132L99.7389 119.086ZM147.472 97.852C139.794 97.852 133.371 93.059 131.923 86.7153H163.021C161.572 93.059 155.149 97.852 147.471 97.852H147.472ZM134.545 81.275L147.472 65.4258L160.4 81.275H134.545ZM97.1205 52.2186C102.499 52.2186 106.874 56.0387 106.874 60.7383V60.7412V60.7442C106.874 65.4438 102.499 69.2639 97.1205 69.2639C91.7425 69.2639 87.3675 65.4408 87.3675 60.7412C87.3675 56.0416 91.7425 52.2186 97.1205 52.2186ZM46.7672 65.4291L59.6949 81.2782H33.8392L46.7672 65.4291ZM62.317 86.7175C60.8681 93.0612 54.4454 97.8542 46.7672 97.8542C39.089 97.8542 32.6662 93.0612 31.2173 86.7175H62.317ZM21.3651 164.027C21.3651 162.524 22.7589 161.306 24.4781 161.306H137.875C139.594 161.306 140.988 162.524 140.988 164.027C140.988 165.529 139.594 166.747 137.875 166.747L24.4781 166.746C22.759 166.746 21.3651 165.528 21.3651 164.026V164.027ZM119.994 183.094H24.4778C22.7587 183.094 21.3649 181.876 21.3649 180.373C21.3649 178.871 22.7586 177.653 24.4778 177.653H119.994C121.713 177.653 123.107 178.871 123.107 180.373C123.107 181.876 121.713 183.094 119.994 183.094ZM115.702 196.721C115.702 198.224 114.308 199.442 112.589 199.442H24.4772C22.7581 199.442 21.3643 198.224 21.3643 196.721C21.3643 195.219 22.758 194.001 24.4772 194.001H112.589C114.308 194.001 115.702 195.219 115.702 196.721ZM257.389 198.501L246.191 196.666C245.198 193.937 243.939 191.281 242.425 188.733L248.862 180.512C249.709 179.433 249.553 177.98 248.491 177.052L231.088 161.844C230.03 160.92 228.366 160.784 227.129 161.524L217.721 167.148C214.805 165.824 211.766 164.724 208.643 163.857L206.543 154.072C206.266 152.784 204.984 151.853 203.482 151.853H194.226L194.224 17.9977C194.224 16.4955 192.83 15.2775 191.111 15.2775H138.089V9.92858C138.089 4.4558 132.991 0 126.727 0H67.497C61.2342 0 56.1351 4.45479 56.1351 9.92858V15.2775H3.11297C1.39384 15.2775 0 16.4954 0 17.9977V220.937C0 222.439 1.39376 223.657 3.11297 223.657H122.634C123.011 224.519 123.876 225.177 124.961 225.355L136.16 227.19C137.153 229.919 138.411 232.575 139.925 235.123L133.489 243.344C132.641 244.423 132.798 245.876 133.859 246.804L151.262 262.012C152.321 262.936 153.985 263.072 155.222 262.332L164.629 256.708C167.545 258.032 170.585 259.132 173.708 259.999L175.808 269.782C176.085 271.069 177.367 272 178.869 272H203.483C204.98 272 206.267 271.069 206.544 269.782L208.643 259.996C211.77 259.128 214.81 258.025 217.722 256.705L227.129 262.329C228.368 263.07 230.027 262.934 231.089 262.009L248.492 246.801C249.55 245.876 249.706 244.422 248.862 243.341L242.426 235.12C243.941 232.572 245.2 229.916 246.192 227.187L257.39 225.352C258.864 225.11 259.929 223.99 259.929 222.677V201.168C259.929 199.86 258.864 198.735 257.39 198.493L257.389 198.501ZM62.3686 9.92788C62.3686 7.45263 64.6721 5.43984 67.5045 5.43984H126.735C129.567 5.43984 131.871 7.45271 131.871 9.92788V24.2412H62.3715V9.92788H62.3686ZM6.23378 20.7173H56.1433V26.9615C56.1433 28.4638 57.537 29.6818 59.2562 29.6818H134.981C136.7 29.6818 138.094 28.4638 138.094 26.9615V20.7173H188.003V151.853H178.87C177.372 151.853 176.085 152.783 175.808 154.071L173.709 163.857C170.582 164.725 167.542 165.827 164.63 167.148L155.223 161.523C153.984 160.782 152.325 160.919 151.263 161.844L133.86 177.052C132.802 177.976 132.647 179.43 133.49 180.512L139.926 188.732C138.411 191.28 137.152 193.937 136.16 196.666L124.962 198.501C123.488 198.743 122.423 199.863 122.423 201.175V218.218H6.23378V20.7173ZM253.703 220.425L243.179 222.15C242.014 222.341 241.076 223.093 240.755 224.09C239.655 227.521 238.081 230.839 236.073 233.958C235.492 234.862 235.547 235.974 236.215 236.829L242.264 244.557L228.513 256.573L219.669 251.287C218.691 250.701 217.418 250.652 216.384 251.163C212.822 252.916 209.021 254.295 205.092 255.255C203.951 255.533 203.093 256.354 202.872 257.373L200.897 266.569H181.45L179.478 257.373C179.26 256.354 178.4 255.532 177.258 255.255C173.333 254.293 169.535 252.918 165.966 251.163C164.932 250.655 163.659 250.704 162.681 251.29L153.838 256.576L140.087 244.56L146.136 236.832C146.803 235.977 146.862 234.864 146.278 233.961C144.271 230.845 142.694 227.524 141.595 224.093C141.277 223.096 140.337 222.343 139.171 222.153L128.647 220.428V203.433L139.171 201.708C140.337 201.517 141.275 200.765 141.595 199.768C142.695 196.337 144.269 193.019 146.278 189.9C146.859 188.996 146.803 187.884 146.136 187.03L140.087 179.302L153.838 167.285L162.681 172.571C163.659 173.158 164.933 173.206 165.966 172.698C169.528 170.945 173.329 169.567 177.258 168.607C178.4 168.328 179.258 167.507 179.478 166.488L181.45 157.292H200.897L202.872 166.488C203.09 167.507 203.951 168.326 205.092 168.607C209.014 169.568 212.815 170.946 216.384 172.698C217.414 173.206 218.691 173.158 219.669 172.571L228.513 167.285L242.264 179.302L236.215 187.03C235.547 187.884 235.488 188.997 236.073 189.9C238.079 193.016 239.656 196.337 240.755 199.768C241.074 200.765 242.014 201.518 243.179 201.708L253.703 203.433V220.428V220.425ZM211.521 199.157C212.738 200.218 212.738 201.94 211.521 203.005L186.695 224.699C186.086 225.231 185.291 225.496 184.495 225.496C183.699 225.496 182.901 225.231 182.295 224.699L170.848 214.695C169.631 213.635 169.631 211.912 170.848 210.848C172.062 209.784 174.033 209.784 175.251 210.848L184.5 218.926L207.125 199.154C208.339 198.091 210.31 198.091 211.528 199.154L211.521 199.157ZM191.185 176.403C168.77 176.403 150.533 192.339 150.533 211.927C150.533 231.514 168.77 247.451 191.185 247.451C213.6 247.451 231.837 231.514 231.837 211.927C231.837 192.339 213.6 176.403 191.185 176.403ZM191.185 242.01C172.201 242.01 156.758 228.517 156.758 211.927C156.758 195.338 172.2 181.843 191.185 181.843C210.168 181.843 225.612 195.336 225.612 211.927C225.612 228.515 210.17 242.01 191.185 242.01Z"/>
</mask>
<path d="M46.7672 103.293C58.9305 103.293 68.8289 94.6547 68.8502 84.0287C68.8536 83.7444 68.8085 83.4601 68.7083 83.1856C68.6048 82.8983 68.4494 82.6298 68.2479 82.3907L52.8061 63.4624H81.4459C82.2858 67.1644 84.8042 70.341 88.2762 72.3659V119.087H85.2434C80.892 119.087 77.3513 122.182 77.3513 125.984V127.444H71.4205C67.5296 127.444 64.3651 130.209 64.3651 133.609V141.494C64.3651 142.997 65.7589 144.215 67.4781 144.215H126.763C128.482 144.215 129.876 142.997 129.876 141.494V133.609C129.876 130.209 126.711 127.444 122.821 127.444H116.89V125.984C116.89 122.181 113.348 119.087 108.998 119.087H105.965V72.3659C109.437 70.3412 111.955 67.1646 112.795 63.4624H141.432L125.99 82.3907C125.796 82.6239 125.641 82.8836 125.541 83.164C125.437 83.4453 125.389 83.7385 125.392 84.0287C125.412 94.6547 135.31 103.293 147.475 103.293C159.638 103.293 169.537 94.6547 169.558 84.0287C169.561 83.7385 169.513 83.4483 169.409 83.1669C169.306 82.8855 169.154 82.6258 168.96 82.3936L150.052 59.2163C149.945 59.0776 149.817 58.9448 149.678 58.8208C149.675 58.8179 149.668 58.812 149.661 58.809C149.53 58.6939 149.384 58.5916 149.236 58.5011C149.187 58.4735 149.136 58.4528 149.087 58.4253C148.99 58.3741 148.897 58.3191 148.797 58.2807C148.772 58.2718 148.748 58.2659 148.728 58.2561C148.697 58.2443 148.67 58.2344 148.638 58.2256C148.468 58.1656 148.296 58.1164 148.122 58.0869C148.106 58.0869 148.091 58.0839 148.074 58.081C147.877 58.0475 147.68 58.0298 147.483 58.0298H112.805C111.353 51.6292 104.878 46.7868 97.1316 46.7868C89.3848 46.7868 82.9101 51.6282 81.4578 58.0298H46.7803C46.5833 58.0298 46.3863 58.0475 46.1926 58.081C46.1757 58.081 46.1577 58.0839 46.1374 58.0898C45.9641 58.1233 45.7918 58.1715 45.6218 58.2285C45.5903 58.2403 45.5599 58.2502 45.5317 58.262C45.5036 58.2708 45.4766 58.2797 45.4518 58.2895C45.3516 58.3318 45.2582 58.3859 45.1613 58.4381C45.1163 58.4627 45.0679 58.4833 45.0229 58.5079C44.8675 58.6014 44.7189 58.7047 44.5838 58.8257C44.442 58.9497 44.317 59.0825 44.2067 59.2251L25.2986 82.4025C25.1083 82.6317 24.9563 82.8865 24.8527 83.1639C24.7458 83.4512 24.6974 83.7473 24.7008 84.0434C24.721 94.6666 34.6193 103.304 46.7838 103.304L46.7672 103.293ZM123.65 133.608V138.773H70.5878V133.608C70.5878 133.216 70.9683 132.883 71.4175 132.883H122.814C123.263 132.883 123.644 133.216 123.644 133.608H123.65ZM110.664 125.983V127.443H83.5798V125.983C83.5798 125.194 84.3442 124.526 85.2472 124.526H108.993C109.896 124.526 110.66 125.194 110.66 125.983H110.664ZM99.7389 119.086H94.5062V74.5132C95.3573 74.6371 96.2321 74.704 97.1248 74.704C98.0176 74.704 98.889 74.6371 99.739 74.5132L99.7389 119.086ZM147.472 97.852C139.794 97.852 133.371 93.059 131.923 86.7153H163.021C161.572 93.059 155.149 97.852 147.471 97.852H147.472ZM134.545 81.275L147.472 65.4258L160.4 81.275H134.545ZM97.1205 52.2186C102.499 52.2186 106.874 56.0387 106.874 60.7383V60.7412V60.7442C106.874 65.4438 102.499 69.2639 97.1205 69.2639C91.7425 69.2639 87.3675 65.4408 87.3675 60.7412C87.3675 56.0416 91.7425 52.2186 97.1205 52.2186ZM46.7672 65.4291L59.6949 81.2782H33.8392L46.7672 65.4291ZM62.317 86.7175C60.8681 93.0612 54.4454 97.8542 46.7672 97.8542C39.089 97.8542 32.6662 93.0612 31.2173 86.7175H62.317ZM21.3651 164.027C21.3651 162.524 22.7589 161.306 24.4781 161.306H137.875C139.594 161.306 140.988 162.524 140.988 164.027C140.988 165.529 139.594 166.747 137.875 166.747L24.4781 166.746C22.759 166.746 21.3651 165.528 21.3651 164.026V164.027ZM119.994 183.094H24.4778C22.7587 183.094 21.3649 181.876 21.3649 180.373C21.3649 178.871 22.7586 177.653 24.4778 177.653H119.994C121.713 177.653 123.107 178.871 123.107 180.373C123.107 181.876 121.713 183.094 119.994 183.094ZM115.702 196.721C115.702 198.224 114.308 199.442 112.589 199.442H24.4772C22.7581 199.442 21.3643 198.224 21.3643 196.721C21.3643 195.219 22.758 194.001 24.4772 194.001H112.589C114.308 194.001 115.702 195.219 115.702 196.721ZM257.389 198.501L246.191 196.666C245.198 193.937 243.939 191.281 242.425 188.733L248.862 180.512C249.709 179.433 249.553 177.98 248.491 177.052L231.088 161.844C230.03 160.92 228.366 160.784 227.129 161.524L217.721 167.148C214.805 165.824 211.766 164.724 208.643 163.857L206.543 154.072C206.266 152.784 204.984 151.853 203.482 151.853H194.226L194.224 17.9977C194.224 16.4955 192.83 15.2775 191.111 15.2775H138.089V9.92858C138.089 4.4558 132.991 0 126.727 0H67.497C61.2342 0 56.1351 4.45479 56.1351 9.92858V15.2775H3.11297C1.39384 15.2775 0 16.4954 0 17.9977V220.937C0 222.439 1.39376 223.657 3.11297 223.657H122.634C123.011 224.519 123.876 225.177 124.961 225.355L136.16 227.19C137.153 229.919 138.411 232.575 139.925 235.123L133.489 243.344C132.641 244.423 132.798 245.876 133.859 246.804L151.262 262.012C152.321 262.936 153.985 263.072 155.222 262.332L164.629 256.708C167.545 258.032 170.585 259.132 173.708 259.999L175.808 269.782C176.085 271.069 177.367 272 178.869 272H203.483C204.98 272 206.267 271.069 206.544 269.782L208.643 259.996C211.77 259.128 214.81 258.025 217.722 256.705L227.129 262.329C228.368 263.07 230.027 262.934 231.089 262.009L248.492 246.801C249.55 245.876 249.706 244.422 248.862 243.341L242.426 235.12C243.941 232.572 245.2 229.916 246.192 227.187L257.39 225.352C258.864 225.11 259.929 223.99 259.929 222.677V201.168C259.929 199.86 258.864 198.735 257.39 198.493L257.389 198.501ZM62.3686 9.92788C62.3686 7.45263 64.6721 5.43984 67.5045 5.43984H126.735C129.567 5.43984 131.871 7.45271 131.871 9.92788V24.2412H62.3715V9.92788H62.3686ZM6.23378 20.7173H56.1433V26.9615C56.1433 28.4638 57.537 29.6818 59.2562 29.6818H134.981C136.7 29.6818 138.094 28.4638 138.094 26.9615V20.7173H188.003V151.853H178.87C177.372 151.853 176.085 152.783 175.808 154.071L173.709 163.857C170.582 164.725 167.542 165.827 164.63 167.148L155.223 161.523C153.984 160.782 152.325 160.919 151.263 161.844L133.86 177.052C132.802 177.976 132.647 179.43 133.49 180.512L139.926 188.732C138.411 191.28 137.152 193.937 136.16 196.666L124.962 198.501C123.488 198.743 122.423 199.863 122.423 201.175V218.218H6.23378V20.7173ZM253.703 220.425L243.179 222.15C242.014 222.341 241.076 223.093 240.755 224.09C239.655 227.521 238.081 230.839 236.073 233.958C235.492 234.862 235.547 235.974 236.215 236.829L242.264 244.557L228.513 256.573L219.669 251.287C218.691 250.701 217.418 250.652 216.384 251.163C212.822 252.916 209.021 254.295 205.092 255.255C203.951 255.533 203.093 256.354 202.872 257.373L200.897 266.569H181.45L179.478 257.373C179.26 256.354 178.4 255.532 177.258 255.255C173.333 254.293 169.535 252.918 165.966 251.163C164.932 250.655 163.659 250.704 162.681 251.29L153.838 256.576L140.087 244.56L146.136 236.832C146.803 235.977 146.862 234.864 146.278 233.961C144.271 230.845 142.694 227.524 141.595 224.093C141.277 223.096 140.337 222.343 139.171 222.153L128.647 220.428V203.433L139.171 201.708C140.337 201.517 141.275 200.765 141.595 199.768C142.695 196.337 144.269 193.019 146.278 189.9C146.859 188.996 146.803 187.884 146.136 187.03L140.087 179.302L153.838 167.285L162.681 172.571C163.659 173.158 164.933 173.206 165.966 172.698C169.528 170.945 173.329 169.567 177.258 168.607C178.4 168.328 179.258 167.507 179.478 166.488L181.45 157.292H200.897L202.872 166.488C203.09 167.507 203.951 168.326 205.092 168.607C209.014 169.568 212.815 170.946 216.384 172.698C217.414 173.206 218.691 173.158 219.669 172.571L228.513 167.285L242.264 179.302L236.215 187.03C235.547 187.884 235.488 188.997 236.073 189.9C238.079 193.016 239.656 196.337 240.755 199.768C241.074 200.765 242.014 201.518 243.179 201.708L253.703 203.433V220.428V220.425ZM211.521 199.157C212.738 200.218 212.738 201.94 211.521 203.005L186.695 224.699C186.086 225.231 185.291 225.496 184.495 225.496C183.699 225.496 182.901 225.231 182.295 224.699L170.848 214.695C169.631 213.635 169.631 211.912 170.848 210.848C172.062 209.784 174.033 209.784 175.251 210.848L184.5 218.926L207.125 199.154C208.339 198.091 210.31 198.091 211.528 199.154L211.521 199.157ZM191.185 176.403C168.77 176.403 150.533 192.339 150.533 211.927C150.533 231.514 168.77 247.451 191.185 247.451C213.6 247.451 231.837 231.514 231.837 211.927C231.837 192.339 213.6 176.403 191.185 176.403ZM191.185 242.01C172.201 242.01 156.758 228.517 156.758 211.927C156.758 195.338 172.2 181.843 191.185 181.843C210.168 181.843 225.612 195.336 225.612 211.927C225.612 228.515 210.17 242.01 191.185 242.01Z" fill="#1FFF03" stroke="#05231C" stroke-width="4" mask="url(#path-1-inside-1_380_980)"/>
</svg>
